<svg width="370" height="340" viewBox="0 0 370 340" fill="none" xmlns="http://www.w3.org/2000/svg">
<g clip-path="url(#clip0_2098_25069)">
<rect width="370" height="340" rx="20" fill="#F2F8F3"/>
<rect width="370" height="340" rx="20" fill="#F2F8F3"/>
<path d="M108.288 134.662C108.288 134.662 119.393 132.535 118.979 111.636C118.565 90.7377 146.768 89.929 196.028 88.4134C245.289 86.8979 279.579 91.4508 290.519 121.086C301.458 150.721 286.698 169.971 254.968 175.543C223.238 181.114 241.277 198.116 259.616 200.491C284.947 203.777 296.606 227.993 282.655 245.848C268.703 263.704 252.09 266.696 248.033 287.984C242.888 314.798 200.237 344.077 141.056 339.53C75.2013 334.468 49.9152 291.906 61.861 249.109C68.5088 225.294 95.0876 214.538 115.19 209.215C135.293 203.892 125.856 180.726 91.4007 186.425C56.9451 192.124 52.0038 156.497 70.5211 146.57C86.8988 137.776 93.5212 140.705 108.288 134.662Z" fill="#DEE8E1"/>
<path d="M100.105 127.963C104.624 127.963 108.288 124.3 108.288 119.781C108.288 115.262 104.624 111.598 100.105 111.598C95.5863 111.598 91.9229 115.262 91.9229 119.781C91.9229 124.3 95.5863 127.963 100.105 127.963Z" fill="#94C1A7"/>
<path d="M110.039 109.637C113.015 109.637 115.426 107.225 115.426 104.25C115.426 101.275 113.015 98.8629 110.039 98.8629C107.064 98.8629 104.652 101.275 104.652 104.25C104.652 107.225 107.064 109.637 110.039 109.637Z" fill="#BFDBC9"/>
<path d="M81.6896 133.535C84.0212 133.535 85.9114 131.645 85.9114 129.313C85.9114 126.981 84.0212 125.091 81.6896 125.091C79.3579 125.091 77.4678 126.981 77.4678 129.313C77.4678 131.645 79.3579 133.535 81.6896 133.535Z" fill="#BFDBC9"/>
<path d="M90.057 109.401C93.296 109.401 95.9217 106.776 95.9217 103.537C95.9217 100.298 93.296 97.672 90.057 97.672C86.8181 97.672 84.1924 100.298 84.1924 103.537C84.1924 106.776 86.8181 109.401 90.057 109.401Z" fill="#BFDBC9"/>
<path d="M125.232 92.546C127.04 92.546 128.505 91.0806 128.505 89.273C128.505 87.4654 127.04 86 125.232 86C123.424 86 121.959 87.4654 121.959 89.273C121.959 91.0806 123.424 92.546 125.232 92.546Z" fill="#BFDBC9"/>
<path d="M267.308 242.002L266.869 241.639C274.829 230.988 280.239 218.651 282.68 205.579C286.163 186.062 283.221 156.936 249.453 128.982L249.822 128.543C264.818 140.96 275.077 154.65 280.305 169.239C284.488 180.919 285.501 193.5 283.24 205.7C280.777 218.86 275.327 231.28 267.308 242.002Z" fill="#246144"/>
<path d="M254.255 132.752C254.255 132.752 243.5 130.631 239.921 124.053C236.342 117.475 246.123 118.424 254.255 132.752Z" fill="#246144"/>
<path d="M263.023 141.565C263.023 141.565 264.672 126.919 260.667 122.461C256.662 118.004 252.516 127.415 263.023 141.565Z" fill="#246144"/>
<path d="M261.744 140.055C261.744 140.055 248.709 133.178 243.118 135.286C237.527 137.394 244.735 144.672 261.744 140.055Z" fill="#246144"/>
<path d="M268.321 148.257C268.321 148.257 255.293 141.374 249.702 143.481C244.111 145.589 251.313 152.874 268.321 148.257Z" fill="#246144"/>
<path d="M274.663 157.299C274.663 157.299 261.635 150.422 256.044 152.53C250.453 154.638 257.655 161.916 274.663 157.299Z" fill="#246144"/>
<path d="M279.911 168.538C279.911 168.538 267.475 160.636 261.731 162.292C255.987 163.947 262.591 171.779 279.911 168.538Z" fill="#246144"/>
<path d="M283.483 182.248C283.483 182.248 273.008 171.888 267.041 172.289C261.075 172.69 265.87 181.738 283.483 182.248Z" fill="#246144"/>
<path d="M284.119 197.702C284.119 197.702 277.51 184.534 271.728 183.005C265.946 181.477 267.589 191.576 284.119 197.702Z" fill="#246144"/>
<path d="M280.852 214.309C280.852 214.309 279.018 199.664 274.083 196.321C269.148 192.977 267.315 203.026 280.852 214.309Z" fill="#246144"/>
<path d="M274.695 229.573C274.695 229.573 276.268 214.927 272.244 210.508C268.22 206.089 264.112 215.475 274.695 229.573Z" fill="#246144"/>
<path d="M270.372 150.83C270.372 150.83 275.975 139.45 273.689 131.472C271.403 123.493 267.245 130.198 267.532 134.929C267.818 139.661 270.372 150.83 270.372 150.83Z" fill="#246144"/>
<path d="M275.325 158.808C275.325 158.808 282.661 148.461 281.693 140.215C280.725 131.968 275.535 137.954 275.07 142.66C274.606 147.365 275.325 158.808 275.325 158.808Z" fill="#246144"/>
<path d="M279.445 167.596C279.445 167.596 288.997 159.229 289.914 150.976C290.831 142.724 284.45 147.347 282.909 151.823C281.368 156.3 279.445 167.596 279.445 167.596Z" fill="#246144"/>
<path d="M282.737 178.179C282.737 178.179 292.289 169.811 293.206 161.559C294.123 153.306 287.742 157.936 286.201 162.406C284.66 166.876 282.737 178.179 282.737 178.179Z" fill="#246144"/>
<path d="M284.119 191.544C284.119 191.544 294.651 184.476 296.644 176.415C298.638 168.353 291.69 172.11 289.583 176.345C287.475 180.579 284.119 191.544 284.119 191.544Z" fill="#246144"/>
<path d="M282.387 208.005C282.387 208.005 294.071 203.064 297.561 195.531C301.05 187.998 293.511 190.367 290.639 194.124C287.767 197.88 282.387 208.005 282.387 208.005Z" fill="#246144"/>
<path d="M278.07 221.982C278.07 221.982 290.506 219.486 295.435 212.806C300.364 206.126 292.512 206.935 288.94 210.036C285.368 213.137 278.07 221.982 278.07 221.982Z" fill="#246144"/>
<path d="M266.971 271.567C266.971 271.567 281.712 260.106 288.277 263.519C294.842 266.932 299.452 258.253 304.407 258.202C309.361 258.151 313.901 262.697 306.597 267.919C299.293 273.14 299.274 273.898 300.987 280.017C302.7 286.137 290.474 289.881 284.552 290.76C278.63 291.638 289.449 294.466 284.106 298.318C278.764 302.171 263.481 297.828 253.917 290.983C244.353 284.137 258.706 266.709 263.526 265.887C268.346 265.066 263.411 270.504 266.971 271.567Z" fill="#458464"/>
<path d="M279.84 295.58C284.482 289.499 274.606 288.856 275.752 286.564C278.414 280.196 294.639 273.726 290.073 264.168C289.447 264.036 288.841 263.822 288.271 263.532C281.712 260.106 266.971 271.568 266.971 271.568C263.411 270.511 268.353 265.06 263.526 265.888C258.699 266.715 244.359 284.144 253.917 290.983C259.82 295.205 267.926 298.471 274.478 299.458C276.702 298.911 278.624 297.52 279.84 295.58Z" fill="#5D9177"/>
<path d="M251.262 288.442C251.194 288.416 251.135 288.372 251.09 288.315C251.045 288.258 251.016 288.189 251.007 288.117C250.998 288.062 251.001 288.005 251.014 287.951C251.027 287.896 251.051 287.845 251.084 287.8C251.117 287.755 251.159 287.717 251.207 287.688C251.255 287.66 251.309 287.641 251.364 287.633C251.606 287.595 275.912 283.813 305.362 261.723C305.452 261.656 305.564 261.628 305.675 261.643C305.786 261.659 305.886 261.717 305.954 261.806C306.021 261.897 306.05 262.01 306.035 262.122C306.019 262.234 305.961 262.335 305.872 262.404C276.236 284.647 251.746 288.435 251.491 288.474C251.414 288.486 251.334 288.475 251.262 288.442Z" fill="#246144"/>
<path d="M296.639 268.314L299.084 261.468C299.124 261.363 299.204 261.277 299.306 261.23C299.408 261.182 299.525 261.176 299.631 261.214C299.736 261.253 299.822 261.331 299.87 261.432C299.917 261.533 299.923 261.649 299.886 261.755L297.772 267.677L302.701 268.696C302.804 268.725 302.892 268.792 302.948 268.884C303.004 268.975 303.023 269.084 303.002 269.189C302.981 269.294 302.922 269.388 302.835 269.451C302.749 269.514 302.642 269.542 302.535 269.53L296.639 268.314Z" fill="#246144"/>
<path d="M297.912 282.526L284.743 275.42L287.481 265.232C287.495 265.177 287.52 265.126 287.554 265.082C287.588 265.037 287.631 265 287.679 264.972C287.728 264.944 287.782 264.926 287.837 264.919C287.893 264.913 287.949 264.917 288.003 264.932C288.057 264.946 288.108 264.97 288.153 265.003C288.197 265.036 288.235 265.078 288.263 265.127C288.291 265.175 288.309 265.228 288.316 265.283C288.322 265.339 288.318 265.395 288.303 265.448L285.756 275L298.306 281.756C298.356 281.781 298.4 281.816 298.436 281.859C298.472 281.902 298.499 281.952 298.515 282.006C298.531 282.059 298.536 282.115 298.53 282.171C298.523 282.227 298.506 282.28 298.478 282.329C298.429 282.43 298.342 282.507 298.236 282.544C298.129 282.581 298.013 282.575 297.912 282.526Z" fill="#246144"/>
<path d="M285.437 289.397L270.492 282.246L275.383 268.339C275.397 268.282 275.423 268.228 275.46 268.181C275.496 268.134 275.542 268.096 275.594 268.068C275.646 268.039 275.704 268.023 275.763 268.018C275.822 268.013 275.881 268.021 275.937 268.04C275.993 268.06 276.044 268.091 276.087 268.131C276.131 268.172 276.165 268.221 276.189 268.275C276.212 268.33 276.224 268.388 276.223 268.448C276.222 268.507 276.209 268.565 276.185 268.619L271.549 281.8L285.813 288.62C285.914 288.67 285.991 288.757 286.028 288.863C286.065 288.969 286.059 289.086 286.01 289.187C285.988 289.239 285.955 289.287 285.913 289.326C285.872 289.365 285.823 289.396 285.769 289.415C285.715 289.435 285.658 289.444 285.601 289.44C285.544 289.437 285.488 289.423 285.437 289.397Z" fill="#246144"/>
<path d="M279.254 296.86L257.795 286.672L262.526 269.905C262.54 269.85 262.564 269.798 262.598 269.752C262.633 269.706 262.676 269.667 262.725 269.639C262.774 269.61 262.829 269.591 262.886 269.584C262.943 269.576 263 269.58 263.055 269.596C263.11 269.611 263.162 269.637 263.206 269.673C263.251 269.709 263.288 269.753 263.316 269.803C263.343 269.854 263.36 269.909 263.365 269.966C263.371 270.023 263.365 270.08 263.348 270.135L258.788 286.213L279.604 296.077C279.655 296.1 279.7 296.132 279.738 296.173C279.776 296.214 279.806 296.261 279.825 296.313C279.845 296.365 279.854 296.421 279.852 296.476C279.85 296.532 279.837 296.586 279.814 296.637C279.791 296.688 279.759 296.733 279.718 296.771C279.677 296.809 279.63 296.839 279.578 296.858C279.526 296.878 279.47 296.887 279.415 296.885C279.359 296.883 279.305 296.87 279.254 296.847V296.86Z" fill="#246144"/>
<path d="M238.629 269.606C238.629 269.606 250.835 247.669 260.756 248.433C270.677 249.198 271.817 236.035 277.93 233.361C284.043 230.687 292.041 233.934 285.75 244.231C279.458 254.527 279.834 255.489 285.176 262.162C290.519 268.836 277.357 279.903 270.486 284.099C263.615 288.295 278.503 286.111 273.925 293.689C269.346 301.266 248.136 303.941 232.7 300.502C217.265 297.064 225.855 267.944 231.382 264.384C236.909 260.825 233.668 270.179 238.629 269.606Z" fill="#246144"/>
<path d="M249.912 281.291C266.506 279.572 282.082 265.964 276.357 246.504C275.842 243.397 278.128 237.946 278.567 233.132C278.357 233.208 278.153 233.291 277.93 233.38C271.823 236.048 270.677 249.211 260.737 248.446C250.797 247.682 238.61 269.619 238.61 269.619C233.649 270.192 236.89 260.844 231.357 264.404C225.823 267.963 217.24 297.089 232.675 300.521C237.805 301.613 243.045 302.104 248.288 301.986C250.702 299.439 249.976 284.94 249.912 281.291Z" fill="#427159"/>
<path d="M228.07 298.777C227.971 298.776 227.874 298.749 227.789 298.7C227.703 298.651 227.631 298.581 227.58 298.496C227.502 298.367 227.479 298.212 227.514 298.065C227.55 297.919 227.642 297.792 227.771 297.713C228.051 297.541 256.145 280.081 280.954 237.22C281.03 237.088 281.155 236.992 281.302 236.953C281.449 236.913 281.605 236.934 281.737 237.01C281.869 237.086 281.965 237.211 282.004 237.358C282.044 237.505 282.023 237.661 281.947 237.793C256.98 280.909 228.65 298.503 228.369 298.675C228.281 298.735 228.177 298.771 228.07 298.777Z" fill="#3A7657"/>
<path d="M273.632 249.981L273.059 240.219C273.063 240.076 273.122 239.94 273.222 239.838C273.322 239.736 273.457 239.674 273.599 239.666C273.742 239.658 273.883 239.704 273.994 239.795C274.105 239.885 274.178 240.014 274.198 240.156L274.701 248.599L281.337 247.256C281.411 247.241 281.487 247.24 281.561 247.255C281.635 247.269 281.706 247.298 281.769 247.34C281.832 247.381 281.886 247.435 281.928 247.498C281.97 247.56 282 247.631 282.015 247.705C282.03 247.779 282.03 247.855 282.016 247.929C282.001 248.003 281.972 248.074 281.931 248.137C281.889 248.2 281.835 248.254 281.773 248.296C281.71 248.338 281.64 248.368 281.566 248.383L273.632 249.981Z" fill="#3A7657"/>
<path d="M282.693 266.894H282.635L262.647 265.034L260.66 250.949C260.648 250.803 260.692 250.657 260.783 250.543C260.874 250.428 261.006 250.353 261.152 250.332C261.297 250.312 261.444 250.348 261.564 250.433C261.683 250.518 261.766 250.646 261.794 250.79L263.653 263.977L282.756 265.754C282.897 265.774 283.026 265.846 283.117 265.955C283.208 266.065 283.255 266.205 283.249 266.347C283.242 266.489 283.183 266.624 283.083 266.725C282.982 266.827 282.848 266.887 282.705 266.894H282.693Z" fill="#3A7657"/>
<path d="M270.861 281.966L248.574 280.979L247.301 261.239C247.304 261.095 247.361 260.958 247.461 260.855C247.561 260.752 247.695 260.69 247.839 260.681C247.982 260.672 248.123 260.717 248.235 260.808C248.346 260.898 248.42 261.027 248.441 261.169L249.644 279.915L270.88 280.851C271.032 280.851 271.178 280.912 271.286 281.019C271.393 281.127 271.453 281.272 271.453 281.424C271.453 281.576 271.393 281.722 271.286 281.83C271.178 281.937 271.032 281.997 270.88 281.997L270.861 281.966Z" fill="#3A7657"/>
<path d="M267.143 294.491L235.228 293.218L232.261 269.969C232.245 269.892 232.245 269.812 232.261 269.735C232.277 269.658 232.31 269.585 232.355 269.52C232.401 269.456 232.46 269.402 232.527 269.361C232.595 269.321 232.67 269.295 232.749 269.285C232.827 269.274 232.906 269.281 232.982 269.303C233.058 269.325 233.128 269.362 233.189 269.413C233.25 269.463 233.299 269.526 233.335 269.596C233.37 269.667 233.39 269.744 233.394 269.823L236.241 292.11L267.188 293.383C267.34 293.383 267.486 293.444 267.593 293.551C267.701 293.659 267.761 293.804 267.761 293.956C267.761 294.108 267.701 294.254 267.593 294.362C267.486 294.469 267.34 294.53 267.188 294.53L267.143 294.491Z" fill="#3A7657"/>
<path d="M235.068 243.015C235.068 243.015 237.857 218.06 247.301 214.933C256.744 211.807 252.72 199.224 257.317 194.404C261.914 189.583 270.562 189.482 268.734 201.408C266.907 213.335 267.626 214.074 275.102 218.168C282.578 222.263 274.739 237.551 270.008 244.072C265.277 250.592 278.178 242.798 276.879 251.592C275.58 260.386 257.056 271.007 241.493 273.803C225.931 276.598 222.638 246.415 226.351 241.003C230.063 235.59 230.719 245.46 235.068 243.015Z" fill="#458464"/>
<path d="M250.148 213.437C249.294 214.099 248.331 214.606 247.301 214.933C237.858 218.06 235.069 243.015 235.069 243.015C230.72 245.46 230.096 235.584 226.352 241.003C222.607 246.421 225.957 276.604 241.519 273.815C242.354 273.663 243.201 273.484 244.067 273.293C251.278 254.213 253.374 233.578 250.148 213.437Z" fill="#458464"/>
<path d="M236.604 273.987C236.489 274.035 236.362 274.044 236.242 274.013C236.122 273.982 236.015 273.913 235.937 273.816C235.86 273.719 235.816 273.6 235.812 273.475C235.808 273.351 235.845 273.229 235.916 273.128C236.107 272.86 255.28 245.9 261.61 196.798C261.63 196.649 261.709 196.513 261.827 196.421C261.946 196.328 262.097 196.285 262.247 196.302C262.396 196.322 262.53 196.4 262.622 196.52C262.714 196.639 262.755 196.789 262.737 196.938C256.369 246.352 237.031 273.523 236.833 273.79C236.778 273.877 236.698 273.945 236.604 273.987Z" fill="#3A7657"/>
<path d="M259.782 211.386L255.484 202.605C255.45 202.538 255.43 202.465 255.425 202.39C255.42 202.315 255.43 202.24 255.454 202.169C255.479 202.097 255.517 202.032 255.567 201.976C255.616 201.919 255.677 201.874 255.745 201.841C255.881 201.777 256.037 201.768 256.18 201.817C256.322 201.865 256.44 201.968 256.509 202.102L260.228 209.699L265.838 205.878C265.9 205.836 265.97 205.806 266.044 205.791C266.117 205.776 266.193 205.776 266.267 205.79C266.341 205.804 266.411 205.833 266.474 205.874C266.537 205.915 266.591 205.969 266.634 206.031C266.717 206.157 266.748 206.311 266.719 206.46C266.691 206.609 266.605 206.741 266.481 206.827L259.782 211.386Z" fill="#3A7657"/>
<path d="M274.669 223.491H274.618L255.464 229.541L248.192 217.289C248.115 217.159 248.093 217.004 248.13 216.857C248.167 216.71 248.26 216.584 248.39 216.506C248.454 216.467 248.525 216.441 248.6 216.43C248.674 216.418 248.75 216.422 248.823 216.441C248.896 216.459 248.964 216.492 249.024 216.537C249.084 216.582 249.135 216.638 249.173 216.703L255.986 228.165L274.275 222.434C274.346 222.411 274.422 222.402 274.498 222.408C274.573 222.414 274.646 222.435 274.714 222.47C274.781 222.505 274.84 222.553 274.888 222.612C274.936 222.67 274.972 222.737 274.994 222.81C275.03 222.943 275.017 223.086 274.958 223.211C274.898 223.336 274.796 223.435 274.669 223.491Z" fill="#3A7657"/>
<path d="M269.582 241.958L248.638 249.656L239.825 231.909C239.766 231.775 239.762 231.622 239.812 231.484C239.862 231.346 239.964 231.232 240.095 231.167C240.227 231.101 240.379 231.089 240.52 231.133C240.66 231.176 240.779 231.272 240.85 231.4L249.205 248.23L269.155 240.894C269.293 240.85 269.443 240.861 269.574 240.923C269.705 240.985 269.808 241.095 269.861 241.23C269.914 241.365 269.915 241.515 269.862 241.65C269.808 241.785 269.706 241.895 269.575 241.958H269.582Z" fill="#3A7657"/>
<path d="M270.976 254.916L241.048 266.053L229.331 245.753C229.267 245.622 229.256 245.472 229.299 245.333C229.342 245.194 229.436 245.077 229.563 245.005C229.689 244.933 229.838 244.912 229.979 244.945C230.121 244.979 230.244 245.065 230.324 245.186L241.557 264.646L270.587 253.821C270.726 253.777 270.875 253.787 271.007 253.85C271.138 253.912 271.24 254.022 271.294 254.157C271.347 254.292 271.347 254.442 271.294 254.577C271.241 254.712 271.139 254.822 271.008 254.884L270.976 254.916Z" fill="#3A7657"/>
<path d="M232.63 90.0563H140.337C133.806 90.0563 128.512 95.3504 128.512 101.881V297.701C128.512 304.231 133.806 309.525 140.337 309.525H232.63C239.161 309.525 244.455 304.231 244.455 297.701V101.881C244.455 95.3504 239.161 90.0563 232.63 90.0563Z" fill="#214333"/>
<path d="M232.127 93.4883H140.834C135.864 93.4883 131.836 97.5166 131.836 102.486V296.421C131.836 301.39 135.864 305.418 140.834 305.418H232.127C237.096 305.418 241.125 301.39 241.125 296.421V102.486C241.125 97.5166 237.096 93.4883 232.127 93.4883Z" fill="#246144"/>
<path d="M194.201 292.53H175.174C172.962 292.53 171.169 294.323 171.169 296.535C171.169 298.747 172.962 300.54 175.174 300.54H194.201C196.413 300.54 198.206 298.747 198.206 296.535C198.206 294.323 196.413 292.53 194.201 292.53Z" fill="white"/>
<path d="M143.845 103.683C145.505 103.683 146.851 102.337 146.851 100.678C146.851 99.0176 145.505 97.672 143.845 97.672C142.185 97.672 140.84 99.0176 140.84 100.678C140.84 102.337 142.185 103.683 143.845 103.683Z" fill="white"/>
<path d="M151.901 102.492C152.903 102.492 153.716 101.68 153.716 100.678C153.716 99.6753 152.903 98.8628 151.901 98.8628C150.898 98.8628 150.086 99.6753 150.086 100.678C150.086 101.68 150.898 102.492 151.901 102.492Z" fill="white"/>
<path d="M236.266 108.688H135.93V287.952H236.266V108.688Z" fill="white"/>
<path d="M225.581 113.84H146.698C144.275 113.84 142.311 115.804 142.311 118.227V131.962C142.311 134.385 144.275 136.35 146.698 136.35H225.581C228.004 136.35 229.968 134.385 229.968 131.962V118.227C229.968 115.804 228.004 113.84 225.581 113.84Z" fill="#70A28A"/>
<path d="M157.574 131.475V123.082H158.857L162.526 129.209H161.855L165.464 123.082H166.747L166.759 131.475H165.284L165.272 125.396H165.584L162.514 130.516H161.819L158.701 125.396H159.061V131.475H157.574ZM171.759 131.559C171.104 131.559 170.52 131.419 170.009 131.139C169.497 130.852 169.094 130.46 168.798 129.964C168.502 129.469 168.354 128.905 168.354 128.274C168.354 127.634 168.502 127.071 168.798 126.583C169.094 126.088 169.497 125.7 170.009 125.42C170.52 125.14 171.104 125 171.759 125C172.423 125 173.01 125.14 173.522 125.42C174.042 125.7 174.445 126.084 174.733 126.571C175.029 127.059 175.177 127.626 175.177 128.274C175.177 128.905 175.029 129.469 174.733 129.964C174.445 130.46 174.042 130.852 173.522 131.139C173.01 131.419 172.423 131.559 171.759 131.559ZM171.759 130.276C172.127 130.276 172.455 130.196 172.743 130.036C173.03 129.876 173.254 129.645 173.414 129.341C173.582 129.037 173.666 128.681 173.666 128.274C173.666 127.858 173.582 127.502 173.414 127.207C173.254 126.903 173.03 126.671 172.743 126.511C172.455 126.351 172.131 126.271 171.771 126.271C171.404 126.271 171.076 126.351 170.788 126.511C170.508 126.671 170.285 126.903 170.117 127.207C169.949 127.502 169.865 127.858 169.865 128.274C169.865 128.681 169.949 129.037 170.117 129.341C170.285 129.645 170.508 129.876 170.788 130.036C171.076 130.196 171.4 130.276 171.759 130.276ZM180.243 125C180.754 125 181.21 125.1 181.61 125.3C182.017 125.5 182.337 125.808 182.569 126.223C182.801 126.631 182.917 127.159 182.917 127.806V131.475H181.418V127.998C181.418 127.43 181.282 127.007 181.01 126.727C180.746 126.447 180.375 126.307 179.895 126.307C179.543 126.307 179.232 126.379 178.96 126.523C178.688 126.667 178.476 126.883 178.324 127.171C178.18 127.45 178.109 127.806 178.109 128.238V131.475H176.61V125.072H178.037V126.799L177.785 126.271C178.009 125.864 178.332 125.552 178.756 125.336C179.188 125.112 179.683 125 180.243 125ZM187.539 131.559C186.924 131.559 186.368 131.423 185.873 131.151C185.385 130.872 185.001 130.488 184.722 130C184.442 129.513 184.302 128.937 184.302 128.274C184.302 127.61 184.442 127.035 184.722 126.547C185.001 126.06 185.385 125.68 185.873 125.408C186.368 125.136 186.924 125 187.539 125C188.075 125 188.554 125.12 188.978 125.36C189.402 125.592 189.737 125.948 189.985 126.427C190.233 126.907 190.357 127.522 190.357 128.274C190.357 129.017 190.237 129.633 189.997 130.12C189.757 130.6 189.426 130.96 189.002 131.199C188.578 131.439 188.091 131.559 187.539 131.559ZM187.719 130.276C188.079 130.276 188.398 130.196 188.678 130.036C188.966 129.876 189.194 129.645 189.362 129.341C189.538 129.037 189.625 128.681 189.625 128.274C189.625 127.858 189.538 127.502 189.362 127.207C189.194 126.903 188.966 126.671 188.678 126.511C188.398 126.351 188.079 126.271 187.719 126.271C187.359 126.271 187.036 126.351 186.748 126.511C186.468 126.671 186.24 126.903 186.064 127.207C185.897 127.502 185.813 127.858 185.813 128.274C185.813 128.681 185.897 129.037 186.064 129.341C186.24 129.645 186.468 129.876 186.748 130.036C187.036 130.196 187.359 130.276 187.719 130.276ZM189.661 131.475V129.964L189.721 128.262L189.601 126.559V122.579H191.088V131.475H189.661ZM197.006 131.475V130.18L196.922 129.904V127.638C196.922 127.199 196.79 126.859 196.526 126.619C196.262 126.371 195.863 126.247 195.327 126.247C194.967 126.247 194.612 126.303 194.26 126.415C193.916 126.527 193.624 126.683 193.385 126.883L192.797 125.792C193.141 125.528 193.548 125.332 194.02 125.204C194.5 125.068 194.995 125 195.507 125C196.434 125 197.149 125.224 197.653 125.672C198.165 126.112 198.42 126.795 198.42 127.722V131.475H197.006ZM194.991 131.559C194.512 131.559 194.092 131.479 193.732 131.319C193.373 131.151 193.093 130.924 192.893 130.636C192.701 130.34 192.605 130.008 192.605 129.641C192.605 129.281 192.689 128.957 192.857 128.669C193.033 128.382 193.317 128.154 193.708 127.986C194.1 127.818 194.62 127.734 195.267 127.734H197.125V128.729H195.375C194.863 128.729 194.52 128.813 194.344 128.981C194.168 129.141 194.08 129.341 194.08 129.581C194.08 129.852 194.188 130.068 194.404 130.228C194.62 130.388 194.919 130.468 195.303 130.468C195.671 130.468 195.998 130.384 196.286 130.216C196.582 130.048 196.794 129.8 196.922 129.473L197.173 130.372C197.03 130.748 196.77 131.039 196.394 131.247C196.026 131.455 195.559 131.559 194.991 131.559ZM200.754 133.885C200.443 133.885 200.131 133.833 199.819 133.729C199.507 133.625 199.248 133.481 199.04 133.298L199.639 132.194C199.791 132.33 199.963 132.438 200.155 132.518C200.347 132.598 200.543 132.638 200.742 132.638C201.014 132.638 201.234 132.57 201.402 132.434C201.57 132.298 201.726 132.071 201.869 131.751L202.241 130.912L202.361 130.732L204.783 125.072H206.222L203.224 131.991C203.024 132.47 202.801 132.85 202.553 133.13C202.313 133.409 202.041 133.605 201.738 133.717C201.442 133.829 201.114 133.885 200.754 133.885ZM202.073 131.703L199.184 125.072H200.742L203.092 130.6L202.073 131.703ZM158.318 146.475V138.682L159.001 139.389H156.543V138.082H159.876V146.475H158.318ZM162.884 146.475V138.682L163.568 139.389H161.11V138.082H164.443V146.475H162.884ZM167.043 146.559C166.771 146.559 166.539 146.467 166.348 146.283C166.156 146.091 166.06 145.852 166.06 145.564C166.06 145.26 166.156 145.02 166.348 144.844C166.539 144.661 166.771 144.569 167.043 144.569C167.315 144.569 167.547 144.661 167.738 144.844C167.93 145.02 168.026 145.26 168.026 145.564C168.026 145.852 167.93 146.091 167.738 146.283C167.547 146.467 167.315 146.559 167.043 146.559ZM172.396 146.595C171.732 146.595 171.133 146.427 170.597 146.091C170.07 145.756 169.654 145.268 169.35 144.629C169.046 143.981 168.895 143.198 168.895 142.279C168.895 141.359 169.046 140.58 169.35 139.941C169.654 139.293 170.07 138.801 170.597 138.466C171.133 138.13 171.732 137.962 172.396 137.962C173.067 137.962 173.667 138.13 174.194 138.466C174.722 138.801 175.137 139.293 175.441 139.941C175.753 140.58 175.909 141.359 175.909 142.279C175.909 143.198 175.753 143.981 175.441 144.629C175.137 145.268 174.722 145.756 174.194 146.091C173.667 146.427 173.067 146.595 172.396 146.595ZM172.396 145.24C172.787 145.24 173.127 145.136 173.415 144.928C173.703 144.713 173.926 144.385 174.086 143.945C174.254 143.506 174.338 142.95 174.338 142.279C174.338 141.599 174.254 141.044 174.086 140.612C173.926 140.172 173.703 139.849 173.415 139.641C173.127 139.425 172.787 139.317 172.396 139.317C172.02 139.317 171.684 139.425 171.388 139.641C171.101 139.849 170.873 140.172 170.705 140.612C170.545 141.044 170.465 141.599 170.465 142.279C170.465 142.95 170.545 143.506 170.705 143.945C170.873 144.385 171.101 144.713 171.388 144.928C171.684 145.136 172.02 145.24 172.396 145.24ZM180.463 146.595C179.8 146.595 179.2 146.427 178.665 146.091C178.137 145.756 177.721 145.268 177.418 144.629C177.114 143.981 176.962 143.198 176.962 142.279C176.962 141.359 177.114 140.58 177.418 139.941C177.721 139.293 178.137 138.801 178.665 138.466C179.2 138.13 179.8 137.962 180.463 137.962C181.135 137.962 181.734 138.13 182.262 138.466C182.789 138.801 183.205 139.293 183.509 139.941C183.82 140.58 183.976 141.359 183.976 142.279C183.976 143.198 183.82 143.981 183.509 144.629C183.205 145.268 182.789 145.756 182.262 146.091C181.734 146.427 181.135 146.595 180.463 146.595ZM180.463 145.24C180.855 145.24 181.195 145.136 181.482 144.928C181.77 144.713 181.994 144.385 182.154 143.945C182.322 143.506 182.406 142.95 182.406 142.279C182.406 141.599 182.322 141.044 182.154 140.612C181.994 140.172 181.77 139.849 181.482 139.641C181.195 139.425 180.855 139.317 180.463 139.317C180.087 139.317 179.752 139.425 179.456 139.641C179.168 139.849 178.94 140.172 178.773 140.612C178.613 141.044 178.533 141.599 178.533 142.279C178.533 142.95 178.613 143.506 178.773 143.945C178.94 144.385 179.168 144.713 179.456 144.928C179.752 145.136 180.087 145.24 180.463 145.24ZM187.756 146.475L191.533 138.082H193.067L196.856 146.475H195.225L191.976 138.909H192.6L189.362 146.475H187.756ZM189.494 144.533L189.914 143.31H194.446L194.866 144.533H189.494ZM197.923 146.475V138.082H199.206L202.875 144.209H202.204L205.813 138.082H207.096L207.108 146.475H205.633L205.621 140.396H205.933L202.863 145.516H202.168L199.051 140.396H199.41V146.475H197.923Z" fill="white"/>
<path d="M160.267 143.067H142.311V161.024H160.267V143.067Z" fill="#70A28A"/>
<path d="M183.504 143.067H165.547V161.024H183.504V143.067Z" fill="#70A28A"/>
<path d="M206.738 143.067H188.781V161.024H206.738V143.067Z" fill="#70A28A"/>
<path d="M229.975 143.067H212.018V161.024H229.975V143.067Z" fill="#70A28A"/>
<path d="M160.267 166.029H142.311V183.986H160.267V166.029Z" fill="#70A28A"/>
<path d="M183.504 166.029H165.547V183.986H183.504V166.029Z" fill="#70A28A"/>
<path d="M206.738 166.029H188.781V183.986H206.738V166.029Z" fill="#70A28A"/>
<path d="M229.975 166.029H212.018V183.986H229.975V166.029Z" fill="#70A28A"/>
<path d="M160.267 188.985H142.311V206.942H160.267V188.985Z" fill="#70A28A"/>
<path d="M183.504 188.985H165.547V206.942H183.504V188.985Z" fill="#70A28A"/>
<path d="M206.738 188.985H188.781V206.942H206.738V188.985Z" fill="#28543F"/>
<path d="M229.975 188.985H212.018V206.942H229.975V188.985Z" fill="#70A28A"/>
<path d="M160.267 211.947H142.311V229.904H160.267V211.947Z" fill="#70A28A"/>
<path d="M183.504 211.947H165.547V229.904H183.504V211.947Z" fill="#70A28A"/>
<path d="M206.738 211.947H188.781V229.904H206.738V211.947Z" fill="#70A28A"/>
<path d="M229.975 211.947H212.018V229.904H229.975V211.947Z" fill="#70A28A"/>
<path d="M216.38 254.375C216.228 254.375 216.082 254.435 215.975 254.543C215.867 254.65 215.807 254.796 215.807 254.948V267.817C215.807 268.493 215.539 269.141 215.061 269.618C214.583 270.096 213.936 270.364 213.26 270.364H211.235C210.563 270.366 209.918 270.103 209.439 269.632L180.645 241.194C179.953 240.509 179.02 240.124 178.047 240.124H150.825C150.234 240.124 149.652 240.265 149.127 240.535C148.602 240.806 148.15 241.198 147.808 241.68C147.466 242.161 147.244 242.717 147.16 243.302C147.077 243.886 147.135 244.482 147.329 245.04L148.602 248.631C148.856 249.355 149.328 249.982 149.953 250.426C150.578 250.869 151.325 251.108 152.092 251.108H171.832C172.168 251.108 172.501 251.174 172.811 251.303C173.121 251.432 173.403 251.621 173.64 251.86L180.766 258.985C181.125 259.341 181.37 259.797 181.469 260.293C181.569 260.789 181.518 261.303 181.324 261.77C181.13 262.238 180.802 262.636 180.38 262.916C179.958 263.196 179.463 263.344 178.957 263.341H162.713C161.732 263.341 160.791 263.73 160.097 264.424C159.403 265.118 159.014 266.059 159.014 267.04V270.804C159.014 271.785 159.403 272.726 160.097 273.42C160.791 274.113 161.732 274.503 162.713 274.503H180.638C181.321 274.503 181.977 274.775 182.46 275.258C182.943 275.741 183.214 276.396 183.214 277.079C183.214 277.762 182.943 278.417 182.46 278.9C181.977 279.383 181.321 279.655 180.638 279.655H144.775V280.795H180.638C181.625 280.795 182.57 280.403 183.268 279.705C183.965 279.008 184.357 278.062 184.357 277.076C184.357 276.09 183.965 275.144 183.268 274.446C182.57 273.749 181.625 273.357 180.638 273.357H162.713C162.038 273.357 161.39 273.089 160.912 272.611C160.434 272.133 160.166 271.486 160.166 270.81V267.047C160.166 266.371 160.434 265.723 160.912 265.246C161.39 264.768 162.038 264.5 162.713 264.5H178.932C179.664 264.502 180.38 264.286 180.989 263.881C181.599 263.475 182.074 262.897 182.354 262.221C182.635 261.545 182.708 260.801 182.565 260.083C182.421 259.365 182.068 258.706 181.549 258.189L174.423 251.064C174.081 250.719 173.673 250.445 173.224 250.259C172.774 250.073 172.293 249.979 171.806 249.981H152.066C151.537 249.981 151.021 249.816 150.589 249.509C150.158 249.202 149.833 248.769 149.659 248.268L148.386 244.677C148.25 244.292 148.209 243.88 148.266 243.476C148.322 243.071 148.476 242.687 148.712 242.354C148.949 242.021 149.262 241.75 149.625 241.564C149.988 241.378 150.391 241.281 150.799 241.283H178.021C178.692 241.284 179.334 241.549 179.81 242.022L208.605 270.447C209.298 271.13 210.231 271.512 211.203 271.51H213.228C214.209 271.51 215.15 271.121 215.844 270.427C216.538 269.733 216.928 268.792 216.928 267.811V254.929C216.923 254.785 216.864 254.647 216.763 254.545C216.661 254.442 216.524 254.381 216.38 254.375Z" fill="#70A28A"/>
<path d="M224.104 242.028C224.104 246.294 216.38 257.622 216.38 257.622C216.38 257.622 208.656 246.294 208.656 242.028C208.656 241.013 208.856 240.009 209.244 239.072C209.632 238.135 210.201 237.283 210.919 236.566C211.636 235.849 212.487 235.28 213.424 234.892C214.362 234.503 215.366 234.304 216.38 234.304C217.395 234.304 218.399 234.503 219.336 234.892C220.273 235.28 221.125 235.849 221.842 236.566C222.559 237.283 223.128 238.135 223.516 239.072C223.904 240.009 224.104 241.013 224.104 242.028Z" fill="#70A28A"/>
<path d="M216.379 245.817C218.672 245.817 220.531 243.958 220.531 241.665C220.531 239.372 218.672 237.513 216.379 237.513C214.086 237.513 212.228 239.372 212.228 241.665C212.228 243.958 214.086 245.817 216.379 245.817Z" fill="#246144"/>
<path d="M147.086 284.653C149.534 284.653 151.518 282.669 151.518 280.221C151.518 277.773 149.534 275.789 147.086 275.789C144.639 275.789 142.654 277.773 142.654 280.221C142.654 282.669 144.639 284.653 147.086 284.653Z" fill="#70A28A"/>
<path d="M147.087 282.507C148.349 282.507 149.373 281.484 149.373 280.221C149.373 278.959 148.349 277.935 147.087 277.935C145.824 277.935 144.801 278.959 144.801 280.221C144.801 281.484 145.824 282.507 147.087 282.507Z" fill="#246144"/>
<path d="M99.4496 185.247C99.4496 185.247 101.29 198.867 101.201 202.503C101.112 206.139 98.6536 218.142 97.7175 221.848C96.7815 225.554 95.5207 228.649 96.9853 231.648C98.4498 234.648 98.176 237.647 98.3607 239.321C98.5453 240.996 98.7873 241.499 98.3607 241.62C97.934 241.741 96.3994 240.442 96.2848 239.43C96.2179 238.508 96.0795 237.592 95.8709 236.692C95.7181 236.31 94.4509 237.736 94.6292 238.939C94.7017 239.531 94.8361 240.114 95.0304 240.678L94.6165 242.416C94.6165 242.416 91.2097 240.207 90.8468 237.793C90.4088 235.453 90.5865 233.039 91.3626 230.789C92.2477 227.993 91.3626 207.725 92.8017 202.905C94.2408 198.084 91.0888 183.426 91.0888 183.426L99.4496 185.247Z" fill="#FFAE83"/>
<path d="M99.6338 186.782C99.5128 185.833 99.4364 185.247 99.4364 185.247L91.1074 183.4C91.1074 183.4 94.2913 198.046 92.8203 202.879C91.7569 206.369 91.6678 222.925 91.5468 230.114C96.4563 209.884 93.3234 201.064 97.2204 189.361C97.7546 188.283 98.5938 187.386 99.6338 186.782Z" fill="#F9A37D"/>
<path d="M91.6997 231.973C91.6997 231.973 93.6546 231.336 94.4187 232.438C95.1828 233.54 93.5654 235.622 93.3807 236.532C93.237 237.29 93.237 238.067 93.3807 238.825C93.4197 239.021 93.3998 239.225 93.3235 239.411C93.3235 239.411 94.234 240.111 94.597 240.328C94.96 240.544 96.2271 240.646 96.6219 241.442C95.6158 242.181 93.9347 241.353 92.8522 240.99C92.323 240.846 91.8398 240.569 91.4493 240.184C91.0589 239.799 90.7744 239.32 90.6235 238.793C90.4261 237.768 90.3624 234.081 90.7891 233.113C91.2157 232.145 91.3558 232.088 91.6997 231.973Z" fill="#FFB797"/>
<path d="M90.9365 239.149C90.9365 239.149 91.153 241.531 92.9869 242.416C94.8208 243.301 97.8073 243.416 98.6351 242.97C98.8197 242.238 96.3873 241.773 95.6741 241.442C94.4052 240.754 93.1802 239.989 92.0063 239.149C91.9936 239.092 90.9365 239.149 90.9365 239.149Z" fill="#FFB797"/>
<path d="M92.1006 241.353C92.185 241.757 92.3617 242.137 92.6168 242.461C92.872 242.786 93.1987 243.047 93.5715 243.225C94.7844 243.924 96.0644 244.5 97.3921 244.944C97.7615 244.944 97.6087 243.352 96.3224 242.824C95.0361 242.295 92.1006 241.353 92.1006 241.353Z" fill="#FFB797"/>
<path d="M90.5727 163.164C90.5727 163.164 88.5542 171.792 87.9492 185.247C91.4897 186.935 101.2 186.049 101.2 186.049C100.952 184.343 100.646 183.872 100.952 183.165C101.258 182.458 100.589 177.746 97.7173 174.721C94.8454 171.697 92.4639 164.043 90.5727 163.164Z" fill="#F4AE00"/>
<path d="M107.549 267.18C107.791 271.185 107.059 283.539 110.357 296.472C113.655 309.404 114.878 316.116 114.878 317.886C116.668 318.382 118.576 318.215 120.252 317.415C120.252 317.415 119.883 301.292 120.252 292.231C120.622 283.17 120.252 256.572 119.399 250.58C118.965 246.989 118.795 243.37 118.89 239.755L101.652 241.703C104.008 252.808 107.371 264.289 107.549 267.18Z" fill="#FFAE83"/>
<path d="M112.656 263.2C113.166 260.163 116.795 258.921 120.005 259.857C119.845 255.686 119.642 252.299 119.368 250.592C118.934 247.001 118.763 243.383 118.858 239.767L101.621 241.716C103.977 252.795 107.352 264.276 107.518 267.186C107.76 271.192 107.027 283.545 110.326 296.478C113.624 309.411 114.847 316.122 114.847 317.892C115.635 318.103 116.451 318.191 117.267 318.153C115.554 299.77 110.16 281.705 112.656 263.2Z" fill="#F9A37D"/>
<path d="M137.656 205.344C134.727 200.402 105.594 203.401 105.594 203.401C105.594 203.401 98.2652 216.576 99.6088 229.643C100.081 233.708 100.763 237.746 101.653 241.741L118.89 239.793C118.9 236.319 119.191 232.852 119.763 229.426C121.838 234.132 122.698 251.312 121.838 264.487C120.979 277.662 123.965 301.674 122.17 311.792C120.896 318.733 121.838 319.676 126.239 319.733C130.753 319.383 128.677 315.32 128.193 311.614C127.709 307.908 132.893 296.612 134.727 285.666C136.561 274.72 136.389 266.607 136.471 260.252C136.554 253.897 140.591 242.251 140.929 232.718C141.266 223.186 140.591 210.291 137.656 205.344Z" fill="#FFAE83"/>
<path d="M140.954 232.725C141.324 223.173 140.591 210.31 137.656 205.344C134.72 200.377 105.594 203.433 105.594 203.433C105.594 203.433 98.2652 216.608 99.6088 229.675C100.081 233.74 100.763 237.778 101.653 241.773L118.89 239.825C118.9 236.351 119.191 232.884 119.763 229.458C121.838 234.164 122.698 251.344 121.838 264.519C120.979 277.693 123.965 301.706 122.17 311.824C120.998 318.033 121.66 319.465 124.959 319.707C123.08 311.824 130.537 303.718 128.142 296.433C122.991 284.418 125.85 271.829 128.142 260.38C128.582 256.852 132.772 259.106 136.497 260.851C136.497 260.66 136.497 260.469 136.497 260.284C136.567 253.885 140.591 242.238 140.954 232.725Z" fill="#F9A37D"/>
<path d="M101.882 211.125C101.882 211.125 95.2343 216.462 97.5521 232.585C99.87 248.708 102.646 255.572 102.646 255.572C102.646 255.572 120.132 259.132 138.713 253.299C141.044 239.736 146.52 217.035 136.503 203.586C121.049 204.541 101.882 211.125 101.882 211.125Z" fill="#224334"/>
<path d="M111.516 221.422C119.642 214.819 132.275 215.876 139.012 207.789C138.316 206.309 137.476 204.901 136.503 203.586C121.049 204.541 101.882 211.125 101.882 211.125C101.882 211.125 95.2343 216.462 97.5521 232.585C99.87 248.708 102.646 255.572 102.646 255.572C102.646 255.572 103.429 255.731 104.83 255.922C99.6343 244.218 101.933 229.337 111.516 221.422Z" fill="#32694F"/>
<path d="M120.571 316.141C120.571 316.141 115.534 315.39 114.573 317.198C113.611 319.007 113.07 323.419 113.375 324.476C114.783 325.89 120.38 325.113 122.57 324.413C124.761 323.712 120.571 316.141 120.571 316.141Z" fill="#101431"/>
<path d="M122.819 321.197C122.908 322.019 122.761 322.63 122.182 322.808C120.106 323.49 115.037 324.196 113.267 323.101C113.228 323.563 113.252 324.028 113.337 324.483C114.744 325.897 120.342 325.12 122.532 324.419C123.449 324.133 123.309 322.751 122.819 321.197Z" fill="#171F42"/>
<path d="M121.501 315.836C121.711 315.728 125.468 313.486 128.996 315.836C129.9 317.956 129.537 321.191 130.27 323.312C131.002 325.432 133.988 331.685 132.282 334.449C129.047 335.92 121.826 335.843 121.826 335.843C121.826 335.843 119.687 331.902 120.247 328.367C120.807 324.833 120.922 325.782 120.68 322.312C120.438 318.841 120.393 316.396 121.501 315.836Z" fill="#101431"/>
<path d="M121.717 322.63C121.717 322.63 124.194 327.221 123.735 329.431C123.277 331.64 120.985 333.251 121.717 335.608C122.449 337.964 131.268 335.162 132.071 334.633C132.873 334.105 132.345 333.016 130.511 329.59C128.677 326.164 128.957 324.751 129.046 322.63C129.135 320.51 127.486 319.37 125.627 319.071C123.767 318.771 120.647 319.898 121.717 322.63Z" fill="#171F42"/>
<path d="M90.5732 163.164C90.5732 163.164 109.135 147.397 133.689 149.633C134.326 152.339 136.007 162.368 133.689 170.811C131.371 179.255 133.485 187.17 134.867 189.17C136.249 191.169 139.324 203.643 140.286 208.114C129.658 215.882 104.168 213.844 99.4498 212.819C104.62 199.409 107.187 193.289 105.595 191.169C104.003 189.049 102.666 188.934 102.666 187.285C102.666 185.636 101.685 184.228 100.953 183.165C100.22 182.101 100.59 181.363 100.099 179.796C99.609 178.23 96.1895 175.282 94.725 172.792C93.2604 170.302 90.5732 163.164 90.5732 163.164Z" fill="#FFC608"/>
<path d="M114.376 200.25C123.023 184.572 136.268 166.851 126.124 149.499C105.423 150.562 90.5732 163.158 90.5732 163.158C90.5732 163.158 93.2668 170.321 94.725 172.811C96.1832 175.301 99.609 178.224 100.099 179.816C100.59 181.408 100.22 182.127 100.953 183.184C101.685 184.241 102.665 185.661 102.665 187.304C102.665 188.947 104.009 189.068 105.595 191.188C107.18 193.309 104.62 199.428 99.4498 212.839C101.36 213.272 106.766 213.857 113.191 213.876C112.128 209.075 112.37 204.268 114.376 200.25Z" fill="#F4AE00"/>
<path d="M139.031 154.593C140.858 154.093 142.652 153.483 144.405 152.766C145.622 152.129 149.105 142.762 149.289 139.941C149.474 137.12 147.882 135.999 147.882 133.573C147.882 131.147 151.486 122.22 152.588 122.041C153.69 121.863 153.225 123.856 152.588 125.423C151.951 126.989 151.397 129.001 151.575 129.396C151.754 129.791 152.435 129.46 152.906 129.339C153.377 129.218 153.779 129.46 153.811 130.555C153.811 130.854 154.944 130.37 155.084 131.561C155.224 131.867 156.147 131.669 156.23 132.726C156.253 133.471 156.067 134.207 155.692 134.851C155.317 135.495 154.769 136.021 154.11 136.369C153.791 137.209 155.383 145.016 154.065 150.753C152.747 156.491 152.601 156.58 151.518 157.414C148.361 159.82 144.834 161.697 141.075 162.973C135.822 164.756 139.031 154.593 139.031 154.593Z" fill="#FFAE83"/>
<path d="M150.353 137.088C149.569 135.12 148.512 133.7 148.117 132.07C147.986 132.566 147.907 133.074 147.882 133.586C147.882 135.999 149.474 137.114 149.289 139.954C149.104 142.794 145.621 152.129 144.405 152.778C142.652 153.495 140.857 154.105 139.031 154.606C138.553 156.171 138.239 157.783 138.095 159.413C147.876 157.949 152.868 146.633 150.353 137.088Z" fill="#F9A37D"/>
<path d="M133.688 149.632C134.262 149.798 134.784 150.106 135.206 150.528C135.628 150.95 135.936 151.472 136.101 152.046C136.738 154.077 141.043 152.752 141.272 152.752C143.819 155.446 143.749 157.032 143.819 160.604C143.852 161.712 143.625 162.811 143.156 163.816C142.687 164.82 141.989 165.7 141.119 166.386C139.425 166.609 134.872 168.137 133.669 170.811C132.618 166.609 133.198 149.944 133.688 149.632Z" fill="#FFC608"/>
<path d="M128.925 149.416C130.141 149.416 132.109 149.633 132.109 149.633C132.109 149.633 128.206 149.047 126.862 146.691C125.518 144.335 124.907 142.1 125.881 138.222C126.856 134.344 124.678 128.199 122.831 126.123C120.577 123.576 115.101 122.379 112.815 124.595C112.815 124.595 108.173 122.474 104.874 127.537C101.576 132.599 101.945 146.716 100.353 149.658C98.7614 152.6 93.266 160.228 95.2145 167.137C96.0201 169.826 97.4717 172.277 99.4427 174.276C97.3987 169.226 98.1691 163.361 98.3856 161.865C98.4701 165.163 98.962 168.437 99.8502 171.614C101.429 176.619 99.2644 177.829 102.397 184.489C101.035 179.395 101.608 177.3 101.964 175.154C102.123 174.206 102.378 173.136 102.55 171.971C102.829 174.346 102.829 176.746 102.55 179.121C102.587 179.332 102.61 179.545 102.62 179.758C102.741 183.955 103.257 189.367 111.777 193.366C109.58 189.246 109.58 182.738 114.101 179.758C118.622 176.778 119.717 168.659 119.227 166.539C121.774 169.723 120.698 175.715 118.374 178.421C116.05 181.127 113.98 185.604 115.381 190.074C116.298 183.362 118.622 183.127 122.163 179.013C125.703 174.9 129.002 166.571 126.435 158.732C128.881 160.776 130.345 171.245 125.582 178.657C131.313 172.066 130.74 158.006 128.715 153.714C126.69 149.422 127.703 149.403 128.925 149.416Z" fill="#101431"/>
<path d="M128.925 149.416C130.142 149.416 132.109 149.632 132.109 149.632C132.109 149.632 128.206 149.046 126.862 146.69C125.519 144.334 124.907 142.099 125.882 138.221C126.856 134.343 124.678 128.199 122.831 126.123C121.437 124.537 118.807 123.48 116.464 123.429C115.598 123.484 114.757 123.733 114 124.157C113.244 124.582 112.593 125.171 112.096 125.881C108.09 133.318 113.815 140.189 115.534 147.053C116.674 151.059 117.247 155.637 114.961 159.642C109.427 169.792 105.015 183.279 111.592 192.926C109.682 188.794 109.816 182.681 114.14 179.822C118.661 176.841 119.756 168.723 119.266 166.602C121.813 169.786 120.736 175.778 118.412 178.484C116.088 181.191 114.019 185.667 115.419 190.137C116.336 183.426 118.661 183.19 122.201 179.077C125.742 174.963 129.04 166.634 126.474 158.795C128.919 160.839 130.384 171.308 125.621 178.72C131.351 172.129 130.778 158.069 128.753 153.778C126.728 149.486 127.703 149.403 128.925 149.416Z" fill="#131938"/>
<path d="M114.949 159.617C117.235 155.612 116.662 151.033 115.522 147.028C113.803 140.164 108.078 133.293 112.083 125.855C112.581 125.145 113.232 124.556 113.988 124.132C114.744 123.708 115.586 123.459 116.452 123.404C115.129 123.294 113.817 123.713 112.803 124.569C112.803 124.569 108.161 122.449 104.862 127.511C101.564 132.573 101.933 146.691 100.341 149.632C98.7494 152.574 93.2668 160.228 95.2153 167.137C96.0208 169.826 97.4725 172.277 99.4435 174.275C97.3994 169.226 98.1699 163.361 98.3864 161.865C98.4708 165.162 98.9628 168.437 99.851 171.614C101.43 176.619 99.2652 177.829 102.398 184.489C101.035 179.395 101.608 177.3 101.965 175.154C102.124 174.205 102.379 173.136 102.551 171.97C102.83 174.346 102.83 176.746 102.551 179.121C102.588 179.332 102.611 179.544 102.621 179.758C102.742 183.954 103.258 189.367 111.778 193.366C111.695 193.207 111.618 193.028 111.536 192.863C105.002 183.254 109.415 169.767 114.949 159.617Z" fill="#0D1128"/>
</g>
<defs>
<clipPath id="clip0_2098_25069">
<rect width="370" height="340" rx="20" fill="white"/>
</clipPath>
</defs>
</svg>
