<svg width="370" height="340" viewBox="0 0 370 340" fill="none" xmlns="http://www.w3.org/2000/svg">
<rect width="370" height="340" rx="20" fill="#F2F8F3"/>
<path d="M66.0077 292.67H311.122C316.79 288.945 321.754 284.248 325.584 278.58C336.498 262.442 335.583 238.087 320.818 225.385C311.58 217.436 298.997 215.02 287.408 211.253C275.818 207.486 263.651 200.896 259.954 189.285C256.638 178.879 261.151 167.662 260.687 156.755C259.898 138.174 243.732 122.494 225.516 118.727C207.301 114.96 188.1 121.423 173.117 132.443C158.133 143.462 146.79 158.657 136.531 174.168C130.096 183.899 122.463 194.855 110.881 196.2C95.8267 197.946 83.871 182.385 68.7889 180.857C53.8689 179.35 40.688 192.785 37.3505 207.409C34.013 222.033 38.0828 237.249 42.7228 251.514C47.6305 266.554 54.5237 282.671 66.0077 292.67Z" fill="#28543F" fill-opacity="0.1"/>
<path d="M283.127 257.542C267.982 255.218 251.309 254.697 239.712 244.685C231.798 237.855 227.538 227.004 228.7 216.612C229.488 209.507 232.6 202.875 234.051 195.876C235.508 188.877 234.896 180.681 229.58 175.907C224.75 171.57 217.378 171.338 211.139 173.147C195.635 177.632 185.446 191.926 175.652 204.755C165.858 217.583 153.325 230.814 137.201 231.405C124.844 231.856 113.564 224.653 101.418 222.364C85.4909 219.365 68.1558 225.617 57.8124 238.094C51.6585 245.522 48.1309 254.979 47.5254 264.597C51.9824 275.32 57.8265 285.551 66.0082 292.67H301.786C307.046 286.692 309.841 277.89 306.546 270.666C302.666 262.168 292.358 258.964 283.127 257.542Z" fill="#DAE4DD"/>
<path d="M157.529 292.67H70.5923C61.8614 292.67 54.1655 285.594 53.398 276.863L38.5765 107.433C37.816 98.702 44.2727 91.6257 53.0036 91.6257H139.94C148.671 91.6257 156.367 98.702 157.134 107.433L171.956 276.863C172.716 285.594 166.26 292.67 157.529 292.67Z" fill="#214333"/>
<path d="M163.991 292.67H77.0552C68.3242 292.67 60.6284 285.594 59.8609 276.863L45.0394 107.433C44.2789 98.7022 50.7356 91.6259 59.4666 91.6259H146.403C155.134 91.6259 162.83 98.7022 163.597 107.433L178.419 276.863C179.179 285.594 172.722 292.67 163.991 292.67Z" fill="#246144"/>
<path d="M146.965 98.0892H132.799L133.129 101.835C133.383 104.694 131.257 107.024 128.398 107.024H80.1593C77.3007 107.024 74.7729 104.701 74.5194 101.835L74.1885 98.0892H60.0218C54.8677 98.0892 51.0444 102.279 51.4951 107.433L66.3165 276.862C66.7672 282.017 71.3298 286.206 76.4769 286.206H163.413C168.567 286.206 172.391 282.017 171.94 276.862L157.118 107.433C156.682 102.279 152.119 98.0892 146.965 98.0892Z" fill="white"/>
<path opacity="0.1" d="M147.2 283.045H92.1668C91.181 283.045 90.3079 282.242 90.2234 281.256C90.1389 280.27 90.8713 279.468 91.857 279.468H146.89C147.876 279.468 148.749 280.27 148.833 281.256C148.918 282.242 148.186 283.045 147.2 283.045Z" fill="#5E6BC6"/>
<path d="M145.002 130.879H67.2404C63.7903 130.879 60.7555 128.084 60.4528 124.634L60.2627 122.486C59.9599 119.036 62.5088 116.241 65.9589 116.241H143.721C147.171 116.241 150.213 119.036 150.508 122.486L150.698 124.634C151.001 128.084 148.445 130.879 145.002 130.879Z" fill="#70A28A"/>
<path d="M143.721 271.983H93.173C89.7229 271.983 86.6812 269.188 86.3854 265.738L86.1953 263.59C85.8925 260.14 88.4414 257.345 91.8915 257.345H142.44C145.89 257.345 148.931 260.14 149.227 263.59L149.417 265.738C149.72 269.188 147.164 271.983 143.721 271.983Z" fill="#224334"/>
<path d="M105.698 98.0895C105.804 99.3076 104.902 100.293 103.691 100.293C102.473 100.293 101.403 99.3076 101.297 98.0895C101.192 96.8714 102.093 95.8856 103.304 95.8856C104.522 95.8856 105.593 96.8714 105.698 98.0895Z" fill="#28543F"/>
<path d="M85.0188 129.351C84.3837 129.351 83.768 129.262 83.1716 129.085C82.5745 128.9 82.0931 128.664 81.7274 128.379L82.1478 127.21C82.4954 127.465 82.9167 127.677 83.4117 127.847C83.9068 128.016 84.406 128.101 84.9094 128.101C85.3354 128.101 85.676 128.055 85.9312 127.962C86.1864 127.87 86.3692 127.746 86.4796 127.592C86.5893 127.43 86.6354 127.249 86.6179 127.048C86.5963 126.801 86.49 126.604 86.299 126.458C86.1074 126.304 85.8646 126.184 85.5706 126.099C85.2837 126.006 84.9626 125.922 84.6073 125.844C84.2598 125.767 83.9074 125.679 83.5501 125.578C83.1998 125.47 82.8744 125.335 82.5736 125.173C82.2799 125.003 82.0319 124.78 81.8294 124.502C81.627 124.224 81.5069 123.869 81.4691 123.437C81.4306 122.997 81.5116 122.596 81.7122 122.234C81.9199 121.863 82.2544 121.57 82.7156 121.354C83.184 121.13 83.7899 121.019 84.5334 121.019C85.0213 121.019 85.5108 121.08 86.0018 121.204C86.4927 121.327 86.9265 121.505 87.303 121.736L86.929 122.905C86.5461 122.689 86.1566 122.531 85.7606 122.43C85.3639 122.322 84.9874 122.268 84.6312 122.268C84.213 122.268 83.8766 122.319 83.622 122.419C83.3752 122.519 83.197 122.65 83.0872 122.812C82.9852 122.974 82.9434 123.16 82.9616 123.368C82.9832 123.615 83.086 123.815 83.2699 123.97C83.4608 124.116 83.6994 124.232 83.9857 124.317C84.2796 124.402 84.6046 124.487 84.9606 124.571C85.3158 124.649 85.6682 124.737 86.0178 124.838C86.3751 124.938 86.7002 125.069 86.9932 125.231C87.294 125.393 87.5417 125.613 87.7364 125.891C87.9388 126.168 88.0586 126.52 88.0958 126.944C88.1336 127.376 88.0487 127.777 87.841 128.147C87.6404 128.51 87.3059 128.803 86.8376 129.027C86.3686 129.243 85.7623 129.351 85.0188 129.351ZM90.7736 124.502H94.8164L94.9248 125.74H90.882L90.7736 124.502ZM91.1937 127.974H95.7825L95.8929 129.235H89.7939L89.0848 121.134H95.0212L95.1316 122.396H90.7054L91.1937 127.974ZM97.5765 129.235L96.8674 121.134H100.213C100.933 121.134 101.559 121.25 102.091 121.481C102.63 121.713 103.058 122.045 103.374 122.477C103.691 122.909 103.875 123.422 103.927 124.016C103.979 124.61 103.885 125.123 103.644 125.555C103.403 125.987 103.033 126.319 102.534 126.55C102.043 126.782 101.438 126.898 100.718 126.898H98.2083L98.8203 126.192L99.0867 129.235H97.5765ZM98.8345 126.354L98.0969 125.625H100.536C101.203 125.625 101.69 125.486 101.999 125.208C102.314 124.922 102.45 124.525 102.405 124.016C102.36 123.499 102.155 123.102 101.79 122.824C101.433 122.546 100.921 122.407 100.255 122.407H97.8153L98.4242 121.667L98.8345 126.354ZM107.304 129.235L106.706 122.407H104.011L103.899 121.134H110.8L110.911 122.407H108.216L108.814 129.235H107.304ZM113.622 124.502H117.665L117.774 125.74H113.731L113.622 124.502ZM114.042 127.974H118.631L118.742 129.235H112.643L111.933 121.134H117.87L117.98 122.396H113.554L114.042 127.974ZM120.425 129.235L119.716 121.134H120.959L125.032 127.048H124.381L127.36 121.134H128.603L129.324 129.235H127.895L127.37 123.368H127.672L125.13 128.309H124.457L121.004 123.368H121.352L121.866 129.235H120.425ZM83.7085 143.182L82.9994 135.081H86.8099C87.7857 135.081 88.5461 135.274 89.091 135.66C89.6353 136.038 89.9354 136.547 89.9915 137.187C90.0293 137.619 89.961 137.99 89.7867 138.298C89.6116 138.599 89.3612 138.834 89.0353 139.004C88.7164 139.166 88.3595 139.247 87.9645 139.247L88.1372 138.831C88.5941 138.831 89.012 138.915 89.3909 139.085C89.7691 139.247 90.0766 139.486 90.3133 139.803C90.5579 140.119 90.7008 140.512 90.742 140.983C90.8027 141.678 90.5828 142.218 90.0822 142.603C89.5816 142.989 88.8046 143.182 87.7513 143.182H83.7085ZM85.1154 142.002H87.555C88.1204 142.002 88.546 141.909 88.8319 141.724C89.1177 141.539 89.2427 141.242 89.2069 140.833C89.1718 140.431 88.9951 140.138 88.6769 139.953C88.3579 139.76 87.9158 139.664 87.3504 139.664H84.7946L84.6923 138.495H86.9461C87.4727 138.495 87.8673 138.402 88.1299 138.217C88.4003 138.032 88.5193 137.754 88.4868 137.384C88.4537 137.006 88.2858 136.724 87.9831 136.539C87.688 136.354 87.2772 136.261 86.7505 136.261H84.613L85.1154 142.002ZM93.526 138.449H97.5688L97.6772 139.687H93.6344L93.526 138.449ZM93.946 141.921H98.5349L98.6453 143.182H92.5462L91.8371 135.081H97.7735L97.8839 136.342H93.4578L93.946 141.921ZM100.329 143.182L99.6197 135.081H102.966C103.686 135.081 104.312 135.197 104.843 135.428C105.382 135.66 105.81 135.991 106.127 136.423C106.443 136.855 106.628 137.369 106.68 137.963C106.732 138.557 106.637 139.07 106.396 139.502C106.155 139.926 105.784 140.254 105.286 140.485C104.794 140.709 104.188 140.821 103.468 140.821H100.959L101.573 140.138L101.839 143.182H100.329ZM105.65 143.182L103.336 140.242H104.951L107.276 143.182H105.65ZM101.587 140.3L100.85 139.583H103.29C103.956 139.583 104.443 139.44 104.751 139.155C105.067 138.869 105.202 138.472 105.158 137.963C105.113 137.446 104.907 137.048 104.542 136.771C104.185 136.493 103.673 136.354 103.007 136.354H100.568L101.177 135.613L101.587 140.3Z" fill="white"/>
<path d="M100.691 270.415L99.9823 262.314H103.793C104.769 262.314 105.529 262.507 106.074 262.893C106.618 263.271 106.918 263.78 106.974 264.421C107.012 264.853 106.944 265.223 106.77 265.532C106.595 265.833 106.344 266.068 106.018 266.238C105.699 266.4 105.342 266.481 104.947 266.481L105.12 266.064C105.577 266.064 105.995 266.149 106.374 266.319C106.752 266.481 107.059 266.72 107.296 267.036C107.541 267.353 107.684 267.746 107.725 268.217C107.786 268.911 107.566 269.451 107.065 269.837C106.564 270.223 105.788 270.415 104.734 270.415H100.691ZM102.098 269.235H104.538C105.103 269.235 105.529 269.142 105.815 268.957C106.101 268.772 106.226 268.475 106.19 268.066C106.155 267.665 105.978 267.372 105.66 267.187C105.341 266.994 104.899 266.897 104.333 266.897H101.778L101.675 265.728H103.929C104.456 265.728 104.85 265.636 105.113 265.451C105.383 265.266 105.502 264.988 105.47 264.617C105.437 264.239 105.269 263.958 104.966 263.773C104.671 263.587 104.26 263.495 103.733 263.495H101.596L102.098 269.235ZM113.35 270.531C112.715 270.531 112.121 270.427 111.568 270.219C111.016 270.01 110.526 269.721 110.098 269.351C109.67 268.973 109.326 268.533 109.065 268.031C108.803 267.522 108.646 266.967 108.594 266.365C108.541 265.763 108.601 265.212 108.774 264.71C108.946 264.201 109.214 263.761 109.576 263.391C109.938 263.013 110.377 262.719 110.894 262.511C111.41 262.303 111.981 262.199 112.609 262.199C113.244 262.199 113.834 262.303 114.379 262.511C114.931 262.719 115.422 263.013 115.85 263.391C116.277 263.761 116.622 264.201 116.883 264.71C117.144 265.212 117.3 265.763 117.353 266.365C117.406 266.967 117.346 267.522 117.174 268.031C117.001 268.541 116.734 268.98 116.371 269.351C116.009 269.721 115.569 270.01 115.053 270.219C114.545 270.427 113.977 270.531 113.35 270.531ZM113.223 269.212C113.633 269.212 114.007 269.142 114.343 269.004C114.679 268.865 114.964 268.668 115.197 268.413C115.43 268.151 115.601 267.85 115.711 267.511C115.828 267.163 115.868 266.782 115.831 266.365C115.795 265.948 115.688 265.57 115.511 265.231C115.341 264.884 115.118 264.583 114.84 264.328C114.561 264.066 114.242 263.865 113.881 263.726C113.52 263.587 113.135 263.518 112.724 263.518C112.314 263.518 111.94 263.587 111.604 263.726C111.275 263.865 110.991 264.066 110.751 264.328C110.517 264.583 110.342 264.884 110.225 265.231C110.116 265.57 110.079 265.948 110.116 266.365C110.151 266.774 110.254 267.152 110.424 267.499C110.602 267.846 110.83 268.151 111.108 268.413C111.386 268.668 111.705 268.865 112.066 269.004C112.427 269.142 112.812 269.212 113.223 269.212ZM123.129 270.531C122.494 270.531 121.9 270.427 121.348 270.219C120.795 270.01 120.305 269.721 119.877 269.351C119.449 268.973 119.105 268.533 118.844 268.031C118.583 267.522 118.426 266.967 118.373 266.365C118.32 265.763 118.381 265.212 118.553 264.71C118.726 264.201 118.993 263.761 119.356 263.391C119.718 263.013 120.157 262.719 120.673 262.511C121.189 262.303 121.761 262.199 122.388 262.199C123.023 262.199 123.613 262.303 124.158 262.511C124.711 262.719 125.201 263.013 125.629 263.391C126.056 263.761 126.401 264.201 126.662 264.71C126.923 265.212 127.08 265.763 127.132 266.365C127.185 266.967 127.125 267.522 126.953 268.031C126.781 268.541 126.513 268.98 126.151 269.351C125.788 269.721 125.349 270.01 124.833 270.219C124.324 270.427 123.756 270.531 123.129 270.531ZM123.002 269.212C123.412 269.212 123.786 269.142 124.122 269.004C124.459 268.865 124.743 268.668 124.977 268.413C125.209 268.151 125.38 267.85 125.49 267.511C125.607 267.163 125.647 266.782 125.611 266.365C125.574 265.948 125.467 265.57 125.291 265.231C125.121 264.884 124.897 264.583 124.619 264.328C124.341 264.066 124.021 263.865 123.66 263.726C123.3 263.587 122.914 263.518 122.504 263.518C122.093 263.518 121.72 263.587 121.383 263.726C121.055 263.865 120.77 264.066 120.53 264.328C120.297 264.583 120.122 264.884 120.005 265.231C119.895 265.57 119.858 265.948 119.895 266.365C119.931 266.774 120.034 267.152 120.203 267.499C120.381 267.846 120.609 268.151 120.887 268.413C121.165 268.668 121.485 268.865 121.845 269.004C122.206 269.142 122.591 269.212 123.002 269.212ZM130.268 268.506L130.031 266.724L133.909 262.314H135.605L132.39 266.064L131.633 266.978L130.268 268.506ZM129.088 270.415L128.379 262.314H129.889L130.598 270.415H129.088ZM134.757 270.415L131.32 266.724L132.223 265.624L136.523 270.415H134.757ZM104.232 284.362L103.523 276.261H104.766L110.412 282.499H109.796L109.25 276.261H110.749L111.458 284.362H110.215L104.569 278.124H105.185L105.731 284.362H104.232ZM117.458 284.478C116.823 284.478 116.229 284.374 115.676 284.165C115.124 283.957 114.634 283.668 114.206 283.297C113.778 282.919 113.434 282.48 113.173 281.978C112.912 281.469 112.754 280.913 112.702 280.312C112.649 279.71 112.709 279.158 112.882 278.657C113.055 278.147 113.322 277.708 113.685 277.337C114.046 276.959 114.485 276.666 115.002 276.458C115.518 276.25 116.089 276.145 116.717 276.145C117.352 276.145 117.942 276.25 118.487 276.458C119.039 276.666 119.53 276.959 119.958 277.337C120.385 277.708 120.73 278.147 120.991 278.657C121.252 279.158 121.409 279.71 121.461 280.312C121.514 280.913 121.454 281.469 121.282 281.978C121.109 282.487 120.842 282.927 120.48 283.297C120.117 283.668 119.678 283.957 119.161 284.165C118.653 284.374 118.085 284.478 117.458 284.478ZM117.331 283.159C117.741 283.159 118.115 283.089 118.451 282.95C118.787 282.811 119.072 282.615 119.305 282.36C119.538 282.098 119.709 281.797 119.819 281.457C119.936 281.11 119.976 280.728 119.939 280.312C119.903 279.895 119.796 279.517 119.619 279.177C119.45 278.83 119.226 278.529 118.948 278.275C118.669 278.012 118.35 277.812 117.989 277.673C117.628 277.534 117.243 277.465 116.832 277.465C116.422 277.465 116.048 277.534 115.712 277.673C115.383 277.812 115.099 278.012 114.859 278.275C114.625 278.529 114.45 278.83 114.333 279.177C114.224 279.517 114.187 279.895 114.224 280.312C114.259 280.721 114.362 281.099 114.532 281.446C114.71 281.793 114.938 282.098 115.216 282.36C115.494 282.615 115.813 282.811 116.174 282.95C116.535 283.089 116.92 283.159 117.331 283.159ZM125.084 284.362L121.68 276.261H123.248L126.294 283.587H125.515L127.372 276.261H128.766L131.835 283.587H131.08L132.902 276.261H134.342L132.356 284.362H130.753L127.956 277.754H128.374L126.699 284.362H125.084Z" fill="white"/>
<path d="M70.9645 154.777H65.7752C64.2895 154.777 62.9799 153.573 62.8532 152.087L62.4025 146.898C62.2758 145.412 63.3742 144.208 64.8599 144.208H70.0491C71.5348 144.208 72.8445 145.412 72.9712 146.898L73.4218 152.087C73.5485 153.573 72.4501 154.777 70.9645 154.777Z" fill="#A5BCB1"/>
<path d="M84.2437 154.777H79.0544C77.5688 154.777 76.2591 153.573 76.1324 152.087L75.6818 146.898C75.5551 145.412 76.6535 144.208 78.1392 144.208H83.3284C84.8141 144.208 86.1237 145.412 86.2575 146.898L86.7081 152.087C86.8278 153.573 85.7294 154.777 84.2437 154.777Z" fill="#A5BCB1"/>
<path d="M97.524 154.777H92.3347C90.8491 154.777 89.5395 153.573 89.4127 152.087L88.9621 146.898C88.8354 145.412 89.9338 144.208 91.4194 144.208H96.6087C98.0944 144.208 99.404 145.412 99.5308 146.898L99.9813 152.087C100.108 153.573 99.0097 154.777 97.524 154.777Z" fill="#A5BCB1"/>
<path d="M110.802 154.777H105.613C104.127 154.777 102.818 153.573 102.691 152.087L102.24 146.898C102.114 145.412 103.212 144.208 104.698 144.208H109.887C111.373 144.208 112.682 145.412 112.809 146.898L113.26 152.087C113.386 153.573 112.288 154.777 110.802 154.777Z" fill="#70A28A"/>
<path d="M124.083 154.777H118.893C117.408 154.777 116.098 153.573 115.971 152.087L115.521 146.898C115.394 145.412 116.492 144.208 117.978 144.208H123.167C124.653 144.208 125.963 145.412 126.089 146.898L126.54 152.087C126.667 153.573 125.568 154.777 124.083 154.777Z" fill="#70A28A"/>
<path d="M137.362 154.777H132.173C130.687 154.777 129.377 153.573 129.251 152.087L128.8 146.898C128.673 145.412 129.772 144.208 131.257 144.208H136.447C137.932 144.208 139.242 145.412 139.369 146.898L139.819 152.087C139.946 153.573 138.848 154.777 137.362 154.777Z" fill="#70A28A"/>
<path d="M150.641 154.777H145.451C143.966 154.777 142.656 153.573 142.522 152.087L142.071 146.898C141.945 145.412 143.043 144.208 144.529 144.208H149.718C151.204 144.208 152.513 145.412 152.64 146.898L153.091 152.087C153.225 153.573 152.126 154.777 150.641 154.777Z" fill="#70A28A"/>
<path d="M72.4792 172.042H67.2899C65.8042 172.042 64.4946 170.838 64.3678 169.352L63.9172 164.163C63.7904 162.677 64.8889 161.473 66.3746 161.473H71.5638C73.0495 161.473 74.3591 162.677 74.4859 164.163L74.9365 169.352C75.0632 170.838 73.9648 172.042 72.4792 172.042Z" fill="#70A28A"/>
<path d="M85.7585 172.042H80.5692C79.0835 172.042 77.7739 170.838 77.6471 169.352L77.1965 164.163C77.0697 162.677 78.1681 161.473 79.6538 161.473H84.8431C86.3288 161.473 87.6384 162.677 87.7652 164.163L88.2158 169.352C88.3425 170.838 87.2441 172.042 85.7585 172.042Z" fill="#70A28A"/>
<path d="M99.0378 172.042H93.8485C92.3628 172.042 91.0532 170.838 90.9264 169.352L90.4758 164.163C90.349 162.677 91.4475 161.473 92.9332 161.473H98.1225C99.6081 161.473 100.918 162.677 101.044 164.163L101.495 169.352C101.622 170.838 100.523 172.042 99.0378 172.042Z" fill="#70A28A"/>
<path d="M112.317 172.042H107.128C105.642 172.042 104.332 170.838 104.206 169.352L103.755 164.163C103.628 162.677 104.727 161.473 106.212 161.473H111.402C112.887 161.473 114.197 162.677 114.324 164.163L114.774 169.352C114.901 170.838 113.803 172.042 112.317 172.042Z" fill="#70A28A"/>
<path d="M125.596 172.042H120.407C118.921 172.042 117.612 170.838 117.485 169.352L117.034 164.163C116.908 162.677 118.006 161.473 119.492 161.473H124.681C126.167 161.473 127.476 162.677 127.603 164.163L128.054 169.352C128.18 170.838 127.082 172.042 125.596 172.042Z" fill="#70A28A"/>
<path d="M138.877 172.042H133.687C132.202 172.042 130.892 170.838 130.765 169.352L130.315 164.163C130.188 162.677 131.286 161.473 132.772 161.473H137.961C139.447 161.473 140.757 162.677 140.883 164.163L141.334 169.352C141.461 170.838 140.362 172.042 138.877 172.042Z" fill="#70A28A"/>
<path d="M152.156 172.042H146.967C145.481 172.042 144.171 170.838 144.045 169.352L143.594 164.163C143.467 162.677 144.566 161.473 146.051 161.473H151.241C152.726 161.473 154.036 162.677 154.163 164.163L154.613 169.352C154.74 170.838 153.642 172.042 152.156 172.042Z" fill="#70A28A"/>
<path d="M73.985 189.306H68.7957C67.3101 189.306 66.0004 188.102 65.8737 186.617L65.423 181.427C65.2963 179.942 66.3947 178.738 67.8804 178.738H73.0696C74.5553 178.738 75.865 179.942 75.9917 181.427L76.4424 186.617C76.5691 188.102 75.4707 189.306 73.985 189.306Z" fill="#70A28A"/>
<path d="M87.2645 189.306H82.0753C80.5896 189.306 79.2799 188.102 79.1461 186.617L78.6955 181.427C78.5688 179.942 79.6672 178.738 81.1528 178.738H86.3421C87.8278 178.738 89.1374 179.942 89.2642 181.427L89.7148 186.617C89.8486 188.102 88.7502 189.306 87.2645 189.306Z" fill="#70A28A"/>
<path d="M100.544 189.306H95.3543C93.8687 189.306 92.559 188.102 92.4323 186.617L91.9816 181.427C91.8549 179.942 92.9533 178.738 94.439 178.738H99.6282C101.114 178.738 102.424 179.942 102.55 181.427L103.001 186.617C103.128 188.102 102.029 189.306 100.544 189.306Z" fill="#70A28A"/>
<path d="M113.823 189.306H108.634C107.148 189.306 105.838 188.102 105.712 186.617L105.261 181.427C105.134 179.942 106.233 178.738 107.718 178.738H112.908C114.393 178.738 115.703 179.942 115.83 181.427L116.28 186.617C116.407 188.102 115.309 189.306 113.823 189.306Z" fill="#70A28A"/>
<path d="M127.101 189.306H121.912C120.426 189.306 119.117 188.102 118.99 186.617L118.539 181.427C118.413 179.942 119.511 178.738 120.997 178.738H126.186C127.672 178.738 128.981 179.942 129.115 181.427L129.566 186.617C129.685 188.102 128.587 189.306 127.101 189.306Z" fill="#70A28A"/>
<path d="M140.382 189.306H135.193C133.707 189.306 132.398 188.102 132.271 186.617L131.82 181.427C131.694 179.942 132.792 178.738 134.278 178.738H139.467C140.953 178.738 142.262 179.942 142.389 181.427L142.84 186.617C142.967 188.102 141.868 189.306 140.382 189.306Z" fill="#70A28A"/>
<path d="M153.662 189.306H148.473C146.987 189.306 145.677 188.102 145.55 186.617L145.1 181.427C144.973 179.942 146.071 178.738 147.557 178.738H152.746C154.232 178.738 155.542 179.942 155.668 181.427L156.119 186.617C156.253 188.102 155.147 189.306 153.662 189.306Z" fill="#70A28A"/>
<path d="M75.4987 206.571H70.3094C68.8237 206.571 67.5141 205.367 67.3874 203.881L66.9367 198.692C66.81 197.206 67.9084 196.002 69.394 196.002H74.5833C76.069 196.002 77.3786 197.206 77.5054 198.692L77.956 203.881C78.0828 205.367 76.9844 206.571 75.4987 206.571Z" fill="#70A28A"/>
<path d="M88.777 206.571H83.5877C82.1021 206.571 80.7924 205.367 80.6657 203.881L80.215 198.692C80.0883 197.206 81.1867 196.002 82.6724 196.002H87.8616C89.3473 196.002 90.657 197.206 90.7837 198.692L91.2343 203.881C91.3611 205.367 90.2627 206.571 88.777 206.571Z" fill="#70A28A"/>
<path d="M102.057 206.571H96.868C95.3823 206.571 94.0727 205.367 93.9459 203.881L93.4953 198.692C93.3686 197.206 94.467 196.002 95.9526 196.002H101.142C102.628 196.002 103.937 197.206 104.064 198.692L104.515 203.881C104.641 205.367 103.543 206.571 102.057 206.571Z" fill="#70A28A"/>
<path d="M115.337 206.571H110.148C108.662 206.571 107.352 205.367 107.218 203.881L106.768 198.692C106.641 197.206 107.739 196.002 109.225 196.002H114.414C115.9 196.002 117.21 197.206 117.336 198.692L117.787 203.881C117.921 205.367 116.822 206.571 115.337 206.571Z" fill="#28543F"/>
<path d="M128.616 206.571H123.427C121.941 206.571 120.631 205.367 120.505 203.881L120.054 198.692C119.927 197.206 121.026 196.002 122.511 196.002H127.701C129.186 196.002 130.496 197.206 130.623 198.692L131.073 203.881C131.2 205.367 130.102 206.571 128.616 206.571Z" fill="#70A28A"/>
<path d="M141.897 206.571H136.708C135.222 206.571 133.912 205.367 133.786 203.881L133.335 198.692C133.208 197.206 134.307 196.002 135.792 196.002H140.982C142.467 196.002 143.777 197.206 143.911 198.692L144.361 203.881C144.481 205.367 143.383 206.571 141.897 206.571Z" fill="#70A28A"/>
<path d="M155.176 206.571H149.987C148.501 206.571 147.192 205.367 147.065 203.881L146.614 198.692C146.488 197.206 147.586 196.002 149.072 196.002H154.261C155.747 196.002 157.056 197.206 157.19 198.692L157.641 203.881C157.76 205.367 156.662 206.571 155.176 206.571Z" fill="#70A28A"/>
<path d="M154.459 223.85H72.8807C70.8106 223.85 68.9869 222.174 68.8039 220.097C68.6208 218.027 70.1558 216.344 72.2259 216.344H153.804C155.874 216.344 157.698 218.02 157.881 220.097C158.064 222.174 156.529 223.85 154.459 223.85Z" fill="#E9E9E9"/>
<path d="M155.492 235.694H73.9139C71.8438 235.694 70.0201 234.018 69.8371 231.941C69.654 229.871 71.189 228.188 73.259 228.188H154.837C156.907 228.188 158.731 229.864 158.914 231.941C159.097 234.018 157.562 235.694 155.492 235.694Z" fill="#E9E9E9"/>
<path d="M156.536 247.544H74.9578C72.8878 247.544 71.0641 245.868 70.881 243.791C70.698 241.721 72.2329 240.038 74.303 240.038H155.881C157.951 240.038 159.775 241.714 159.958 243.791C160.134 245.861 158.606 247.544 156.536 247.544Z" fill="#E9E9E9"/>
<path d="M60.6416 105.708H58.7968L58.6982 104.652H60.5501L60.6416 105.708Z" fill="#5E6BC6"/>
<path d="M63.0497 105.707H61.2049L61.0078 103.496H62.8596L63.0497 105.707Z" fill="#5E6BC6"/>
<path d="M65.4573 105.707H63.6125L63.3027 102.144H65.1475L65.4573 105.707Z" fill="#5E6BC6"/>
<path d="M67.8734 105.708H66.0216L65.5498 100.286H67.3946L67.8734 105.708Z" fill="#5E6BC6"/>
<path d="M206.702 113.686C204.28 112.855 201.675 112.806 199.133 112.503C196.591 112.2 193.958 111.566 192.071 109.834C190.191 108.102 189.381 104.983 190.902 102.927C191.754 101.772 193.134 101.153 194.204 100.195C195.274 99.2376 196.014 97.5477 195.155 96.4C194.655 95.7381 193.69 95.3579 193.584 94.5341C193.415 93.1822 195.732 92.4922 195.535 91.1474C195.408 90.2883 194.246 89.7462 194.366 88.8872C194.507 87.8451 196.183 87.9155 196.774 87.0494C197.323 86.2397 196.647 85.1835 196.549 84.2119C196.394 82.7262 197.724 81.4166 199.175 81.0504C200.625 80.6843 202.146 81.0223 203.604 81.3673C206.286 78.8325 209.758 76.8117 213.391 76.171C214.588 75.9597 216.088 75.9949 216.693 77.0511C217.256 78.0298 216.686 79.3113 217.073 80.3745C217.609 81.8531 219.552 82.1136 221.122 82.1488C222.692 82.1841 224.65 82.5291 225.093 84.0359C225.621 85.8384 223.396 87.655 224.037 89.4223C224.53 90.7883 226.41 91.1544 227.072 92.4359C227.734 93.7174 226.903 95.2523 226.009 96.3859C225.114 97.5195 224.058 98.7799 224.262 100.209C224.643 102.878 228.607 103.11 230.24 105.251C231.733 107.215 230.74 110.137 229.093 111.975C226.473 114.89 222.474 116.326 218.552 116.39C214.637 116.432 210.413 114.953 206.702 113.686Z" fill="#5C4829"/>
<path d="M202.667 131.077C202.878 127.951 198.858 126.494 196.992 129.007C194.316 132.605 190.81 135.654 186.994 138.048C180.389 142.188 172.588 144.793 165.159 148.166C164.42 150.384 169.623 149.666 171.25 151.356C181.868 149.455 187.972 147.701 197.309 142.294C200.766 140.287 202.35 135.823 202.667 131.077Z" fill="#9C7B45"/>
<path d="M196.923 272.744C196.888 276.44 196.852 280.137 196.824 283.833C199.669 283.883 202.612 283.876 205.407 283.355C205.935 279.581 206.351 275.961 207.224 272.258C204.062 272.293 200.091 272.701 196.923 272.744Z" fill="#9C7B45"/>
<path d="M196.837 282.714C194.759 285.058 193.626 286.15 190.57 286.861C187.521 287.572 184.353 288.001 181.55 289.403C180.163 290.093 178.797 291.156 178.48 292.677H207.504C207.764 289.269 207.06 285.643 205.265 282.728C202.92 282.629 199.174 282.812 196.837 282.714Z" fill="#1C1F3B"/>
<path d="M201.619 149.201C199.45 150.919 193.881 155.911 191.705 157.629C185.326 180.886 188.966 203.516 191.149 227.533C192.571 243.186 193.986 258.838 195.409 274.49C200.049 275.413 203.837 275.772 208.54 275.279C208.892 249.621 209.815 223.78 211.702 198.193C212.371 189.131 215.624 179.358 214.905 170.296C214.18 161.234 209.808 153.13 201.619 149.201Z" fill="#0F1F18"/>
<path opacity="0.2" d="M201.619 149.201C199.45 150.919 193.881 155.911 191.705 157.629C185.326 180.886 188.966 203.516 191.149 227.533C192.571 243.186 193.986 258.838 195.409 274.49C200.049 275.413 203.837 275.772 208.54 275.279C208.892 249.621 209.815 223.78 211.702 198.193C212.371 189.131 215.624 179.358 214.905 170.296C214.18 161.234 209.808 153.13 201.619 149.201Z" fill="#0F1F18"/>
<path d="M230.219 274.131C230.479 277.426 231.064 280.7 231.958 283.883C234.394 284.503 237.112 284.686 239.597 284.305C239.379 279.841 239.893 275.539 239.675 271.075C236.549 271.16 233.141 273.033 230.219 274.131Z" fill="#9C7B45"/>
<path d="M194.677 147.574C194.353 148.707 194.03 149.848 193.706 150.982C193.086 153.157 192.241 155.58 191.643 157.762C194.093 164.839 198.754 171.387 203.627 177.069C203.627 177.069 223.391 257.668 229.474 275.503H242.859C242.859 275.503 237.748 249.472 233.129 222.977C228.503 196.488 231.333 170.422 218.103 157.192C204.866 143.955 194.677 147.574 194.677 147.574Z" fill="#0F1F18"/>
<path opacity="0.2" d="M221.693 161.692C220.644 160.065 219.454 158.551 218.088 157.185C213.068 152.165 208.484 149.574 204.731 148.285C200.19 149.257 195.838 151.665 192.494 154.89C192.233 155.714 191.987 156.53 191.762 157.319C201.19 161.178 211.561 162.677 221.693 161.692Z" fill="black"/>
<path d="M204.104 110.813C200.71 113.285 196.95 115.256 193.774 118.002C190.599 120.748 187.965 124.501 187.853 128.698C187.782 131.226 188.627 133.669 189.324 136.098C191.317 143.076 192.12 150.384 191.704 157.63C200.555 158.707 209.314 158.77 218.087 157.186C215.736 153.335 215.869 148.427 217.059 144.068C218.249 139.717 220.376 135.676 221.819 131.395C223.262 127.114 223.981 122.34 222.312 118.143C219.939 112.137 209.335 107.011 204.104 110.813Z" fill="#FFBF4C"/>
<path opacity="0.2" d="M220.362 128.422C219.573 125.726 218.214 122.275 215.834 120.783C212.877 128.443 213.327 137.322 216.904 144.701C216.954 144.49 217.01 144.272 217.066 144.061C218.087 140.336 219.784 136.843 221.157 133.231C221.044 131.612 220.819 129.992 220.362 128.422Z" fill="black"/>
<path d="M205.449 100.793C205.639 104.25 205.829 107.708 206.02 111.158C208.287 111.862 211.131 111.601 213.377 110.855C213.575 107.144 213.061 103.715 213.265 100.005C211.082 99.0119 207.653 99.8428 205.449 100.793Z" fill="#9C7B45"/>
<path opacity="0.2" d="M205.582 103.229C205.723 105.813 205.864 108.39 206.012 110.974C208.708 109.587 211.187 107.778 213.334 105.637C213.271 104.208 213.208 102.779 213.229 101.321C212.56 100.927 211.771 100.687 210.961 100.645C209.032 100.547 207.166 101.553 205.836 102.948C205.744 103.039 205.667 103.138 205.582 103.229Z" fill="black"/>
<path d="M200.801 89.4781C199.147 94.5195 199.4 100.237 201.414 105.116C201.935 106.384 203.245 107.151 204.611 106.968C207.167 106.63 210.201 106.482 212.166 105.426C214.715 104.06 217.031 101.969 218.186 99.1807C220.016 94.766 218.306 89.0204 214.426 86.556C210.546 84.0846 202.301 84.9155 200.801 89.4781Z" fill="#9C7B45"/>
<path d="M231.755 282.714C231.1 285.896 230.438 289.079 229.783 292.262C230.213 292.663 230.72 292.726 231.304 292.635H247.449C247.449 287.692 244.02 286.065 241.302 284.094C238.944 282.383 234.663 282.763 231.755 282.714Z" fill="#1C1F3B"/>
<path d="M153.917 155.087C153.959 155.214 153.994 155.341 154.037 155.467C154.283 156.249 154.741 156.988 155.382 157.495C156.48 157.171 157.783 157.171 158.909 157.397C159.092 156.918 158.958 156.305 158.585 155.953C158.212 155.594 157.698 155.418 157.198 155.312C156.698 155.207 156.17 155.172 155.677 155.038C155.072 154.876 154.501 154.876 153.917 155.087Z" fill="#9C7B45"/>
<path opacity="0.3" d="M153.917 155.087C153.959 155.214 153.994 155.341 154.037 155.467C154.283 156.249 154.741 156.988 155.382 157.495C156.48 157.171 157.783 157.171 158.909 157.397C159.092 156.918 158.958 156.305 158.585 155.953C158.212 155.594 157.698 155.418 157.198 155.312C156.698 155.207 156.17 155.172 155.677 155.038C155.072 154.876 154.501 154.876 153.917 155.087Z" fill="black"/>
<path d="M150.563 155.073C150.894 157.009 151.465 158.904 152.267 160.692C153 160.361 153.394 159.509 153.359 158.706C153.324 157.904 152.979 157.15 152.641 156.425C152.493 156.101 152.5 155.812 152.31 155.51C152.12 155.207 151.824 154.961 151.472 154.89C151.12 154.82 150.747 154.77 150.563 155.073Z" fill="#9C7B45"/>
<path opacity="0.3" d="M150.563 155.073C150.894 157.009 151.465 158.904 152.267 160.692C153 160.361 153.394 159.509 153.359 158.706C153.324 157.904 152.979 157.15 152.641 156.425C152.493 156.101 152.5 155.812 152.31 155.51C152.12 155.207 151.824 154.961 151.472 154.89C151.12 154.82 150.747 154.77 150.563 155.073Z" fill="black"/>
<path d="M153.001 156.087C153.043 156.214 153.078 156.341 153.121 156.467C153.367 157.249 153.825 157.988 154.465 158.495C155.564 158.171 156.867 158.171 157.993 158.397C158.176 157.918 158.042 157.305 157.669 156.953C157.296 156.594 156.782 156.418 156.282 156.312C155.775 156.207 155.254 156.172 154.761 156.038C154.149 155.876 153.585 155.876 153.001 156.087Z" fill="#9C7B45"/>
<path opacity="0.3" d="M153.001 156.087C153.043 156.214 153.078 156.341 153.121 156.467C153.367 157.249 153.825 157.988 154.465 158.495C155.564 158.171 156.867 158.171 157.993 158.397C158.176 157.918 158.042 157.305 157.669 156.953C157.296 156.594 156.782 156.418 156.282 156.312C155.775 156.207 155.254 156.172 154.761 156.038C154.149 155.876 153.585 155.876 153.001 156.087Z" fill="black"/>
<path d="M171.25 151.348C169.307 151.574 167.392 152.017 165.547 152.665C164.378 154.362 162.315 155.242 160.28 155.58C158.245 155.918 156.14 155.939 154.197 156.615C153.767 156.763 153.345 156.946 152.894 156.988C152.443 157.031 151.944 156.911 151.669 156.552C151.387 156.193 151.444 155.58 151.852 155.376C151.247 155.474 150.549 155.988 150.141 156.446C149.733 156.911 149.374 157.425 148.874 157.784C148.374 158.143 147.677 158.319 147.142 158.016C148.043 156.362 149.078 154.672 150.38 153.306C151.43 152.207 152.965 151.405 154.331 150.574C154.901 150.229 155.549 150.032 156.211 149.996C160.696 149.757 165.11 148.49 169.117 146.448C169.673 147.208 170.469 148.138 170.849 148.997C171.215 149.863 171.476 150.433 171.25 151.348Z" fill="#9C7B45"/>
<path opacity="0.2" d="M157.077 152.644C156.261 152.947 155.444 153.25 154.62 153.552C154.155 153.721 153.698 153.897 153.247 154.102C151.367 154.693 149.684 156.974 149.663 157.01C149.825 156.82 149.973 156.629 150.135 156.446C150.402 156.144 150.797 155.82 151.205 155.601C151.219 155.594 151.226 155.587 151.24 155.587C151.304 155.559 151.367 155.524 151.423 155.503C151.43 155.503 151.43 155.496 151.437 155.496C151.508 155.468 151.571 155.447 151.642 155.425C151.705 155.404 151.768 155.39 151.832 155.383C151.888 155.32 153.712 154.2 157.563 152.799C157.549 152.715 157.408 152.602 157.324 152.595C157.239 152.581 157.155 152.609 157.077 152.644Z" fill="black"/>
<path opacity="0.2" d="M152.831 155.087C152.556 155.2 152.274 155.327 152.077 155.545C151.88 155.763 151.796 156.115 151.965 156.362C152.07 156.516 152.26 156.601 152.45 156.643C152.81 156.728 153.197 156.707 153.535 156.573C153.577 155.988 153.316 155.404 152.831 155.087Z" fill="white"/>
<path opacity="0.2" d="M147.135 158.016C147.346 158.135 147.585 158.178 147.825 158.163C148.24 157.825 148.536 157.347 148.642 156.819C148.494 156.621 148.297 156.481 148.078 156.375C147.747 156.924 147.43 157.473 147.135 158.016Z" fill="white"/>
<path d="M244.309 181.104L216.947 184.251C215.06 184.47 213.356 183.118 213.138 181.231L211.589 167.747C211.37 165.86 212.722 164.156 214.609 163.938L241.971 160.791C243.858 160.572 245.562 161.924 245.78 163.811L247.329 177.295C247.547 179.182 246.196 180.886 244.309 181.104Z" fill="#E8E8E8"/>
<path opacity="0.2" d="M234.726 182.182C234.592 181.273 234.121 178.936 232.642 176.232C232.374 175.746 232.177 175.225 232.065 174.683L231.579 172.317C231.269 168.909 230.938 165.501 230.53 162.107L223.848 162.875C224.439 164.769 225.052 166.663 225.545 168.564L226.073 172.838C226.636 174.929 226.643 177.133 226.101 179.231C225.96 179.788 225.988 180.365 226.178 180.907C226.382 181.477 226.65 182.273 226.84 183.019C226.847 183.055 226.854 183.083 226.861 183.118L234.719 182.217C234.726 182.196 234.733 182.189 234.726 182.182Z" fill="black"/>
<path d="M219.455 114.594C226.221 122.944 229.868 133.471 231.53 144.089C233.192 154.707 232.981 165.522 232.762 176.267C231.199 176.907 228.777 177.224 227.397 176.245C228.707 167.676 223.757 158.791 225.44 150.285C226.256 146.159 222.025 142.195 220.053 138.477C218.082 134.759 216.23 130.873 215.723 126.697C215.23 122.522 216.371 117.452 219.455 114.594Z" fill="#9C7B45"/>
<path d="M217.124 113.918C213.491 122.494 214.364 132.837 219.391 140.674C223.482 138.78 226.974 135.52 229.46 131.76C228.178 125.902 225.101 119.98 221.187 115.439C220.137 114.235 218.722 113.805 217.124 113.918Z" fill="#FFBF4C"/>
<g opacity="0.2">
<path d="M200.309 179.633C200.218 179.633 200.14 179.562 200.133 179.471L200.105 179.119C200.098 179.02 200.168 178.936 200.267 178.929C200.38 178.922 200.45 178.992 200.457 179.091L200.485 179.443C200.492 179.541 200.422 179.626 200.323 179.633C200.323 179.633 200.316 179.633 200.309 179.633Z" fill="white"/>
<path d="M201.711 269.724H201.704C201.605 269.717 201.535 269.632 201.535 269.541L201.57 268.836C201.577 268.738 201.661 268.667 201.753 268.667C201.851 268.674 201.922 268.752 201.922 268.851L201.887 269.555C201.88 269.653 201.802 269.724 201.711 269.724ZM201.781 268.315H201.774C201.675 268.308 201.605 268.231 201.605 268.132L201.64 267.428C201.647 267.33 201.732 267.259 201.823 267.259C201.922 267.266 201.992 267.344 201.992 267.442L201.957 268.146C201.957 268.245 201.88 268.315 201.781 268.315ZM201.858 266.914H201.851C201.753 266.907 201.682 266.83 201.682 266.731L201.718 266.027C201.725 265.928 201.788 265.865 201.901 265.858C201.999 265.865 202.07 265.943 202.07 266.041L202.034 266.745C202.027 266.837 201.95 266.914 201.858 266.914ZM201.922 265.506H201.915C201.816 265.499 201.746 265.422 201.746 265.323L201.781 264.619C201.788 264.52 201.866 264.457 201.964 264.45C202.063 264.457 202.133 264.534 202.133 264.633L202.098 265.337C202.098 265.429 202.02 265.506 201.922 265.506ZM201.992 264.098H201.985C201.887 264.091 201.816 264.013 201.816 263.915L201.851 263.211C201.858 263.112 201.943 263.049 202.034 263.042C202.133 263.049 202.211 263.126 202.203 263.225L202.168 263.929C202.161 264.027 202.084 264.098 201.992 264.098ZM202.056 262.69H202.049C201.95 262.683 201.873 262.605 201.88 262.506L201.908 261.802C201.915 261.704 201.999 261.64 202.091 261.633C202.189 261.64 202.267 261.718 202.26 261.816L202.232 262.521C202.225 262.619 202.147 262.69 202.056 262.69ZM202.112 261.281C202.006 261.274 201.929 261.197 201.936 261.098L201.964 260.394C201.971 260.303 202.049 260.225 202.14 260.225H202.147C202.246 260.232 202.323 260.31 202.316 260.408L202.288 261.112C202.288 261.204 202.211 261.281 202.112 261.281ZM202.168 259.873C202.063 259.866 201.985 259.789 201.992 259.69L202.02 258.986C202.02 258.894 202.105 258.817 202.196 258.817H202.203C202.302 258.824 202.379 258.901 202.372 259L202.344 259.704C202.344 259.796 202.267 259.873 202.168 259.873ZM202.225 258.465C202.119 258.458 202.042 258.38 202.049 258.282L202.077 257.578C202.077 257.479 202.154 257.409 202.26 257.409C202.358 257.409 202.436 257.493 202.429 257.592L202.401 258.296C202.394 258.395 202.316 258.465 202.225 258.465ZM202.274 257.057C202.168 257.057 202.098 256.972 202.098 256.874L202.126 256.17C202.126 256.071 202.218 255.993 202.309 256.001C202.408 256.001 202.485 256.085 202.478 256.184L202.45 256.888C202.45 256.979 202.372 257.057 202.274 257.057ZM202.323 255.648C202.218 255.648 202.147 255.564 202.147 255.465L202.168 254.761C202.168 254.663 202.246 254.592 202.351 254.592C202.45 254.592 202.527 254.677 202.52 254.775L202.499 255.48C202.499 255.571 202.422 255.648 202.323 255.648ZM202.365 254.24C202.26 254.24 202.189 254.156 202.189 254.057L202.211 253.353C202.211 253.255 202.274 253.177 202.394 253.184C202.492 253.184 202.57 253.269 202.563 253.367L202.541 254.071C202.541 254.163 202.464 254.24 202.365 254.24ZM202.408 252.832C202.302 252.832 202.232 252.748 202.232 252.649L202.253 251.945C202.253 251.846 202.337 251.776 202.429 251.776C202.429 251.776 202.429 251.776 202.436 251.776C202.534 251.776 202.612 251.86 202.605 251.959L202.584 252.663C202.584 252.755 202.506 252.832 202.408 252.832ZM202.45 251.424C202.443 251.424 202.443 251.424 202.45 251.424C202.351 251.424 202.274 251.339 202.274 251.241L202.295 250.537C202.295 250.438 202.379 250.368 202.471 250.368C202.471 250.368 202.471 250.368 202.478 250.368C202.577 250.368 202.654 250.452 202.647 250.551L202.626 251.255C202.619 251.346 202.541 251.424 202.45 251.424ZM202.485 250.016C202.478 250.016 202.478 250.016 202.485 250.016C202.387 250.016 202.309 249.931 202.309 249.833L202.323 249.128C202.323 249.03 202.422 248.959 202.506 248.959C202.605 248.959 202.682 249.044 202.675 249.143L202.661 249.847C202.654 249.938 202.577 250.016 202.485 250.016ZM202.513 248.607C202.415 248.607 202.337 248.523 202.337 248.424L202.351 247.72C202.351 247.622 202.443 247.551 202.527 247.544C202.626 247.544 202.703 247.629 202.703 247.72L202.689 248.424C202.689 248.53 202.612 248.607 202.513 248.607ZM202.541 247.199C202.443 247.199 202.365 247.115 202.365 247.016L202.379 246.312C202.379 246.213 202.457 246.136 202.556 246.136C202.654 246.136 202.732 246.22 202.732 246.312L202.717 247.016C202.717 247.122 202.64 247.199 202.541 247.199ZM202.57 245.791C202.471 245.791 202.394 245.706 202.394 245.615L202.408 244.911C202.408 244.812 202.485 244.735 202.584 244.735C202.682 244.735 202.76 244.819 202.76 244.911L202.746 245.615C202.746 245.714 202.668 245.791 202.57 245.791ZM202.591 244.383C202.492 244.383 202.415 244.298 202.415 244.207L202.422 243.503C202.422 243.404 202.499 243.327 202.598 243.327C202.696 243.327 202.774 243.411 202.774 243.503L202.767 244.207C202.767 244.305 202.689 244.383 202.591 244.383ZM202.612 242.975C202.513 242.975 202.436 242.89 202.436 242.799L202.443 242.094C202.443 241.996 202.513 241.911 202.619 241.918C202.717 241.918 202.795 242.003 202.795 242.094L202.788 242.799C202.788 242.897 202.71 242.975 202.612 242.975ZM202.626 241.566C202.527 241.566 202.45 241.482 202.45 241.39L202.457 240.686C202.457 240.588 202.534 240.51 202.633 240.51C202.732 240.51 202.809 240.588 202.809 240.686L202.802 241.39C202.802 241.489 202.724 241.566 202.626 241.566ZM202.64 240.151C202.541 240.151 202.464 240.074 202.464 239.975L202.471 239.271C202.471 239.172 202.548 239.095 202.647 239.095C202.732 239.095 202.823 239.172 202.823 239.271L202.816 239.975C202.816 240.074 202.739 240.151 202.64 240.151ZM202.654 238.743C202.556 238.743 202.478 238.665 202.478 238.567L202.485 237.863C202.485 237.764 202.563 237.687 202.661 237.687C202.76 237.687 202.837 237.764 202.837 237.863L202.83 238.567C202.83 238.665 202.753 238.743 202.654 238.743ZM202.661 237.335C202.563 237.335 202.485 237.257 202.485 237.159V236.454C202.485 236.356 202.563 236.278 202.661 236.278C202.76 236.278 202.837 236.356 202.837 236.454V237.159C202.837 237.257 202.76 237.335 202.661 237.335ZM202.668 235.926C202.57 235.926 202.492 235.849 202.492 235.75V235.046C202.492 234.948 202.57 234.87 202.668 234.87C202.767 234.87 202.844 234.948 202.844 235.046V235.75C202.844 235.849 202.76 235.926 202.668 235.926ZM202.668 234.518C202.57 234.518 202.492 234.441 202.492 234.342V233.638C202.492 233.539 202.57 233.462 202.668 233.462C202.767 233.462 202.844 233.539 202.844 233.638V234.342C202.844 234.441 202.767 234.518 202.668 234.518ZM202.668 233.11C202.57 233.11 202.492 233.033 202.492 232.934V232.23C202.492 232.131 202.57 232.054 202.668 232.054C202.767 232.054 202.844 232.131 202.844 232.23V232.934C202.844 233.033 202.76 233.11 202.668 233.11ZM202.661 231.702C202.563 231.702 202.485 231.624 202.485 231.526V230.822C202.485 230.723 202.563 230.646 202.661 230.646C202.76 230.646 202.837 230.723 202.837 230.822V231.526C202.837 231.624 202.76 231.702 202.661 231.702ZM202.654 230.286C202.556 230.286 202.478 230.209 202.478 230.11L202.471 229.406C202.471 229.308 202.548 229.23 202.647 229.23C202.746 229.23 202.823 229.308 202.823 229.406L202.83 230.11C202.83 230.209 202.753 230.286 202.654 230.286ZM202.64 228.885C202.541 228.885 202.464 228.808 202.464 228.709L202.457 228.005C202.457 227.907 202.534 227.829 202.633 227.829C202.732 227.829 202.809 227.907 202.809 228.005L202.816 228.709C202.816 228.801 202.739 228.878 202.64 228.885ZM202.626 227.47C202.527 227.47 202.45 227.393 202.45 227.294L202.443 226.59C202.443 226.491 202.52 226.414 202.619 226.414C202.717 226.393 202.795 226.491 202.795 226.59L202.802 227.294C202.802 227.393 202.724 227.47 202.626 227.47ZM202.612 226.062C202.513 226.062 202.436 225.984 202.436 225.886L202.429 225.182C202.429 225.083 202.506 225.006 202.605 225.006C202.703 225.006 202.781 225.083 202.781 225.182L202.788 225.886C202.788 225.984 202.71 226.062 202.612 226.062ZM202.591 224.654C202.492 224.654 202.415 224.576 202.415 224.478L202.401 223.773C202.401 223.675 202.478 223.597 202.577 223.597C202.675 223.597 202.753 223.675 202.753 223.773L202.767 224.478C202.767 224.576 202.689 224.654 202.591 224.654ZM202.563 223.245C202.464 223.245 202.387 223.168 202.387 223.069L202.372 222.365C202.372 222.267 202.45 222.189 202.541 222.189C202.541 222.189 202.541 222.189 202.548 222.189C202.647 222.189 202.724 222.267 202.724 222.365L202.739 223.069C202.746 223.161 202.668 223.245 202.563 223.245ZM202.541 221.837C202.443 221.837 202.365 221.76 202.365 221.661L202.351 220.957C202.351 220.858 202.429 220.781 202.527 220.781C202.626 220.802 202.703 220.858 202.703 220.957L202.717 221.661C202.717 221.753 202.64 221.837 202.541 221.837ZM202.506 220.429C202.408 220.429 202.33 220.352 202.33 220.253L202.316 219.549C202.316 219.45 202.394 219.373 202.485 219.366C202.591 219.366 202.661 219.443 202.668 219.535L202.682 220.239C202.689 220.344 202.612 220.429 202.506 220.429C202.513 220.429 202.513 220.429 202.506 220.429ZM202.478 219.021C202.38 219.021 202.302 218.943 202.302 218.852L202.288 218.148C202.288 218.049 202.365 217.972 202.457 217.965C202.457 217.965 202.457 217.965 202.464 217.965C202.556 217.965 202.64 218.042 202.64 218.134L202.654 218.838C202.654 218.936 202.577 219.021 202.478 219.021ZM202.443 217.613C202.351 217.613 202.267 217.535 202.267 217.444L202.246 216.739C202.246 216.641 202.323 216.563 202.415 216.556H202.422C202.513 216.556 202.598 216.634 202.598 216.725L202.619 217.429C202.619 217.528 202.541 217.613 202.443 217.613ZM202.401 216.204C202.309 216.204 202.225 216.127 202.225 216.035L202.203 215.331C202.203 215.233 202.274 215.155 202.372 215.148H202.379C202.471 215.148 202.556 215.226 202.556 215.317L202.577 216.021C202.584 216.12 202.506 216.197 202.401 216.204ZM202.358 214.796C202.267 214.796 202.182 214.719 202.182 214.627L202.161 213.923C202.161 213.824 202.232 213.747 202.33 213.74C202.422 213.747 202.506 213.81 202.513 213.909L202.534 214.613C202.541 214.712 202.464 214.789 202.358 214.796C202.365 214.796 202.365 214.796 202.358 214.796ZM202.316 213.388C202.225 213.388 202.14 213.31 202.14 213.219L202.119 212.515C202.119 212.416 202.189 212.339 202.288 212.332C202.379 212.325 202.464 212.402 202.471 212.501L202.492 213.205C202.492 213.303 202.422 213.381 202.316 213.388ZM202.267 211.98C202.175 211.98 202.091 211.902 202.091 211.811L202.063 211.107C202.063 211.008 202.133 210.931 202.232 210.923C202.33 210.931 202.408 210.994 202.415 211.092L202.443 211.797C202.45 211.895 202.372 211.973 202.267 211.98ZM202.218 210.571C202.126 210.571 202.042 210.494 202.042 210.402L202.013 209.698C202.013 209.6 202.084 209.522 202.182 209.515H202.189C202.281 209.515 202.365 209.593 202.365 209.684L202.394 210.388C202.394 210.487 202.323 210.564 202.218 210.571ZM202.161 209.163C202.07 209.163 201.985 209.086 201.985 208.994L201.957 208.29C201.95 208.192 202.027 208.114 202.126 208.107C202.218 208.107 202.302 208.177 202.309 208.276L202.337 208.98C202.344 209.079 202.267 209.156 202.161 209.163C202.168 209.163 202.168 209.163 202.161 209.163ZM202.105 207.755C202.013 207.755 201.936 207.678 201.929 207.586L201.901 206.882C201.894 206.783 201.971 206.706 202.07 206.699C202.168 206.706 202.246 206.769 202.253 206.868L202.281 207.572C202.288 207.671 202.21 207.748 202.105 207.755ZM202.042 206.347C201.95 206.347 201.873 206.276 201.866 206.178L201.837 205.474C201.83 205.375 201.908 205.298 202.006 205.291C202.098 205.298 202.182 205.361 202.189 205.46L202.218 206.164C202.225 206.262 202.147 206.34 202.049 206.347C202.049 206.347 202.049 206.347 202.042 206.347ZM201.978 204.939C201.887 204.939 201.809 204.868 201.802 204.77L201.767 204.065C201.76 203.967 201.837 203.889 201.936 203.882C202.034 203.889 202.112 203.953 202.119 204.051L202.154 204.756C202.161 204.854 202.084 204.932 201.985 204.939C201.985 204.939 201.985 204.939 201.978 204.939ZM201.915 203.53C201.823 203.53 201.746 203.46 201.739 203.361L201.704 202.657C201.697 202.559 201.774 202.474 201.873 202.474C201.992 202.474 202.056 202.545 202.056 202.643L202.091 203.347C202.098 203.446 202.02 203.523 201.922 203.53H201.915ZM201.844 202.122C201.753 202.122 201.675 202.052 201.668 201.953L201.633 201.249C201.626 201.15 201.704 201.073 201.802 201.066C201.908 201.073 201.978 201.136 201.985 201.235L202.02 201.939C202.027 202.038 201.95 202.122 201.851 202.122H201.844ZM201.774 200.714C201.682 200.714 201.605 200.644 201.598 200.545L201.563 199.841C201.556 199.742 201.633 199.665 201.732 199.658C201.837 199.658 201.908 199.728 201.915 199.827L201.95 200.531C201.957 200.629 201.88 200.707 201.781 200.714H201.774ZM201.697 199.313C201.605 199.313 201.528 199.242 201.521 199.144L201.485 198.44C201.478 198.341 201.556 198.257 201.654 198.257C201.753 198.257 201.837 198.327 201.837 198.426L201.873 199.13C201.88 199.228 201.802 199.313 201.704 199.313H201.697ZM201.619 197.905C201.528 197.905 201.45 197.834 201.443 197.736L201.401 197.031C201.394 196.933 201.471 196.848 201.57 196.848C201.661 196.841 201.753 196.919 201.753 197.017L201.795 197.721C201.802 197.82 201.725 197.905 201.626 197.905H201.619ZM201.535 196.496C201.443 196.496 201.366 196.426 201.359 196.327L201.316 195.623C201.309 195.525 201.387 195.44 201.478 195.433C201.591 195.433 201.661 195.504 201.668 195.595L201.711 196.299C201.718 196.398 201.64 196.482 201.542 196.482C201.542 196.496 201.542 196.496 201.535 196.496ZM201.45 195.088C201.359 195.088 201.281 195.018 201.274 194.926L201.232 194.222C201.225 194.123 201.302 194.039 201.394 194.032C201.506 194.032 201.577 194.102 201.584 194.194L201.626 194.898C201.633 194.997 201.556 195.081 201.464 195.088C201.457 195.088 201.45 195.088 201.45 195.088ZM201.359 193.687C201.267 193.687 201.19 193.617 201.183 193.525L201.14 192.821C201.133 192.722 201.204 192.638 201.302 192.638C201.401 192.617 201.485 192.708 201.485 192.8L201.528 193.504C201.535 193.602 201.457 193.687 201.366 193.694C201.366 193.687 201.366 193.687 201.359 193.687ZM201.274 192.279C201.183 192.279 201.105 192.208 201.098 192.117L201.049 191.413C201.042 191.314 201.112 191.23 201.211 191.223C201.309 191.208 201.394 191.286 201.401 191.384L201.45 192.089C201.457 192.187 201.387 192.272 201.288 192.279C201.281 192.279 201.274 192.279 201.274 192.279ZM201.175 190.87C201.084 190.87 201.007 190.8 200.999 190.709L200.95 190.004C200.943 189.906 201.013 189.821 201.112 189.814C201.204 189.793 201.295 189.878 201.302 189.976L201.352 190.68C201.359 190.779 201.288 190.863 201.19 190.87C201.183 190.87 201.183 190.87 201.175 190.87ZM201.077 189.469C200.985 189.469 200.908 189.399 200.901 189.307L200.852 188.603C200.845 188.505 200.915 188.42 201.014 188.413C201.105 188.392 201.197 188.477 201.204 188.575L201.253 189.279C201.26 189.378 201.19 189.462 201.091 189.469C201.084 189.469 201.084 189.469 201.077 189.469ZM200.978 188.061C200.887 188.061 200.809 187.991 200.802 187.899L200.753 187.195C200.746 187.096 200.816 187.012 200.915 187.005C201.021 186.991 201.098 187.068 201.105 187.167L201.154 187.871C201.161 187.97 201.091 188.054 200.992 188.061C200.985 188.061 200.978 188.061 200.978 188.061ZM200.873 186.653C200.781 186.653 200.704 186.582 200.697 186.491L200.64 185.787C200.633 185.688 200.704 185.604 200.802 185.597C200.894 185.59 200.985 185.66 200.992 185.759L201.049 186.463C201.056 186.561 200.985 186.646 200.887 186.653C200.88 186.653 200.88 186.653 200.873 186.653ZM200.767 185.252C200.676 185.252 200.598 185.181 200.591 185.09L200.535 184.386C200.528 184.287 200.598 184.203 200.697 184.196C200.788 184.188 200.88 184.259 200.887 184.357L200.943 185.062C200.95 185.16 200.88 185.245 200.781 185.252C200.774 185.252 200.774 185.252 200.767 185.252ZM200.654 183.851C200.563 183.851 200.485 183.78 200.478 183.689L200.422 182.984C200.415 182.886 200.485 182.801 200.584 182.794C200.683 182.794 200.767 182.858 200.774 182.956L200.83 183.66C200.838 183.759 200.767 183.843 200.668 183.851C200.668 183.843 200.662 183.851 200.654 183.851ZM200.542 182.442C200.45 182.442 200.373 182.372 200.366 182.28L200.309 181.576C200.302 181.478 200.373 181.393 200.471 181.386C200.563 181.379 200.654 181.45 200.662 181.548L200.718 182.252C200.725 182.351 200.654 182.435 200.556 182.442C200.556 182.442 200.549 182.442 200.542 182.442ZM200.429 181.041C200.338 181.041 200.26 180.971 200.253 180.879L200.197 180.175C200.19 180.077 200.26 179.992 200.359 179.985C200.471 179.978 200.542 180.048 200.549 180.147L200.605 180.851C200.612 180.95 200.542 181.034 200.443 181.041C200.436 181.041 200.436 181.041 200.429 181.041Z" fill="white"/>
<path d="M201.647 270.787H201.64C201.541 270.78 201.471 270.702 201.471 270.604L201.492 270.252C201.499 270.153 201.59 270.083 201.675 270.083C201.773 270.09 201.844 270.167 201.844 270.266L201.823 270.618C201.823 270.709 201.745 270.787 201.647 270.787Z" fill="white"/>
</g>
<g opacity="0.2">
<path d="M218.123 174.373C218.031 174.373 217.954 174.302 217.947 174.211L217.912 173.859C217.905 173.76 217.975 173.676 218.074 173.669C218.172 173.669 218.257 173.732 218.264 173.831L218.299 174.183C218.306 174.281 218.235 174.366 218.137 174.373C218.137 174.373 218.13 174.373 218.123 174.373Z" fill="white"/>
<path d="M235.521 269.476C235.444 269.476 235.373 269.427 235.352 269.35L235.162 268.674C235.134 268.582 235.19 268.484 235.282 268.456C235.38 268.427 235.472 268.484 235.5 268.575L235.683 269.251C235.711 269.343 235.655 269.441 235.564 269.469C235.549 269.476 235.535 269.476 235.521 269.476ZM235.148 268.125C235.071 268.125 235 268.075 234.979 267.998L234.796 267.322C234.768 267.23 234.824 267.132 234.923 267.104C235.014 267.082 235.113 267.132 235.141 267.23L235.324 267.906C235.352 267.998 235.296 268.096 235.204 268.125C235.176 268.125 235.162 268.125 235.148 268.125ZM234.775 266.766C234.697 266.766 234.627 266.716 234.606 266.639L234.423 265.963C234.395 265.871 234.451 265.773 234.55 265.745C234.641 265.717 234.74 265.773 234.768 265.871L234.951 266.547C234.979 266.639 234.923 266.738 234.824 266.766C234.81 266.766 234.796 266.766 234.775 266.766ZM234.416 265.414C234.338 265.414 234.268 265.364 234.247 265.28L234.064 264.604C234.036 264.513 234.092 264.414 234.191 264.386C234.282 264.358 234.381 264.414 234.409 264.513L234.592 265.188C234.62 265.28 234.564 265.379 234.465 265.407C234.444 265.414 234.43 265.414 234.416 265.414ZM234.05 264.055C233.972 264.055 233.902 264.006 233.881 263.921L233.705 263.245C233.676 263.154 233.733 263.055 233.831 263.034C233.923 263.006 234.021 263.062 234.043 263.161L234.219 263.837C234.247 263.928 234.191 264.027 234.092 264.055C234.078 264.055 234.064 264.055 234.05 264.055ZM233.691 262.703C233.613 262.703 233.543 262.654 233.522 262.569L233.346 261.893C233.324 261.802 233.374 261.703 233.472 261.675C233.571 261.654 233.662 261.71 233.691 261.802L233.867 262.478C233.895 262.569 233.838 262.668 233.74 262.689C233.726 262.703 233.705 262.703 233.691 262.703ZM233.338 261.344C233.261 261.344 233.191 261.295 233.17 261.21L232.993 260.527C232.972 260.436 233.029 260.337 233.12 260.316C233.212 260.295 233.31 260.351 233.331 260.443L233.507 261.119C233.529 261.21 233.472 261.309 233.381 261.337C233.367 261.344 233.353 261.344 233.338 261.344ZM232.986 259.985C232.909 259.985 232.839 259.936 232.817 259.851L232.641 259.168C232.62 259.077 232.677 258.978 232.768 258.957C232.86 258.936 232.958 258.992 232.979 259.084L233.155 259.76C233.177 259.851 233.12 259.95 233.029 259.978C233.015 259.985 233.001 259.985 232.986 259.985ZM232.641 258.626C232.564 258.626 232.494 258.57 232.472 258.492L232.296 257.809C232.275 257.718 232.332 257.619 232.423 257.598C232.522 257.57 232.613 257.633 232.634 257.725L232.81 258.401C232.832 258.492 232.775 258.591 232.684 258.612C232.67 258.626 232.656 258.626 232.641 258.626ZM232.296 257.267C232.219 257.267 232.149 257.211 232.127 257.133L231.958 256.45C231.937 256.359 231.994 256.26 232.085 256.239C232.184 256.211 232.275 256.274 232.296 256.366L232.465 257.049C232.487 257.14 232.43 257.239 232.339 257.26C232.325 257.267 232.311 257.267 232.296 257.267ZM231.958 255.908C231.881 255.908 231.811 255.852 231.789 255.775L231.621 255.092C231.599 255 231.656 254.901 231.747 254.88C231.846 254.852 231.937 254.916 231.958 255.007L232.127 255.69C232.149 255.782 232.092 255.88 232.001 255.901C231.987 255.901 231.966 255.908 231.958 255.908ZM231.621 254.542C231.543 254.542 231.473 254.486 231.452 254.409L231.283 253.726C231.261 253.634 231.318 253.535 231.409 253.514C231.501 253.486 231.599 253.55 231.621 253.641L231.789 254.324C231.811 254.416 231.754 254.514 231.663 254.535C231.649 254.542 231.635 254.542 231.621 254.542ZM231.283 253.183C231.205 253.183 231.135 253.127 231.114 253.05L230.945 252.367C230.923 252.275 230.98 252.177 231.071 252.155C231.163 252.134 231.261 252.191 231.283 252.282L231.452 252.965C231.473 253.057 231.416 253.155 231.325 253.176C231.311 253.183 231.297 253.183 231.283 253.183ZM230.952 251.817C230.874 251.817 230.804 251.761 230.783 251.684L230.621 251.001C230.6 250.909 230.656 250.811 230.754 250.789C230.853 250.761 230.945 250.825 230.966 250.923L231.128 251.606C231.149 251.698 231.092 251.796 231.001 251.817C230.98 251.817 230.966 251.817 230.952 251.817ZM230.628 250.451C230.55 250.451 230.473 250.395 230.459 250.318L230.297 249.635C230.276 249.543 230.332 249.445 230.431 249.423C230.529 249.402 230.621 249.459 230.642 249.557L230.804 250.24C230.825 250.332 230.769 250.43 230.67 250.451C230.656 250.451 230.642 250.451 230.628 250.451ZM230.304 249.085C230.226 249.085 230.149 249.029 230.135 248.952L229.973 248.269C229.952 248.177 230.008 248.079 230.107 248.057C230.205 248.036 230.297 248.093 230.318 248.191L230.48 248.874C230.501 248.966 230.445 249.064 230.346 249.085C230.332 249.085 230.318 249.085 230.304 249.085ZM229.987 247.72C229.909 247.72 229.832 247.663 229.818 247.586L229.656 246.903C229.635 246.811 229.691 246.713 229.79 246.692C229.881 246.663 229.98 246.727 230.001 246.825L230.163 247.508C230.184 247.6 230.128 247.698 230.029 247.72C230.015 247.72 230.001 247.72 229.987 247.72ZM229.67 246.354C229.593 246.354 229.515 246.297 229.501 246.22L229.346 245.537C229.325 245.445 229.381 245.347 229.48 245.326C229.572 245.304 229.67 245.361 229.691 245.459L229.846 246.142C229.867 246.234 229.811 246.332 229.712 246.354C229.698 246.354 229.684 246.354 229.67 246.354ZM229.36 244.988C229.283 244.988 229.205 244.931 229.191 244.854L229.036 244.171C229.015 244.079 229.072 243.981 229.17 243.96C229.269 243.938 229.36 243.995 229.381 244.093L229.536 244.776C229.557 244.868 229.501 244.966 229.403 244.988C229.381 244.988 229.367 244.988 229.36 244.988ZM229.05 243.622C228.973 243.622 228.896 243.565 228.882 243.481L228.727 242.798C228.706 242.706 228.762 242.608 228.86 242.587C228.959 242.565 229.051 242.629 229.072 242.72L229.227 243.403C229.248 243.495 229.191 243.593 229.093 243.615C229.072 243.615 229.058 243.622 229.05 243.622ZM228.741 242.249C228.663 242.249 228.586 242.192 228.572 242.108L228.417 241.425C228.396 241.333 228.459 241.235 228.551 241.214C228.649 241.192 228.741 241.256 228.762 241.347L228.917 242.03C228.938 242.122 228.882 242.22 228.783 242.242C228.769 242.249 228.755 242.249 228.741 242.249ZM228.438 240.876C228.353 240.876 228.283 240.819 228.269 240.735L228.121 240.052C228.1 239.96 228.163 239.862 228.255 239.841C228.346 239.819 228.445 239.883 228.466 239.974L228.614 240.657C228.635 240.749 228.572 240.847 228.48 240.869C228.466 240.876 228.452 240.876 228.438 240.876ZM228.142 239.51C228.058 239.51 227.987 239.453 227.973 239.369L227.825 238.686C227.804 238.587 227.868 238.496 227.959 238.475C228.058 238.453 228.149 238.517 228.17 238.608L228.318 239.291C228.339 239.383 228.276 239.481 228.184 239.503C228.17 239.51 228.156 239.51 228.142 239.51ZM227.847 238.137C227.762 238.137 227.692 238.08 227.678 237.996L227.53 237.306C227.508 237.214 227.572 237.116 227.663 237.095C227.762 237.073 227.853 237.137 227.875 237.228L228.023 237.911C228.044 238.01 227.98 238.101 227.889 238.123C227.875 238.137 227.861 238.137 227.847 238.137ZM227.558 236.764C227.473 236.764 227.403 236.707 227.389 236.623L227.241 235.933C227.22 235.834 227.283 235.743 227.375 235.721C227.473 235.707 227.565 235.764 227.586 235.855L227.734 236.545C227.755 236.644 227.692 236.735 227.6 236.757C227.579 236.764 227.565 236.764 227.558 236.764ZM227.269 235.391C227.185 235.391 227.114 235.334 227.093 235.25L226.952 234.56C226.931 234.461 226.994 234.37 227.086 234.348C227.185 234.334 227.276 234.391 227.297 234.482L227.438 235.165C227.459 235.264 227.396 235.355 227.304 235.376C227.29 235.391 227.283 235.391 227.269 235.391ZM226.98 234.018C226.896 234.018 226.826 233.961 226.804 233.877L226.664 233.187C226.642 233.095 226.706 232.997 226.804 232.983C226.896 232.968 226.994 233.025 227.009 233.123L227.149 233.813C227.171 233.912 227.107 234.003 227.016 234.025C227.009 234.018 226.995 234.018 226.98 234.018ZM226.706 232.645C226.621 232.645 226.551 232.588 226.53 232.504L226.389 231.814C226.368 231.715 226.431 231.624 226.53 231.61C226.635 231.595 226.72 231.652 226.734 231.75L226.875 232.44C226.896 232.539 226.833 232.63 226.741 232.652C226.727 232.645 226.713 232.645 226.706 232.645ZM226.424 231.264C226.34 231.264 226.269 231.208 226.248 231.124L226.107 230.434C226.086 230.335 226.15 230.244 226.248 230.229C226.347 230.208 226.438 230.272 226.452 230.37L226.593 231.06C226.614 231.152 226.551 231.25 226.452 231.264C226.445 231.264 226.438 231.264 226.424 231.264ZM226.15 229.891C226.065 229.891 225.995 229.835 225.974 229.751L225.84 229.061C225.819 228.962 225.882 228.871 225.981 228.856C226.079 228.835 226.171 228.899 226.185 228.997L226.319 229.687C226.34 229.786 226.276 229.877 226.178 229.891C226.178 229.891 226.164 229.891 226.15 229.891ZM225.882 228.511C225.798 228.511 225.727 228.455 225.706 228.371L225.572 227.681C225.551 227.582 225.614 227.49 225.713 227.476C225.812 227.448 225.903 227.519 225.917 227.617L226.051 228.307C226.072 228.406 226.009 228.497 225.91 228.511C225.903 228.511 225.896 228.511 225.882 228.511ZM225.614 227.138C225.53 227.138 225.46 227.082 225.438 226.998L225.305 226.308C225.284 226.209 225.347 226.117 225.445 226.103C225.537 226.082 225.636 226.146 225.65 226.244L225.783 226.934C225.805 227.033 225.741 227.124 225.643 227.138C225.636 227.138 225.629 227.138 225.614 227.138ZM225.354 225.758C225.269 225.758 225.199 225.702 225.178 225.618L225.044 224.928C225.023 224.836 225.086 224.737 225.185 224.723C225.284 224.702 225.375 224.773 225.389 224.864L225.516 225.554C225.537 225.653 225.474 225.744 225.375 225.758C225.375 225.758 225.361 225.758 225.354 225.758ZM225.093 224.378C225.009 224.378 224.939 224.322 224.917 224.237L224.791 223.547C224.777 223.449 224.833 223.357 224.931 223.343C225.03 223.322 225.122 223.393 225.136 223.484L225.262 224.174C225.284 224.273 225.22 224.364 225.122 224.378C225.115 224.378 225.1 224.378 225.093 224.378ZM224.84 222.998C224.755 222.998 224.685 222.942 224.664 222.857L224.537 222.167C224.523 222.069 224.586 221.977 224.678 221.963C224.777 221.942 224.868 222.012 224.882 222.104L225.009 222.794C225.03 222.893 224.967 222.984 224.868 222.998C224.861 222.998 224.847 222.998 224.84 222.998ZM224.586 221.618C224.502 221.618 224.432 221.562 224.41 221.47L224.284 220.78C224.27 220.682 224.333 220.59 224.425 220.576C224.516 220.555 224.615 220.625 224.629 220.717L224.755 221.407C224.77 221.506 224.706 221.597 224.615 221.611C224.608 221.618 224.594 221.618 224.586 221.618ZM224.333 220.238C224.249 220.238 224.178 220.182 224.157 220.09L224.037 219.4C224.023 219.302 224.087 219.21 224.178 219.196C224.277 219.175 224.361 219.245 224.382 219.337L224.502 220.027C224.516 220.125 224.453 220.217 224.361 220.231C224.354 220.238 224.347 220.238 224.333 220.238ZM224.094 218.858C224.009 218.858 223.939 218.795 223.918 218.71L223.798 218.02C223.784 217.922 223.847 217.83 223.939 217.816C224.037 217.795 224.122 217.865 224.143 217.957L224.263 218.647C224.277 218.745 224.213 218.837 224.122 218.851C224.108 218.858 224.101 218.858 224.094 218.858ZM223.847 217.478C223.763 217.478 223.685 217.415 223.671 217.33L223.551 216.64C223.537 216.542 223.601 216.45 223.692 216.436C223.791 216.415 223.882 216.485 223.896 216.577L224.016 217.267C224.03 217.365 223.967 217.457 223.875 217.471C223.868 217.478 223.861 217.478 223.847 217.478ZM223.608 216.091C223.523 216.091 223.446 216.028 223.432 215.943L223.312 215.253C223.298 215.154 223.361 215.063 223.453 215.049C223.551 215.028 223.643 215.098 223.657 215.19L223.777 215.88C223.791 215.978 223.727 216.07 223.636 216.084C223.629 216.091 223.622 216.091 223.608 216.091ZM223.375 214.711C223.291 214.711 223.213 214.648 223.199 214.563L223.08 213.873C223.066 213.774 223.129 213.69 223.228 213.669C223.319 213.648 223.418 213.718 223.432 213.817L223.544 214.507C223.558 214.605 223.495 214.697 223.404 214.711C223.396 214.711 223.382 214.711 223.375 214.711ZM223.143 213.324C223.059 213.324 222.981 213.26 222.967 213.176L222.854 212.486C222.84 212.387 222.904 212.303 223.002 212.282C223.101 212.268 223.185 212.331 223.206 212.43L223.319 213.12C223.333 213.218 223.27 213.303 223.171 213.324C223.164 213.324 223.15 213.324 223.143 213.324ZM222.918 211.944C222.833 211.944 222.756 211.88 222.742 211.796L222.629 211.106C222.615 211.007 222.678 210.923 222.777 210.902C222.875 210.888 222.967 210.951 222.981 211.05L223.094 211.74C223.108 211.838 223.044 211.923 222.946 211.944C222.939 211.944 222.925 211.944 222.918 211.944ZM222.692 210.557C222.608 210.557 222.53 210.493 222.516 210.409L222.404 209.712C222.39 209.613 222.453 209.529 222.552 209.508C222.65 209.493 222.735 209.557 222.756 209.655L222.868 210.345C222.882 210.444 222.819 210.528 222.721 210.55C222.714 210.557 222.699 210.557 222.692 210.557ZM222.474 209.17C222.39 209.17 222.312 209.106 222.298 209.022L222.185 208.332C222.171 208.233 222.235 208.149 222.333 208.127C222.439 208.113 222.516 208.177 222.537 208.275L222.65 208.965C222.664 209.064 222.601 209.148 222.502 209.17C222.488 209.17 222.481 209.17 222.474 209.17ZM222.256 207.782C222.171 207.782 222.094 207.719 222.08 207.635L221.974 206.945C221.96 206.846 222.024 206.762 222.122 206.74C222.221 206.726 222.305 206.79 222.326 206.888L222.432 207.578C222.446 207.677 222.383 207.761 222.284 207.782C222.27 207.782 222.263 207.782 222.256 207.782ZM222.045 206.395C221.96 206.395 221.883 206.332 221.869 206.248L221.763 205.55C221.749 205.452 221.812 205.367 221.911 205.353C222.009 205.332 222.094 205.403 222.108 205.501L222.214 206.191C222.228 206.29 222.164 206.374 222.066 206.395C222.059 206.395 222.052 206.395 222.045 206.395ZM221.833 205.008C221.749 205.008 221.671 204.945 221.657 204.86L221.552 204.163C221.538 204.065 221.601 203.98 221.7 203.966C221.798 203.952 221.883 204.015 221.897 204.114L222.002 204.811C222.016 204.91 221.953 204.994 221.855 205.008C221.847 205.008 221.84 205.008 221.833 205.008ZM221.629 203.621C221.545 203.621 221.467 203.558 221.453 203.473L221.355 202.776C221.34 202.678 221.404 202.593 221.502 202.579C221.601 202.565 221.686 202.635 221.7 202.727L221.798 203.424C221.812 203.523 221.749 203.607 221.65 203.621C221.643 203.621 221.636 203.621 221.629 203.621ZM221.425 202.234C221.341 202.234 221.263 202.171 221.249 202.086L221.15 201.389C221.136 201.291 221.207 201.206 221.298 201.192C221.39 201.178 221.481 201.248 221.495 201.34L221.594 202.03C221.608 202.128 221.545 202.213 221.446 202.227C221.439 202.234 221.432 202.234 221.425 202.234ZM221.228 200.847C221.143 200.847 221.066 200.784 221.052 200.699L220.953 200.002C220.939 199.903 221.01 199.819 221.101 199.805C221.207 199.798 221.284 199.861 221.298 199.953L221.397 200.65C221.411 200.748 221.341 200.833 221.249 200.847C221.242 200.847 221.235 200.847 221.228 200.847ZM221.031 199.46C220.946 199.46 220.869 199.397 220.855 199.305L220.756 198.608C220.742 198.509 220.812 198.425 220.904 198.411C221.01 198.404 221.087 198.467 221.101 198.559L221.2 199.256C221.214 199.354 221.143 199.439 221.052 199.453C221.045 199.46 221.038 199.46 221.031 199.46ZM220.834 198.066C220.749 198.066 220.672 198.002 220.657 197.911L220.566 197.214C220.552 197.115 220.622 197.031 220.714 197.017C220.812 197.01 220.897 197.073 220.911 197.165L221.002 197.862C221.017 197.96 220.946 198.045 220.855 198.059C220.855 198.066 220.848 198.066 220.834 198.066ZM220.65 196.679C220.566 196.679 220.489 196.615 220.474 196.524L220.383 195.827C220.369 195.728 220.439 195.644 220.531 195.63C220.636 195.623 220.714 195.686 220.728 195.777L220.82 196.474C220.834 196.573 220.763 196.658 220.672 196.672C220.665 196.679 220.657 196.679 220.65 196.679ZM220.46 195.285C220.376 195.285 220.298 195.221 220.284 195.13L220.193 194.433C220.179 194.334 220.249 194.25 220.348 194.235C220.439 194.221 220.531 194.292 220.545 194.39L220.636 195.087C220.651 195.186 220.58 195.27 220.489 195.285C220.481 195.285 220.474 195.285 220.46 195.285ZM220.284 193.897C220.2 193.897 220.122 193.834 220.108 193.743L220.017 193.045C220.003 192.947 220.073 192.862 220.172 192.848C220.27 192.834 220.355 192.905 220.369 193.003L220.46 193.7C220.474 193.799 220.404 193.883 220.305 193.897C220.298 193.897 220.291 193.897 220.284 193.897ZM220.108 192.503C220.024 192.503 219.946 192.44 219.932 192.348L219.848 191.651C219.834 191.553 219.904 191.468 220.003 191.454C220.108 191.44 220.186 191.511 220.2 191.609L220.284 192.306C220.298 192.405 220.228 192.489 220.129 192.503C220.122 192.503 220.115 192.503 220.108 192.503ZM219.932 191.109C219.848 191.109 219.77 191.046 219.756 190.954L219.672 190.257C219.658 190.159 219.728 190.074 219.827 190.06C219.932 190.053 220.01 190.116 220.024 190.215L220.108 190.912C220.122 191.011 220.052 191.095 219.953 191.109C219.946 191.109 219.939 191.109 219.932 191.109ZM219.763 189.715C219.679 189.715 219.601 189.652 219.587 189.56L219.503 188.863C219.489 188.764 219.559 188.68 219.658 188.666C219.756 188.652 219.841 188.722 219.855 188.821L219.939 189.518C219.953 189.616 219.883 189.701 219.784 189.715C219.777 189.715 219.77 189.715 219.763 189.715ZM219.594 188.328C219.51 188.328 219.432 188.265 219.418 188.173L219.334 187.476C219.32 187.377 219.39 187.293 219.489 187.279C219.58 187.265 219.672 187.335 219.686 187.434L219.77 188.131C219.784 188.229 219.714 188.314 219.615 188.328C219.608 188.328 219.601 188.328 219.594 188.328ZM219.432 186.934C219.341 186.934 219.27 186.87 219.256 186.779L219.179 186.082C219.165 185.983 219.235 185.899 219.334 185.885C219.439 185.878 219.517 185.941 219.531 186.04L219.608 186.737C219.622 186.835 219.552 186.92 219.453 186.934C219.446 186.934 219.439 186.934 219.432 186.934ZM219.27 185.54C219.179 185.54 219.108 185.476 219.094 185.385L219.017 184.688C219.003 184.589 219.073 184.505 219.172 184.491C219.277 184.476 219.355 184.547 219.369 184.645L219.446 185.343C219.461 185.441 219.39 185.526 219.292 185.54C219.285 185.54 219.277 185.54 219.27 185.54ZM219.116 184.146C219.024 184.146 218.954 184.082 218.94 183.991L218.862 183.294C218.848 183.195 218.918 183.11 219.017 183.096C219.123 183.089 219.2 183.153 219.214 183.251L219.292 183.948C219.306 184.047 219.235 184.131 219.137 184.146C219.13 184.146 219.123 184.146 219.116 184.146ZM218.961 182.751C218.869 182.751 218.799 182.688 218.785 182.597L218.707 181.899C218.7 181.801 218.763 181.716 218.862 181.709C218.961 181.702 219.045 181.766 219.059 181.864L219.137 182.561C219.151 182.66 219.08 182.744 218.982 182.758C218.975 182.751 218.968 182.751 218.961 182.751ZM218.813 181.357C218.721 181.357 218.651 181.294 218.637 181.202L218.559 180.505C218.552 180.407 218.623 180.322 218.714 180.315C218.813 180.308 218.897 180.379 218.904 180.47L218.975 181.167C218.989 181.266 218.918 181.35 218.82 181.364C218.827 181.35 218.82 181.357 218.813 181.357ZM218.665 179.956C218.573 179.956 218.496 179.886 218.489 179.801L218.418 179.104C218.411 179.006 218.482 178.921 218.573 178.914C218.679 178.9 218.756 178.977 218.763 179.069L218.834 179.766C218.841 179.865 218.771 179.949 218.679 179.956C218.679 179.956 218.672 179.956 218.665 179.956ZM218.524 178.562C218.433 178.562 218.355 178.492 218.348 178.4L218.278 177.703C218.271 177.604 218.341 177.52 218.433 177.513C218.538 177.506 218.616 177.576 218.623 177.668L218.693 178.365C218.7 178.463 218.63 178.548 218.538 178.555C218.538 178.562 218.531 178.562 218.524 178.562ZM218.39 177.168C218.299 177.168 218.221 177.097 218.214 177.006L218.144 176.309C218.137 176.21 218.207 176.126 218.299 176.119C218.404 176.112 218.482 176.182 218.489 176.274L218.559 176.971C218.566 177.069 218.496 177.154 218.404 177.161C218.397 177.168 218.39 177.168 218.39 177.168ZM218.257 175.767C218.165 175.767 218.088 175.696 218.081 175.605L218.017 174.908C218.01 174.809 218.081 174.725 218.179 174.718C218.271 174.71 218.362 174.781 218.369 174.879L218.433 175.577C218.44 175.675 218.369 175.76 218.271 175.767C218.264 175.767 218.257 175.767 218.257 175.767Z" fill="white"/>
<path d="M235.803 270.491C235.726 270.491 235.655 270.442 235.634 270.364L235.542 270.026C235.514 269.935 235.571 269.836 235.662 269.808C235.754 269.78 235.852 269.836 235.88 269.928L235.972 270.266C236 270.357 235.944 270.456 235.852 270.484C235.831 270.491 235.817 270.491 235.803 270.491Z" fill="white"/>
</g>
<path d="M227.233 168.452L227.296 172.789C227.627 174.929 227.402 177.119 226.634 179.147C226.43 179.682 226.395 180.267 226.529 180.823C226.747 181.731 227.057 183.175 227.057 184.139C227.057 184.139 227.571 184.336 227.803 183.71L228.275 185.012C228.388 185.322 228.711 185.505 229.035 185.442L229.324 185.385C229.634 185.322 229.859 185.047 229.859 184.731V184.491L230.148 184.857C230.296 185.047 230.528 185.139 230.767 185.104L231.232 185.033C231.563 184.984 231.802 184.702 231.802 184.372V183.977L231.964 184.224C232.133 184.491 232.471 184.597 232.767 184.484L233.239 184.301C233.499 184.203 233.668 183.956 233.668 183.674V183.442L233.781 183.541C233.999 183.731 234.309 183.766 234.555 183.618C234.774 183.491 234.901 183.259 234.886 183.013C234.851 182.097 234.633 179.717 233.457 176.873C233.246 176.359 233.105 175.824 233.049 175.267L232.507 169.571L227.233 168.452Z" fill="#9C7B45"/>
<path opacity="0.2" d="M226.966 182.949C227.029 183.371 227.071 183.787 227.071 184.132C227.071 184.132 227.177 184.174 227.311 184.16C227.473 183.843 227.536 183.477 227.494 183.125C227.346 183.005 227.156 182.949 226.966 182.949Z" fill="white"/>
<path opacity="0.2" d="M228.732 182.956C229.211 182.872 229.69 182.801 230.155 182.724C230.626 182.646 231.091 182.562 231.563 182.463C232.028 182.372 232.492 182.266 232.957 182.16C233.422 182.055 233.886 181.935 234.365 181.829C233.95 182.083 233.506 182.287 233.049 182.456C232.591 182.625 232.119 182.752 231.64 182.85C231.162 182.942 230.676 183.005 230.19 183.026C229.704 183.055 229.218 183.033 228.732 182.956Z" fill="white"/>
<path opacity="0.1" d="M172.49 147.103C177.377 144.969 182.27 142.829 187.157 140.695C182.869 144.49 178.194 146.645 172.49 147.103Z" fill="white"/>
<path opacity="0.2" d="M210.807 133.689C208.991 134.978 206.731 135.619 204.513 135.485C202.295 135.351 200.126 134.436 198.479 132.943C199.387 135.281 201.915 137.14 204.407 137.421C206.9 137.71 209.385 135.767 210.807 133.689Z" fill="black"/>
<path opacity="0.1" d="M226.784 150.278C226.27 155.601 226.805 161.023 228.347 166.141C228.453 161.093 227.946 155.207 226.784 150.278Z" fill="white"/>
<path d="M218.883 101.469C217.722 102.187 216.123 102.095 215.046 101.257C213.976 100.42 213.046 99.0184 213.455 97.7158C212.391 98.2862 210.997 97.8707 210.152 97.0047C209.307 96.1386 208.836 94.9416 208.638 93.7447C207.258 93.5898 206.273 92.4209 206.083 91.0479C205.533 91.3859 204.822 91.4281 204.238 91.1676C203.653 90.9071 203.21 90.2171 203.097 89.5904C202.351 91.3859 200.731 92.7871 198.851 93.2729C198.647 90.717 199.753 87.8231 201.499 85.9431C202.9 84.4363 204.794 83.4224 206.801 82.9859C208.807 82.5493 210.92 82.669 212.898 83.2323C214.419 83.6618 215.884 84.373 217.01 85.4784C218.031 86.4853 218.728 87.7809 219.263 89.1187C220.834 93.0546 220.883 97.7299 218.883 101.469Z" fill="#5C4829"/>
<path d="M200.851 97.3922C201.128 97.3922 201.351 96.8437 201.351 96.167C201.351 95.4904 201.128 94.9419 200.851 94.9419C200.575 94.9419 200.352 95.4904 200.352 96.167C200.352 96.8437 200.575 97.3922 200.851 97.3922Z" fill="#5C4829"/>
<path d="M206.794 97.3922C207.07 97.3922 207.294 96.8437 207.294 96.167C207.294 95.4904 207.07 94.9419 206.794 94.9419C206.518 94.9419 206.294 95.4904 206.294 96.167C206.294 96.8437 206.518 97.3922 206.794 97.3922Z" fill="#5C4829"/>
<path d="M202.195 93.7456C201.716 93.2809 201.054 93.0063 200.385 92.9993C199.716 92.9922 199.054 93.2457 198.562 93.7034C198.576 93.9146 198.794 93.9358 198.998 93.9428C199.209 93.9498 199.407 93.8583 199.604 93.802C200.068 93.6682 200.568 93.7034 201.012 93.9005C201.195 93.978 201.364 94.0836 201.561 94.0977C201.765 94.1118 202.181 93.9428 202.195 93.7456Z" fill="#5C4829"/>
<path d="M205.477 93.2027C205.955 92.738 206.617 92.4634 207.286 92.4563C207.955 92.4493 208.617 92.7028 209.11 93.1604C209.096 93.3717 208.877 93.3928 208.673 93.3998C208.462 93.4069 208.265 93.3153 208.068 93.259C207.603 93.1252 207.103 93.1604 206.659 93.3576C206.483 93.435 206.307 93.5406 206.11 93.5547C205.913 93.5618 205.491 93.3998 205.477 93.2027Z" fill="#5C4829"/>
<g opacity="0.2">
<path d="M201.062 100.505C201.379 100.66 201.717 100.702 202.019 100.737C202.026 100.737 202.041 100.737 202.048 100.737C202.181 100.737 202.294 100.639 202.308 100.505C202.322 100.357 202.224 100.23 202.076 100.216C201.801 100.188 201.519 100.153 201.294 100.04C201.083 99.9346 200.935 99.7515 200.921 99.5755C200.9 99.3079 201.153 99.0544 201.428 98.7658C202.322 97.8363 202.935 96.6323 203.167 95.3649C203.195 95.2241 203.097 95.0833 202.956 95.0551C202.808 95.0269 202.674 95.1255 202.646 95.2663C202.435 96.4352 201.865 97.5406 201.013 98.4348C200.724 98.7376 200.358 99.1108 200.393 99.6107C200.421 99.9698 200.675 100.315 201.062 100.505Z" fill="black"/>
<path d="M205.384 101.11C205.314 100.983 205.152 100.941 205.025 101.012C203.814 101.695 202.272 101.765 201.005 101.202C200.871 101.145 200.716 101.202 200.653 101.335C200.596 101.469 200.653 101.624 200.786 101.68C201.42 101.962 202.117 102.103 202.807 102.103C203.666 102.103 204.525 101.892 205.271 101.469C205.405 101.399 205.455 101.244 205.384 101.11Z" fill="black"/>
</g>
<path d="M211.151 98.9625C211.151 99.554 209.75 100.04 208.018 100.04C206.286 100.04 204.885 99.561 204.885 98.9625C204.885 98.364 206.286 97.8853 208.018 97.8853C209.75 97.8853 211.151 98.3711 211.151 98.9625Z" fill="#9C6C45"/>
<path d="M208.258 277.334H194.683C193.599 277.334 192.719 276.454 192.719 275.37C192.719 274.285 193.599 273.405 194.683 273.405H208.258C209.343 273.405 210.223 274.285 210.223 275.37C210.223 276.454 209.343 277.334 208.258 277.334Z" fill="#0F1F18"/>
<path d="M242.485 276.433H228.91C227.825 276.433 226.945 275.553 226.945 274.469C226.945 273.385 227.825 272.504 228.91 272.504H242.485C243.569 272.504 244.449 273.385 244.449 274.469C244.442 275.553 243.562 276.433 242.485 276.433Z" fill="#0F1F18"/>
<path d="M242.485 276.433H228.91C227.825 276.433 226.945 275.553 226.945 274.469C226.945 273.385 227.825 272.504 228.91 272.504H242.485C243.569 272.504 244.449 273.385 244.449 274.469C244.442 275.553 243.562 276.433 242.485 276.433Z" fill="#0F1F18"/>
<path d="M170.765 44H120.823C115.887 44 112.24 47.9993 112.669 52.9351L114.535 74.2907C114.965 79.2266 119.316 83.2259 124.252 83.2259H158.64L167.956 91.7949L170.561 83.2259H174.194C179.13 83.2259 182.777 79.2266 182.348 74.2907L180.482 52.9351C180.052 48.0064 175.701 44 170.765 44Z" fill="#28543F"/>
<path d="M170.815 57.195H123.823C122.45 57.195 121.239 56.0825 121.119 54.7095C120.999 53.3365 122.013 52.224 123.386 52.224H170.378C171.751 52.224 172.963 53.3365 173.082 54.7095C173.202 56.0825 172.188 57.195 170.815 57.195Z" fill="#477760"/>
<path d="M171.596 66.1019H124.604C123.231 66.1019 122.02 64.9894 121.9 63.6164C121.781 62.2434 122.795 61.1309 124.168 61.1309H171.16C172.533 61.1309 173.744 62.2434 173.863 63.6164C173.983 64.9894 172.969 66.1019 171.596 66.1019Z" fill="#477760"/>
<path d="M155.803 75.0096H125.385C124.012 75.0096 122.801 73.8971 122.681 72.5241C122.562 71.1511 123.576 70.0386 124.949 70.0386H155.366C156.739 70.0386 157.95 71.1511 158.07 72.5241C158.19 73.8971 157.176 75.0096 155.803 75.0096Z" fill="#477760"/>
<path d="M272.156 267.027C269.382 246.981 267.537 226.808 266.629 206.593C265.946 191.314 265.897 175.458 272.093 161.474C282.915 189.589 288.351 219.901 289.083 250.016C289.252 257.099 283.14 264.471 277.634 268.942C276.029 268.14 273.762 267.837 272.156 267.027Z" fill="#224334"/>
<path d="M272.727 261.366C269.72 253.713 266.707 246.059 263.7 238.405C261.271 232.223 258.793 225.745 259.44 219.134C271.903 224.464 280.845 237.201 281.62 250.734C281.768 253.276 280.317 256.445 278.515 258.254C276.712 260.057 275.001 260.211 272.727 261.366Z" fill="#28543F"/>
<path d="M275.86 277.933C278.501 254.473 281.141 231.019 283.782 207.558C285.239 194.588 286.894 181.069 294.125 170.212C301.377 159.312 313.974 151.419 319.304 140.034C319.825 138.921 321.494 139.28 321.522 140.513C321.705 150.504 322.191 160.742 322.184 170.571C322.177 177.091 322.085 183.935 318.888 189.617C315.614 195.426 309.566 199.151 305.686 204.572C298.258 214.972 300.18 229.068 298.138 241.679C295.913 255.423 286.711 269.21 275.86 277.933Z" fill="#28543F"/>
<path opacity="0.2" d="M304.75 184.061C305.764 181.935 306.785 179.795 307.791 177.64C307.869 177.619 307.946 177.584 308.017 177.534C312.241 174.38 316.41 171.028 320.409 167.585C320.705 167.332 320.74 166.888 320.486 166.592C320.233 166.297 319.789 166.262 319.494 166.522C316.1 169.444 312.579 172.289 309.01 175.014C312.122 168.142 314.945 161.065 316.642 153.679C316.727 153.299 316.494 152.926 316.114 152.834C315.734 152.75 315.354 152.982 315.269 153.362C312.847 163.868 308.087 173.824 303.489 183.456C302.799 184.899 302.102 186.35 301.412 187.821C301.06 182.048 300.462 176.253 299.589 170.55C299.532 170.162 299.18 169.902 298.786 169.958C298.399 170.014 298.138 170.374 298.194 170.761C299.18 177.218 299.835 183.801 300.145 190.335C300.145 190.377 300.166 190.413 300.173 190.455C298.638 193.771 297.145 197.137 295.814 200.523C294.399 204.129 293.16 207.783 292.04 211.472L289.872 195.116C289.823 194.729 289.471 194.461 289.083 194.51C288.696 194.56 288.428 194.919 288.478 195.299L290.977 214.134C290.998 214.282 291.069 214.401 291.16 214.507C289.168 221.612 287.647 228.843 286.429 236.116C285.844 232.032 285.394 227.913 285.091 223.822C285.063 223.435 284.732 223.139 284.338 223.175C283.95 223.203 283.662 223.541 283.69 223.928C284.07 229.131 284.69 234.391 285.527 239.559C285.556 239.749 285.661 239.897 285.802 240.003C284.302 249.748 283.26 259.549 282.246 269.209C282.204 269.597 282.486 269.942 282.873 269.984C282.901 269.984 282.922 269.991 282.95 269.991C283.31 269.991 283.612 269.723 283.648 269.357C284.316 263.006 284.999 256.599 285.809 250.184C289.499 245.981 292.695 241.348 295.308 236.398C295.491 236.053 295.357 235.63 295.012 235.447C294.667 235.264 294.244 235.398 294.061 235.743C291.836 239.961 289.175 243.953 286.14 247.628C287.006 241.101 288.034 234.574 289.351 228.118C289.4 228.089 289.449 228.061 289.492 228.019C293.343 223.998 296.906 219.647 300.088 215.084C300.314 214.768 300.229 214.324 299.912 214.106C299.589 213.88 299.152 213.965 298.934 214.282C296.195 218.218 293.146 221.971 289.9 225.505C291.498 218.126 293.512 210.853 296.124 203.748C296.16 203.734 296.195 203.72 296.223 203.699C302.56 199.439 308.587 194.63 314.15 189.399C314.431 189.131 314.445 188.687 314.178 188.406C313.91 188.124 313.467 188.11 313.185 188.378C308.129 193.123 302.68 197.524 296.969 201.474C297.026 201.326 297.075 201.178 297.131 201.038C299.384 195.285 302.116 189.582 304.75 184.061Z" fill="black"/>
<path d="M295.864 292.671H268.643L262.722 254.543H301.786L295.864 292.671Z" fill="#EFF0FC"/>
<path d="M305.038 249.868H258.215V259.874H305.038V249.868Z" fill="#EFF0FC"/>
<path opacity="0.1" d="M299.568 268.808L300.955 259.873H263.553L263.736 261.063L299.568 268.808Z" fill="black"/>
<path d="M248.365 98.3292C248.365 99.4135 247.484 100.294 246.4 100.294C245.316 100.294 244.436 99.4135 244.436 98.3292C244.436 97.2449 245.316 96.3647 246.4 96.3647C247.484 96.3647 248.365 97.2449 248.365 98.3292Z" fill="#9CB79B"/>
<path d="M226.171 62.8976C227.746 62.8976 229.023 61.6209 229.023 60.046C229.023 58.4711 227.746 57.1943 226.171 57.1943C224.596 57.1943 223.319 58.4711 223.319 60.046C223.319 61.6209 224.596 62.8976 226.171 62.8976Z" fill="#9CB79B"/>
<path d="M277.705 121.712C277.705 122.219 277.29 122.634 276.783 122.634C276.276 122.634 275.86 122.219 275.86 121.712C275.86 121.205 276.276 120.789 276.783 120.789C277.29 120.789 277.705 121.198 277.705 121.712Z" fill="#9CB79B"/>
<path d="M174.906 111.573C175.478 111.573 175.941 111.11 175.941 110.538C175.941 109.966 175.478 109.503 174.906 109.503C174.334 109.503 173.871 109.966 173.871 110.538C173.871 111.11 174.334 111.573 174.906 111.573Z" fill="#9CB79B"/>
<path d="M64.3804 76.044C65.3526 76.044 66.1407 75.2559 66.1407 74.2837C66.1407 73.3115 65.3526 72.5234 64.3804 72.5234C63.4082 72.5234 62.6201 73.3115 62.6201 74.2837C62.6201 75.2559 63.4082 76.044 64.3804 76.044Z" fill="#9CB79B"/>
<path d="M277.62 93.5484C277.62 94.52 276.832 95.3086 275.86 95.3086C274.888 95.3086 274.1 94.52 274.1 93.5484C274.1 92.5767 274.888 91.7881 275.86 91.7881C276.832 91.7881 277.62 92.5767 277.62 93.5484Z" fill="#9CB79B"/>
<path d="M250.858 70.0305C251.189 71.2416 252.132 72.1921 253.35 72.5231C252.139 72.854 251.189 73.7975 250.858 75.0156C250.527 73.8045 249.583 72.854 248.365 72.5231C249.576 72.1921 250.527 71.2486 250.858 70.0305Z" fill="#9CB79B"/>
<path d="M82.7035 49.731C83.0344 50.942 83.9779 51.8926 85.196 52.2235C83.9849 52.5544 83.0344 53.4979 82.7035 54.716C82.3726 53.505 81.429 52.5544 80.2109 52.2235C81.422 51.8926 82.3726 50.942 82.7035 49.731Z" fill="#9CB79B"/>
<path d="M204.238 49.731C204.569 50.942 205.512 51.8926 206.73 52.2235C205.519 52.5544 204.569 53.4979 204.238 54.716C203.907 53.505 202.963 52.5544 201.745 52.2235C202.963 51.8926 203.907 50.942 204.238 49.731Z" fill="#9CB79B"/>
<path d="M99.9866 80.2257C100.318 81.4368 101.261 82.3873 102.479 82.7182C101.268 83.0492 100.318 83.9927 99.9866 85.2108C99.6557 83.9997 98.7122 83.0492 97.4941 82.7182C98.7122 82.3873 99.6557 81.4438 99.9866 80.2257Z" fill="#9CB79B"/>
<path d="M301.786 89.9639C302.116 91.1749 303.06 92.1255 304.278 92.4564C303.067 92.7873 302.116 93.7308 301.786 94.9489C301.455 93.7379 300.511 92.7873 299.293 92.4564C300.511 92.1255 301.455 91.1749 301.786 89.9639Z" fill="#9CB79B"/>
<path d="M301.786 136.878C302.116 138.089 303.06 139.04 304.278 139.371C303.067 139.702 302.116 140.645 301.786 141.864C301.455 140.652 300.511 139.702 299.293 139.371C300.511 139.033 301.455 138.089 301.786 136.878Z" fill="#9CB79B"/>
<path d="M281.626 150.328C281.957 151.539 282.901 152.489 284.119 152.82C282.908 153.151 281.957 154.095 281.626 155.313C281.295 154.102 280.352 153.151 279.134 152.82C280.345 152.489 281.295 151.539 281.626 150.328Z" fill="#9CB79B"/>
<path d="M339.315 296.24H29.7814C28.7956 296.24 28 295.444 28 294.459C28 293.473 28.7956 292.677 29.7814 292.677H339.315C340.3 292.677 341.096 293.473 341.096 294.459C341.103 295.444 340.3 296.24 339.315 296.24Z" fill="#224334"/>
</svg>
