<svg width="370" height="340" viewBox="0 0 370 340" fill="none" xmlns="http://www.w3.org/2000/svg">
<g clip-path="url(#clip0_2098_24789)">
<rect width="370" height="340" rx="20" fill="#F2F8F3"/>
<rect width="370" height="340" rx="20" fill="#F2F8F3"/>
<g clip-path="url(#clip1_2098_24789)">
<path opacity="0.68" d="M183.143 73.0727C187.783 68.4328 187.783 60.91 183.143 56.2701C178.504 51.6301 170.981 51.6301 166.341 56.2701C161.701 60.91 161.701 68.4328 166.341 73.0727C170.981 77.7126 178.504 77.7126 183.143 73.0727Z" fill="#E2E8E6"/>
<path d="M134.688 260.606L134.433 268.606L138.945 273.016L145.585 275.374L144.687 268.606C144.687 268.606 142.123 265.53 142.686 258.812C143.251 252.095 134.688 260.606 134.688 260.606Z" fill="#F6CAAD"/>
<path d="M73.5857 238.913L67.0611 243.55L66.2803 249.81L68.4206 256.524L73.2661 251.715C73.2661 251.715 74.1643 247.813 79.8546 244.197C85.5448 240.582 73.5857 238.913 73.5857 238.913Z" fill="#F6CAAD"/>
<path opacity="0.68" d="M109.202 238.913C130.269 238.913 147.348 221.835 147.348 200.768C147.348 179.7 130.269 162.622 109.202 162.622C88.135 162.622 71.0566 179.7 71.0566 200.768C71.0566 221.835 88.135 238.913 109.202 238.913Z" fill="#E2E8E6"/>
<path d="M112.597 251.779H112.587C111.746 251.779 110.906 251.698 110.089 251.537L110.169 251.135C110.96 251.29 111.773 251.37 112.587 251.37L112.597 251.779ZM115.107 251.532L115.028 251.13C115.826 250.971 116.612 250.732 117.363 250.42L117.521 250.798C116.743 251.121 115.931 251.368 115.107 251.532ZM107.676 250.808C106.9 250.487 106.152 250.088 105.453 249.62L105.681 249.278C106.358 249.73 107.083 250.117 107.833 250.428L107.676 250.808ZM119.74 249.608L119.512 249.267C120.188 248.815 120.822 248.293 121.397 247.718L121.687 248.008C121.093 248.601 120.438 249.14 119.74 249.608ZM103.502 248.022C102.906 247.428 102.367 246.773 101.899 246.077L102.24 245.849C102.694 246.524 103.216 247.158 103.791 247.733L103.502 248.022ZM123.289 246.058L122.948 245.83C123.401 245.153 123.789 244.429 124.1 243.677L124.479 243.835C124.156 244.61 123.757 245.358 123.289 246.058ZM100.706 243.855C100.383 243.08 100.136 242.268 99.9714 241.444L100.374 241.364C100.533 242.162 100.773 242.948 101.086 243.698L100.706 243.855ZM125.208 241.421L124.805 241.342C124.962 240.547 125.042 239.73 125.042 238.913V238.87H125.451V238.911C125.453 239.758 125.37 240.601 125.208 241.421ZM100.132 238.935H99.7227V238.913C99.7227 238.077 99.8038 237.241 99.9628 236.425L100.365 236.505C100.212 237.293 100.132 238.103 100.132 238.913V238.935ZM124.797 236.443C124.636 235.645 124.396 234.86 124.081 234.109L124.46 233.95C124.784 234.726 125.033 235.536 125.199 236.36L124.797 236.443ZM101.068 234.168L100.69 234.012C101.01 233.237 101.409 232.487 101.875 231.787L102.217 232.015C101.765 232.692 101.378 233.418 101.068 234.168ZM122.922 231.962C122.468 231.288 121.945 230.654 121.368 230.081L121.656 229.79C122.252 230.383 122.793 231.038 123.263 231.734L122.922 231.962ZM103.761 230.125L103.471 229.835C104.065 229.239 104.718 228.7 105.416 228.23L105.646 228.571C104.969 229.025 104.337 229.549 103.761 230.125ZM119.478 228.536C118.799 228.085 118.075 227.7 117.324 227.389L117.479 227.009C118.256 227.329 119.004 227.726 119.706 228.192L119.478 228.536ZM107.793 227.415L107.636 227.037C108.412 226.714 109.222 226.465 110.048 226.301L110.129 226.703C109.329 226.861 108.543 227.101 107.793 227.415ZM114.985 226.688C114.2 226.536 113.394 226.458 112.587 226.458H112.554V226.049H112.587C113.42 226.049 114.252 226.128 115.062 226.287L114.985 226.688Z" fill="#70A794"/>
<path d="M230.911 57.1543C225.079 57.1543 220.334 52.409 220.334 46.5772C220.334 40.7453 225.079 36 230.911 36C236.743 36 241.488 40.7453 241.488 46.5772C241.488 52.409 236.743 57.1543 230.911 57.1543ZM230.911 36.4094C225.306 36.4094 220.745 40.9699 220.745 46.5754C220.745 52.181 225.306 56.7415 230.911 56.7415C236.517 56.7415 241.077 52.181 241.077 46.5754C241.079 40.9716 236.517 36.4094 230.911 36.4094Z" fill="#70A794"/>
<path d="M231.385 51.801V53.4732H230.583V51.8632C229.49 51.8632 228.6 51.6421 227.918 51.1999V49.8594C228.215 50.1219 228.623 50.3413 229.139 50.5175C229.656 50.6955 230.138 50.7836 230.583 50.7836V46.8381C229.454 46.2939 228.721 45.7912 228.388 45.3317C228.054 44.8722 227.887 44.3281 227.887 43.701C227.887 42.9565 228.141 42.3121 228.65 41.7715C229.158 41.229 229.804 40.9043 230.585 40.7972V39.41H231.387V40.7661C232.394 40.7972 233.09 40.9406 233.475 41.1979V42.5073C232.952 42.0962 232.255 41.8751 231.387 41.844V45.9122C232.456 46.42 233.187 46.9123 233.579 47.3874C233.973 47.8624 234.168 48.4031 234.168 49.0095C234.168 49.7384 233.922 50.3517 233.432 50.8475C232.94 51.345 232.257 51.6611 231.385 51.801ZM230.583 45.482V41.8907C230.151 41.9787 229.809 42.1705 229.559 42.4642C229.307 42.7596 229.181 43.1171 229.181 43.5386C229.181 43.9809 229.283 44.3419 229.488 44.6252C229.694 44.9085 230.058 45.1935 230.583 45.482ZM231.385 47.2388V50.7214C232.376 50.5054 232.872 49.9717 232.872 49.1183C232.872 48.41 232.376 47.783 231.385 47.2388Z" fill="#70A794"/>
<path d="M31.362 213.901C26.6944 213.901 22.8975 210.104 22.8975 205.437C22.8975 200.769 26.6944 196.972 31.362 196.972C36.0295 196.972 39.8265 200.769 39.8265 205.437C39.8282 210.103 36.0295 213.901 31.362 213.901ZM31.362 197.382C26.9207 197.382 23.3069 200.996 23.3069 205.437C23.3069 209.878 26.9207 213.492 31.362 213.492C35.8032 213.492 39.4171 209.878 39.4171 205.437C39.4171 200.996 35.8032 197.382 31.362 197.382Z" fill="#70A794"/>
<path d="M31.7387 209.595V210.927H31.1013V209.645C30.2307 209.645 29.5224 209.469 28.9783 209.116V208.049C29.2149 208.258 29.5397 208.432 29.9508 208.574C30.362 208.716 30.7455 208.786 31.1013 208.786V205.644C30.2013 205.211 29.6174 204.81 29.3531 204.445C29.0871 204.079 28.9541 203.647 28.9541 203.148C28.9541 202.555 29.1562 202.042 29.5622 201.611C29.9664 201.179 30.4812 200.92 31.103 200.835V199.731H31.7405V200.811C32.542 200.835 33.0965 200.951 33.404 201.154V202.198C32.986 201.871 32.4332 201.695 31.7405 201.671V204.912C32.5921 205.318 33.1743 205.708 33.4869 206.086C33.7996 206.465 33.9568 206.895 33.9568 207.378C33.9568 207.959 33.7616 208.448 33.3712 208.842C32.9773 209.232 32.4349 209.486 31.7387 209.595ZM31.1013 204.563V201.702C30.7576 201.771 30.4863 201.925 30.286 202.16C30.0856 202.395 29.9854 202.68 29.9854 203.017C29.9854 203.369 30.0666 203.658 30.2307 203.882C30.3931 204.107 30.6833 204.335 31.1013 204.563ZM31.7387 205.962V208.736C32.5282 208.565 32.9238 208.139 32.9238 207.46C32.9238 206.895 32.5282 206.396 31.7387 205.962Z" fill="#70A794"/>
<path opacity="0.68" d="M338.128 220.676H321.669V264.424H338.128V220.676Z" fill="#E2E8E6"/>
<path opacity="0.68" d="M338.128 215.13H321.669V217.652H338.128V215.13Z" fill="#E2E8E6"/>
<path opacity="0.68" d="M313.439 184.863H272.628V264.424H313.439V184.863Z" fill="#E2E8E6"/>
<g opacity="0.72">
<path opacity="0.59" d="M329.794 41.4434H280.95V63.2213H289.009V76.5468L298.055 63.2213H329.794V41.4434Z" fill="#32694F"/>
<g opacity="0.59">
<path d="M322.228 45.9139H288.339V47.2406H322.228V45.9139Z" fill="url(#paint0_linear_2098_24789)"/>
<path d="M322.228 45.9139H288.339V47.2406H322.228V45.9139Z" fill="url(#paint1_linear_2098_24789)"/>
</g>
<g opacity="0.59">
<path d="M322.228 51.4608H288.339V52.7875H322.228V51.4608Z" fill="url(#paint2_linear_2098_24789)"/>
<path d="M322.228 51.4608H288.339V52.7875H322.228V51.4608Z" fill="url(#paint3_linear_2098_24789)"/>
</g>
<g opacity="0.59">
<path d="M310.797 56.7382H288.339V58.0648H310.797V56.7382Z" fill="url(#paint4_linear_2098_24789)"/>
<path d="M310.797 56.7382H288.339V58.0648H310.797V56.7382Z" fill="url(#paint5_linear_2098_24789)"/>
</g>
</g>
<path d="M113.92 176.099C113.92 176.099 114.125 217.532 113.92 221.02C113.714 224.508 81.3074 253.018 81.3074 253.018C81.3074 253.018 73.9225 247.891 70.4365 240.506C70.4365 240.506 96.8958 216.302 96.8958 214.559C96.8958 212.816 93.8193 183.075 94.6398 176.101C95.4603 169.128 104.075 155.795 104.075 155.795L108.587 157.436L113.92 176.099Z" fill="#0F1F18"/>
<path d="M105.306 172.28L113.907 216.303L114.012 191.438L105.306 172.28Z" fill="#224334"/>
<path d="M134.431 268.606C134.431 268.606 133.15 274.452 133.509 277.426H139.355C139.355 277.426 139.714 275.991 141.201 276.504C142.689 277.017 142.637 277.426 147.816 277.426C152.994 277.426 157.712 277.426 157.712 277.426C157.712 277.426 157.918 275.939 156.686 274.709C155.454 273.479 145.713 270.247 144.687 268.608C144.687 268.608 142.687 268.863 142.944 270.301C143.202 271.738 142.944 273.838 141.457 273.018C139.97 272.197 139.097 269.528 134.431 268.606Z" fill="#1B1C17"/>
<path d="M67.0634 243.549C67.0634 243.549 61.6341 246.066 59.4834 248.151L63.0195 252.805C63.0195 252.805 64.3807 252.223 64.8713 253.717C65.3619 255.211 65.0043 255.419 68.1379 259.542C71.2715 263.666 74.1252 267.423 74.1252 267.423C74.1252 267.423 75.4329 266.687 75.6679 264.961C75.9028 263.237 72.5809 253.525 73.2667 251.715C73.2667 251.715 71.8519 250.278 70.8638 251.351C69.8757 252.423 68.0464 253.491 67.8011 251.81C67.5558 250.129 69.1502 247.823 67.0634 243.549Z" fill="#1B1C17"/>
<path opacity="0.68" d="M45.8223 277.426H344.878C344.878 277.426 325.427 291.213 307.377 291.213C289.327 291.213 275.894 280.264 251.691 288.468C227.488 296.672 214.157 307.543 183.699 304.466C155.842 301.652 150.164 291.545 126.739 290.313C102.365 289.033 90.4803 300.773 73.8363 289.391C57.372 278.131 45.8223 277.426 45.8223 277.426Z" fill="#E2E8E6"/>
<path d="M254.705 70.7495H145.584V231.148H254.705V70.7495Z" fill="#224334"/>
<path d="M250.602 74.8521H149.687V227.047H250.602V74.8521Z" fill="url(#paint6_linear_2098_24789)"/>
<path opacity="0.26" d="M241.502 90.3955H189.863V112.547H241.502V90.3955Z" fill="#70AEAB"/>
<path opacity="0.26" d="M241.502 123.14H189.863V145.291H241.502V123.14Z" fill="#70AEAB"/>
<path opacity="0.26" d="M241.502 155.881H189.863V178.032H241.502V155.881Z" fill="#70AEAB"/>
<path opacity="0.26" d="M241.502 188.665H189.863V210.816H241.502V188.665Z" fill="#70AEAB"/>
<path d="M250.602 74.8521H149.687V80.7565H250.602V74.8521Z" fill="#CFDAD6"/>
<path d="M250.602 221.188H149.687V227.092H250.602V221.188Z" fill="#CFDAD6"/>
<path d="M180.28 90.3956H158.129V112.547H180.28V90.3956Z" fill="#CFDAD6"/>
<path d="M237.796 94.621H193.571V97.124H237.796V94.621Z" fill="url(#paint7_linear_2098_24789)"/>
<path d="M237.796 94.621H193.571V97.124H237.796V94.621Z" fill="url(#paint8_linear_2098_24789)"/>
<path d="M237.796 100.22H193.571V102.723H237.796V100.22Z" fill="url(#paint9_linear_2098_24789)"/>
<path d="M237.796 100.22H193.571V102.723H237.796V100.22Z" fill="url(#paint10_linear_2098_24789)"/>
<path d="M217.089 105.758H193.571V108.261H217.089V105.758Z" fill="url(#paint11_linear_2098_24789)"/>
<path d="M217.089 105.758H193.571V108.261H217.089V105.758Z" fill="url(#paint12_linear_2098_24789)"/>
<path d="M238.229 127H194.005V129.503H238.229V127Z" fill="url(#paint13_linear_2098_24789)"/>
<path d="M238.229 127H194.005V129.503H238.229V127Z" fill="url(#paint14_linear_2098_24789)"/>
<path d="M237.796 132.995H193.571V135.498H237.796V132.995Z" fill="url(#paint15_linear_2098_24789)"/>
<path d="M237.796 132.995H193.571V135.498H237.796V132.995Z" fill="url(#paint16_linear_2098_24789)"/>
<path d="M217.522 139H194.005V141.503H217.522V139Z" fill="url(#paint17_linear_2098_24789)"/>
<path d="M217.522 139H194.005V141.503H217.522V139Z" fill="url(#paint18_linear_2098_24789)"/>
<path d="M237.796 159.891H193.571V162.394H237.796V159.891Z" fill="url(#paint19_linear_2098_24789)"/>
<path d="M237.796 159.891H193.571V162.394H237.796V159.891Z" fill="url(#paint20_linear_2098_24789)"/>
<path d="M237.796 165.49H193.571V167.993H237.796V165.49Z" fill="url(#paint21_linear_2098_24789)"/>
<path d="M237.796 165.49H193.571V167.993H237.796V165.49Z" fill="url(#paint22_linear_2098_24789)"/>
<path d="M217.522 171H194.005V173.503H217.522V171Z" fill="url(#paint23_linear_2098_24789)"/>
<path d="M217.522 171H194.005V173.503H217.522V171Z" fill="url(#paint24_linear_2098_24789)"/>
<path d="M237.796 192.666H193.571V195.169H237.796V192.666Z" fill="url(#paint25_linear_2098_24789)"/>
<path d="M237.796 192.666H193.571V195.169H237.796V192.666Z" fill="url(#paint26_linear_2098_24789)"/>
<path d="M237.796 198.264H193.571V200.767H237.796V198.264Z" fill="url(#paint27_linear_2098_24789)"/>
<path d="M237.796 198.264H193.571V200.767H237.796V198.264Z" fill="url(#paint28_linear_2098_24789)"/>
<path d="M217.522 204H194.005V206.503H217.522V204Z" fill="url(#paint29_linear_2098_24789)"/>
<path d="M217.522 204H194.005V206.503H217.522V204Z" fill="url(#paint30_linear_2098_24789)"/>
<path d="M180.28 123.139H158.129V145.29H180.28V123.139Z" fill="#CFDAD6"/>
<path d="M180.28 155.881H158.129V178.033H180.28V155.881Z" fill="#CFDAD6"/>
<path d="M180.28 188.665H158.129V210.816H180.28V188.665Z" fill="#CFDAD6"/>
<path d="M166.456 110.811L159.971 101.653L161.645 100.468L166.418 107.209L176.356 92.5376L178.054 93.6881L166.456 110.811Z" fill="#70AEAB"/>
<path d="M166.456 143.401L159.971 134.245L161.645 133.059L166.418 139.799L176.356 125.128L178.054 126.28L166.456 143.401Z" fill="#70AEAB"/>
<path d="M166.456 176.543L159.971 167.388L161.645 166.201L166.418 172.942L176.356 158.271L178.054 159.421L166.456 176.543Z" fill="#70AEAB"/>
<path d="M166.456 209.135L159.971 199.978L161.645 198.793L166.418 205.532L176.356 190.862L178.054 192.013L166.456 209.135Z" fill="#70AEAB"/>
<path d="M163.974 230.944L153.822 277.758H155.667L174.742 230.944H163.974Z" fill="#224334"/>
<path d="M235.944 230.944L246.098 277.758H244.251L225.177 230.944H235.944Z" fill="#224334"/>
<path d="M163.866 93.9525C163.866 93.9525 168.207 88.0377 170.463 85.7143C172.719 83.3891 174.088 82.9797 174.224 83.6638C174.36 84.3479 170.855 87.9358 170.855 88.4592C170.855 88.9826 173.685 90.4319 173.545 91.8001C173.403 93.1682 169.292 96.3554 169.292 96.3554L163.866 93.9525Z" fill="#F6CAAD"/>
<path d="M108.588 157.435C108.588 157.435 101.203 169.126 108.588 181.638C115.973 194.15 124.382 215.482 124.382 215.482L132.791 262.248C132.791 262.248 142.841 263.274 148.174 259.786C148.174 259.786 143.251 211.789 141.406 207.688C139.559 203.585 124.997 159.896 124.997 159.896C124.997 159.896 111.87 160.102 108.588 157.435Z" fill="#0F1F18"/>
<path d="M142.419 261.518C142.364 261.043 136.877 213.922 135.067 209.997C133.237 206.034 117.215 160.419 117.055 159.958L117.442 159.822C117.604 160.281 133.619 205.879 135.44 209.825C137.278 213.808 142.602 259.527 142.826 261.47L142.419 261.518Z" fill="white"/>
<path d="M75.8176 248.157L75.543 247.851C75.8643 247.563 107.636 219.01 109.047 217.398C110.057 216.244 108.269 195.064 106.82 181.108L107.228 181.064C107.599 184.637 110.807 216.006 109.354 217.666C107.929 219.3 77.1288 246.98 75.8176 248.157Z" fill="white"/>
<path d="M98.4333 103.592C93.5429 105.917 88.6905 104.822 82.1262 112.001C75.5619 119.18 76.4861 128.41 82.1262 133.128C87.7663 137.845 108.484 116 108.484 116L122.022 100.463L127.541 92.2146C127.541 92.2146 131.217 90.6686 128.961 86.2584C126.705 81.8482 111.491 79.5576 106.535 87.3864C101.406 95.4899 103.068 101.389 98.4333 103.592Z" fill="#1B1C17"/>
<path d="M116.843 95.9011C116.843 95.9011 113.253 94.8249 113.099 98.9776C112.946 103.13 117.561 102.927 117.561 102.927C117.561 102.927 119.304 109.747 124.28 109.645C129.253 109.543 128.671 99.7049 127.543 92.2181C127.543 92.2181 124.998 93.8005 120.947 93.3393C116.895 92.8746 116.843 95.9011 116.843 95.9011Z" fill="#F6C5A7"/>
<path d="M123.219 108.413L121.714 118.669C121.714 118.669 114.262 118.805 113.92 119.147C113.578 119.49 117.562 102.927 117.562 102.927L123.219 108.413Z" fill="#F6C5A7"/>
<path d="M109.66 146.462C109.66 146.462 107.917 152.102 105.763 152.409C105.447 152.454 104.841 152.484 104.027 152.489C99.3006 152.529 87.6317 151.779 85.9682 148.716C85.1943 147.293 86.3879 143.535 88.1102 139.514C90.7342 133.394 94.583 126.665 94.583 126.665C94.583 126.665 99.5736 125.815 102.947 126.56C104.262 126.852 105.331 127.384 105.761 128.305C107.3 131.587 104.839 133.33 104.839 133.33C104.839 133.33 104.15 134.297 103.205 135.646C102.41 136.781 101.436 138.182 100.544 139.498C99.1555 141.547 97.9688 143.389 97.9688 143.689C97.9688 144.038 100.734 144.703 103.574 145.294C106.575 145.919 109.66 146.462 109.66 146.462Z" fill="#435B50"/>
<path d="M169.292 96.3536C169.292 96.3536 164.479 111.591 159.352 117.335C154.225 123.079 132.174 132.996 132.174 132.996C132.174 132.996 133.423 136.871 132.72 141.036C132.49 142.395 132.051 143.788 131.293 145.085C131.184 145.271 131.067 145.458 130.944 145.641C127.785 150.336 124.996 159.896 124.996 159.896C122.744 160.388 120.664 160.604 118.764 160.623C109.151 160.725 104.075 155.793 104.075 155.793C104.075 155.793 104.12 154.691 104.029 152.489C103.984 151.4 103.904 150.039 103.768 148.408C103.702 147.633 103.638 146.557 103.574 145.296C103.478 143.335 103.384 140.925 103.3 138.491C103.267 137.538 103.234 136.582 103.205 135.648C103.063 131.191 102.965 127.233 102.949 126.561C102.947 126.496 102.947 126.461 102.947 126.461C102.947 126.461 110.434 117.846 115.459 117.128C116.632 116.962 118.009 116.927 119.455 116.976C119.552 116.979 119.65 116.984 119.748 116.988C124.419 117.176 129.714 118.178 131.253 118.256C133.304 118.358 147.253 113.64 150.124 111.795C152.995 109.95 163.866 93.9507 163.866 93.9507L169.292 96.3536Z" fill="url(#paint31_linear_2098_24789)"/>
<path d="M169.292 96.3536C169.292 96.3536 164.479 111.591 159.352 117.335C154.225 123.079 132.174 132.996 132.174 132.996C132.174 132.996 133.423 136.871 132.72 141.036C132.49 142.395 132.051 143.788 131.293 145.085C131.184 145.271 131.067 145.458 130.944 145.641C127.785 150.336 124.996 159.896 124.996 159.896C122.744 160.388 120.664 160.604 118.764 160.623C109.151 160.725 104.075 155.793 104.075 155.793C104.075 155.793 104.12 154.691 104.029 152.489C103.984 151.4 103.904 150.039 103.768 148.408C103.702 147.633 103.638 146.557 103.574 145.296C103.478 143.335 103.384 140.925 103.3 138.491C103.267 137.538 103.234 136.582 103.205 135.648C103.063 131.191 102.965 127.233 102.949 126.561C102.947 126.496 102.947 126.461 102.947 126.461C102.947 126.461 110.434 117.846 115.459 117.128C116.632 116.962 118.009 116.927 119.455 116.976C119.552 116.979 119.65 116.984 119.748 116.988C124.419 117.176 129.714 118.178 131.253 118.256C133.304 118.358 147.253 113.64 150.124 111.795C152.995 109.95 163.866 93.9507 163.866 93.9507L169.292 96.3536Z" fill="url(#paint32_linear_2098_24789)"/>
<path d="M116.587 133.651C112.027 137.636 109.942 136.475 103.3 138.491C103.267 137.538 103.234 136.582 103.205 135.648C102.41 136.783 101.436 138.184 100.545 139.5C100.334 139.588 100.116 139.685 99.8967 139.783C94.6315 142.159 90.6169 140.991 88.1104 139.514C90.7343 133.394 94.5831 126.665 94.5831 126.665C94.5831 126.665 99.5737 125.815 102.947 126.56C102.946 126.494 102.946 126.46 102.946 126.46C102.946 126.46 110.432 117.845 115.458 117.126C116.631 116.96 118.007 116.926 119.453 116.974C120.355 122.78 120.619 130.127 116.587 133.651Z" fill="#28543F"/>
<path d="M82.1279 133.129C84.897 136.719 93.9903 137.026 97.2379 135.693C100.486 134.359 101.899 131.697 103.091 131.797C104.281 131.898 111.767 134.052 115.972 128.104C120.177 122.156 117.053 118.669 118.563 114.053C120.073 109.437 117.561 102.925 117.561 102.925L103.46 111.899L82.1279 133.129Z" fill="#1B1C17"/>
<path d="M78.2203 113.704L77.8281 113.581C77.8523 113.505 80.307 106.031 90.1897 104.108C99.1949 102.358 100.352 98.8963 101.693 94.8887C101.803 94.557 101.916 94.2219 102.033 93.8833C103.161 90.6512 106.645 86.1633 109.843 84.8885C110.935 84.4531 111.89 84.4393 112.679 84.847L112.491 85.2115C111.812 84.8608 110.971 84.8798 109.995 85.2702C106.899 86.5036 103.519 90.8706 102.42 94.0198C102.303 94.3549 102.192 94.6883 102.082 95.0199C100.758 98.9775 99.5076 102.716 90.2675 104.512C80.6352 106.383 78.2427 113.631 78.2203 113.704Z" fill="#1B1C17"/>
<path d="M131.294 145.085C131.185 145.272 131.068 145.458 130.945 145.641C127.785 150.336 124.997 159.896 124.997 159.896C122.745 160.388 120.665 160.604 118.765 160.623C118.647 160.394 118.578 160.15 118.561 159.889C118.329 156.331 127.614 150.19 131.294 145.085Z" fill="#28543F"/>
<path d="M132.72 141.036C131.725 135.61 127.251 138.462 127.456 136.923C127.662 135.384 132.174 132.995 132.174 132.995C132.174 132.995 133.424 136.869 132.72 141.036Z" fill="#28543F"/>
<path d="M119.525 106.361C119.525 106.361 119.156 110.626 122.554 112.937L123.217 109.555C123.219 109.555 120.621 108.276 119.525 106.361Z" fill="#F0B48D"/>
<path d="M256.474 82.5686C255.675 85.0855 257.077 90.7584 261.601 91.7984C266.127 92.8383 269.807 102.327 269.807 102.327L276.399 108.002C276.399 108.002 280.647 107.25 281.483 103.011C282.319 98.7721 287.447 95.0114 286.627 90.0208C285.806 85.0302 280.952 86.4657 280.952 86.4657C280.952 86.4657 260.644 69.4417 256.474 82.5686Z" fill="#1B1C17"/>
<path d="M260.472 270.508H254.552V254.116H262.03L260.472 270.508Z" fill="#F6CAAD"/>
<path d="M261.24 277.426H248.754C248.754 277.426 249.533 274.965 251.777 272.907C253.112 271.684 254.551 270.508 254.551 270.508H260.473L261.24 277.426Z" fill="#1B1C17"/>
<path d="M292.765 270.508C292.765 270.508 291.144 274.809 291.768 277.426H296.505C296.505 277.426 297.128 275.182 298.748 275.93C300.369 276.678 300.744 277.426 306.353 277.426C311.962 277.426 313.333 277.426 313.333 277.426C313.333 277.426 313.333 275.276 309.5 274.279C306.223 273.426 299.621 270.508 299.621 270.508H292.765Z" fill="#1B1C17"/>
<path d="M292.765 270.508L289.087 252.482H297.688L299.621 270.508H292.765Z" fill="#F6CAAD"/>
<path d="M255.039 171.176C255.039 171.176 249.501 189.432 250.116 219.377C250.731 249.323 251.346 267.305 251.346 267.305H264.884L271.037 193.327V172.614L255.039 171.176Z" fill="#0F1F18"/>
<path d="M266.525 174.254C266.525 174.254 267.69 180.598 268.077 182.712C268.445 184.719 269.55 190.741 269.55 190.741C269.55 190.741 274.088 212.267 277.396 224.096C284.164 248.3 289.908 267.307 289.908 267.307H302.626C302.626 267.307 292.985 190.663 287.447 174.254H266.525Z" fill="#0F1F18"/>
<path d="M214.7 121.702C214.7 121.702 212.87 117.56 211.651 116.689C210.431 115.817 208.033 113.454 207.51 113.785C206.987 114.117 208.251 116.034 209.079 116.95C209.906 117.866 209.557 118.208 208.686 117.885C207.814 117.56 204.852 115.642 203.587 114.509C202.323 113.376 200.276 112.592 199.883 113.158C199.491 113.725 200.929 117.603 202.019 119.216C203.109 120.828 210.749 125.703 210.749 125.703L214.7 121.702Z" fill="#F6CAAD"/>
<path d="M286.625 154.871C286.621 154.978 286.621 155.101 286.621 155.239C286.642 159.539 288.471 177.792 288.471 177.792C288.471 177.792 281.32 179.378 274.425 180.029C273.888 180.081 273.353 180.126 272.824 180.164C271.42 180.266 270.051 180.32 268.782 180.304C260.886 180.202 252.578 177.535 252.578 177.535C252.578 177.535 254.321 168.305 255.245 160.613C256.168 152.921 253.604 138.533 253.604 138.533L253.603 138.534C253.494 138.576 249.982 139.937 244.477 142.563C241.618 143.928 237.733 144.567 234.677 144.624C233.165 144.657 231.856 144.544 230.975 144.306C223.455 142.281 210.054 125.701 210.054 125.701C210.567 123.343 214.343 120.818 214.343 120.818C214.343 120.818 230.736 132.818 232.685 133.435C234.634 134.05 247.379 123.608 257.533 120.531C259.592 119.907 261.252 119.446 262.585 119.109C267.826 117.784 268.068 118.358 268.068 118.358C272.095 117.921 277.863 118.705 282.681 119.904C285.636 120.64 288.235 121.533 289.855 122.397C289.867 122.4 289.877 122.407 289.889 122.414C289.915 122.428 289.941 122.443 289.967 122.457C290.819 122.924 291.379 123.378 291.553 123.794C292.177 125.292 290.259 135.169 288.639 143.466C288.478 144.278 288.323 145.076 288.172 145.85C287.81 147.718 287.476 149.442 287.214 150.889C286.866 152.789 286.644 154.215 286.625 154.871Z" fill="#CFDAD6"/>
<path d="M282.675 119.907C281.478 122.165 278.037 127.166 271.31 126.396C264.153 125.575 262.826 120.75 262.581 119.113C267.822 117.788 268.064 118.361 268.064 118.361C272.089 117.924 277.857 118.707 282.675 119.907Z" fill="white"/>
<path d="M269.099 151.896L278.422 153.765L283.081 160.267L286.112 156.082L278.524 147.691L269.099 151.896Z" fill="#BDC7C3"/>
<path d="M288.472 177.792C288.472 177.792 281.32 179.378 274.426 180.029C274.41 175.99 275.162 171.186 278.969 166.958C283.492 161.934 285.259 153.765 285.259 153.765L286.624 155.239C286.643 159.537 288.472 177.792 288.472 177.792Z" fill="#BDC7C3"/>
<path d="M280.79 151.896H269.508L267.342 131.077H278.622L280.79 151.896Z" fill="#4F8D88"/>
<path d="M280.381 151.896H269.099L266.931 131.077H278.213L280.381 151.896Z" fill="#65A282"/>
<path d="M301.689 159.889L291.67 154.835L290.031 150.63L288.169 145.85L286.714 142.117C286.714 142.117 286.706 141.946 286.693 141.637C286.56 138.445 285.98 120.427 289.849 122.397C289.862 122.4 289.872 122.407 289.884 122.414C289.91 122.428 289.936 122.443 289.962 122.457C297.381 126.479 302.621 136.049 301.689 159.889Z" fill="#CFDAD6"/>
<path d="M292.257 150.426L290.032 150.632L288.17 145.852C287.807 147.719 287.474 149.443 287.211 150.891L286.586 150.948L286.695 141.639L286.715 139.785L288.635 143.47L292.257 150.426Z" fill="#BDC7C3"/>
<path d="M281.481 119.811C281.481 119.811 278.524 124.924 271.704 125.283C264.884 125.642 263.623 119.023 263.623 119.023C263.623 119.023 265.667 117.732 266.58 114.405C266.948 113.072 267.135 111.408 266.935 109.37C266.862 108.627 266.909 107.991 267.047 107.451C268.251 102.8 276.42 105.029 276.42 105.029C276.42 105.029 275.57 118.441 281.481 119.811Z" fill="#F6CAAD"/>
<path d="M278.967 142.119C278.967 142.119 271.396 138.462 269.344 138.256C267.293 138.051 266.882 138.308 266.934 140.564C266.986 142.82 267.088 145.334 267.908 145.589C268.729 145.845 275.372 147.272 275.372 147.272L278.967 142.119Z" fill="#F6CAAD"/>
<path d="M278.968 142.119L274.865 147.999C274.865 147.999 287.814 162.145 293.967 164.743C300.121 167.341 303.169 161.81 300.983 157.709C298.796 153.606 278.968 142.119 278.968 142.119Z" fill="#CFDAD6"/>
<path d="M274.464 137.78C274.991 137.167 274.743 136.089 273.911 135.375C273.079 134.66 271.977 134.578 271.449 135.192C270.922 135.806 271.17 136.883 272.002 137.597C272.835 138.312 273.937 138.394 274.464 137.78Z" fill="#4F8D88"/>
<path d="M274.969 105.848C274.969 105.848 272.113 112.942 266.58 114.405C266.948 113.072 267.135 111.408 266.934 109.37C266.862 108.627 266.908 107.991 267.046 107.451C270.565 106.729 274.969 105.848 274.969 105.848Z" fill="#F0B48D"/>
<path d="M261.602 91.7983C261.602 91.7983 260.062 100.823 263.141 106.977C264.448 109.595 267.356 110.617 269.909 109.798C273.36 108.691 276.421 105.029 276.421 105.029C276.421 105.029 279.994 105.098 280.234 101.097C280.486 96.8909 275.858 100.363 275.858 100.363C275.858 100.363 274.628 99.5425 274.423 97.9014C273.963 94.2254 273.91 93.03 273.91 93.03C273.91 93.03 264.782 93.4394 261.602 91.7983Z" fill="#F6CAAD"/>
<path d="M280.768 86.5572C278.408 81.8689 272.543 79.8081 272.484 79.7873L272.617 79.4004C272.678 79.4211 278.696 81.5338 281.134 86.3741L280.768 86.5572Z" fill="#1B1C17"/>
<path d="M268.471 184.863L267.113 240.504L270.777 196.44L268.471 184.863Z" fill="#182F25"/>
<path d="M283.593 178.759L283.188 178.831L299.081 267.359L299.485 267.286L283.593 178.759Z" fill="white"/>
<path d="M255.202 267.421L254.793 267.419C254.955 225.891 258.054 179.456 258.085 178.991L258.495 179.019C258.464 179.484 255.365 225.907 255.202 267.421Z" fill="white"/>
<path d="M253.601 138.533L253.6 138.534C253.491 138.576 249.979 139.937 244.474 142.563C241.615 143.927 237.73 144.567 234.674 144.624C243.292 142.48 252.439 133.651 252.439 133.651L253.601 138.533Z" fill="#BDC7C3"/>
<path d="M339.637 163.297C334.97 163.297 331.173 159.5 331.173 154.833C331.173 150.165 334.97 146.368 339.637 146.368C344.305 146.368 348.102 150.165 348.102 154.833C348.102 159.5 344.305 163.297 339.637 163.297ZM339.637 146.778C335.196 146.778 331.582 150.391 331.582 154.833C331.582 159.274 335.196 162.888 339.637 162.888C344.079 162.888 347.692 159.274 347.692 154.833C347.692 150.391 344.079 146.778 339.637 146.778Z" fill="#70A794"/>
<path d="M340.012 158.992V160.324H339.375V159.042C338.504 159.042 337.796 158.866 337.252 158.514V157.446C337.488 157.655 337.813 157.83 338.224 157.971C338.635 158.113 339.019 158.184 339.375 158.184V155.042C338.475 154.608 337.891 154.207 337.627 153.843C337.361 153.477 337.228 153.045 337.228 152.546C337.228 151.953 337.43 151.44 337.836 151.008C338.24 150.576 338.755 150.317 339.376 150.233V149.129H340.014V150.208C340.815 150.233 341.37 150.348 341.677 150.552V151.595C341.259 151.269 340.707 151.093 340.014 151.069V154.309C340.866 154.715 341.448 155.106 341.76 155.484C342.073 155.862 342.23 156.292 342.23 156.776C342.23 157.356 342.035 157.845 341.645 158.239C341.251 158.63 340.708 158.882 340.012 158.992ZM339.375 153.96V151.1C339.031 151.169 338.76 151.323 338.559 151.557C338.359 151.792 338.259 152.077 338.259 152.414C338.259 152.767 338.34 153.055 338.504 153.28C338.667 153.504 338.957 153.731 339.375 153.96ZM340.012 155.36V158.134C340.802 157.963 341.197 157.536 341.197 156.857C341.197 156.292 340.802 155.793 340.012 155.36Z" fill="#70A794"/>
</g>
</g>
<defs>
<linearGradient id="paint0_linear_2098_24789" x1="288.338" y1="46.5769" x2="322.227" y2="46.5769" gradientUnits="userSpaceOnUse">
<stop stop-color="white"/>
<stop offset="1" stop-color="#FE707C"/>
</linearGradient>
<linearGradient id="paint1_linear_2098_24789" x1="288.339" y1="46.5773" x2="322.228" y2="46.5773" gradientUnits="userSpaceOnUse">
<stop stop-color="white"/>
<stop offset="1" stop-color="#214333"/>
</linearGradient>
<linearGradient id="paint2_linear_2098_24789" x1="288.338" y1="52.1247" x2="322.227" y2="52.1247" gradientUnits="userSpaceOnUse">
<stop stop-color="white"/>
<stop offset="1" stop-color="#FE707C"/>
</linearGradient>
<linearGradient id="paint3_linear_2098_24789" x1="288.339" y1="52.1242" x2="322.228" y2="52.1242" gradientUnits="userSpaceOnUse">
<stop stop-color="white"/>
<stop offset="1" stop-color="#214333"/>
</linearGradient>
<linearGradient id="paint4_linear_2098_24789" x1="288.338" y1="57.401" x2="310.797" y2="57.401" gradientUnits="userSpaceOnUse">
<stop stop-color="white"/>
<stop offset="1" stop-color="#FE707C"/>
</linearGradient>
<linearGradient id="paint5_linear_2098_24789" x1="288.339" y1="57.4015" x2="310.797" y2="57.4015" gradientUnits="userSpaceOnUse">
<stop stop-color="white"/>
<stop offset="1" stop-color="#214333"/>
</linearGradient>
<linearGradient id="paint6_linear_2098_24789" x1="149.687" y1="150.949" x2="250.603" y2="150.949" gradientUnits="userSpaceOnUse">
<stop stop-color="white"/>
<stop offset="1" stop-color="#214333"/>
</linearGradient>
<linearGradient id="paint7_linear_2098_24789" x1="193.572" y1="95.8723" x2="237.797" y2="95.8723" gradientUnits="userSpaceOnUse">
<stop stop-color="white"/>
<stop offset="1" stop-color="#FE707C"/>
</linearGradient>
<linearGradient id="paint8_linear_2098_24789" x1="193.571" y1="95.8725" x2="237.796" y2="95.8725" gradientUnits="userSpaceOnUse">
<stop stop-color="white"/>
<stop offset="1" stop-color="#214333"/>
</linearGradient>
<linearGradient id="paint9_linear_2098_24789" x1="193.572" y1="101.472" x2="237.797" y2="101.472" gradientUnits="userSpaceOnUse">
<stop stop-color="white"/>
<stop offset="1" stop-color="#FE707C"/>
</linearGradient>
<linearGradient id="paint10_linear_2098_24789" x1="193.571" y1="101.471" x2="237.796" y2="101.471" gradientUnits="userSpaceOnUse">
<stop stop-color="white"/>
<stop offset="1" stop-color="#214333"/>
</linearGradient>
<linearGradient id="paint11_linear_2098_24789" x1="193.572" y1="107.01" x2="217.089" y2="107.01" gradientUnits="userSpaceOnUse">
<stop stop-color="white"/>
<stop offset="1" stop-color="#FE707C"/>
</linearGradient>
<linearGradient id="paint12_linear_2098_24789" x1="193.571" y1="107.009" x2="217.089" y2="107.009" gradientUnits="userSpaceOnUse">
<stop stop-color="white"/>
<stop offset="1" stop-color="#214333"/>
</linearGradient>
<linearGradient id="paint13_linear_2098_24789" x1="194.005" y1="128.251" x2="238.231" y2="128.251" gradientUnits="userSpaceOnUse">
<stop stop-color="white"/>
<stop offset="1" stop-color="#FE707C"/>
</linearGradient>
<linearGradient id="paint14_linear_2098_24789" x1="194.005" y1="128.251" x2="238.229" y2="128.251" gradientUnits="userSpaceOnUse">
<stop stop-color="white"/>
<stop offset="1" stop-color="#214333"/>
</linearGradient>
<linearGradient id="paint15_linear_2098_24789" x1="193.572" y1="134.246" x2="237.797" y2="134.246" gradientUnits="userSpaceOnUse">
<stop stop-color="white"/>
<stop offset="1" stop-color="#FE707C"/>
</linearGradient>
<linearGradient id="paint16_linear_2098_24789" x1="193.571" y1="134.246" x2="237.796" y2="134.246" gradientUnits="userSpaceOnUse">
<stop stop-color="white"/>
<stop offset="1" stop-color="#214333"/>
</linearGradient>
<linearGradient id="paint17_linear_2098_24789" x1="194.005" y1="140.251" x2="217.522" y2="140.251" gradientUnits="userSpaceOnUse">
<stop stop-color="white"/>
<stop offset="1" stop-color="#FE707C"/>
</linearGradient>
<linearGradient id="paint18_linear_2098_24789" x1="194.005" y1="140.251" x2="217.522" y2="140.251" gradientUnits="userSpaceOnUse">
<stop stop-color="white"/>
<stop offset="1" stop-color="#214333"/>
</linearGradient>
<linearGradient id="paint19_linear_2098_24789" x1="193.572" y1="161.142" x2="237.797" y2="161.142" gradientUnits="userSpaceOnUse">
<stop stop-color="white"/>
<stop offset="1" stop-color="#FE707C"/>
</linearGradient>
<linearGradient id="paint20_linear_2098_24789" x1="193.571" y1="161.142" x2="237.796" y2="161.142" gradientUnits="userSpaceOnUse">
<stop stop-color="white"/>
<stop offset="1" stop-color="#214333"/>
</linearGradient>
<linearGradient id="paint21_linear_2098_24789" x1="193.572" y1="166.741" x2="237.797" y2="166.741" gradientUnits="userSpaceOnUse">
<stop stop-color="white"/>
<stop offset="1" stop-color="#FE707C"/>
</linearGradient>
<linearGradient id="paint22_linear_2098_24789" x1="193.571" y1="166.741" x2="237.796" y2="166.741" gradientUnits="userSpaceOnUse">
<stop stop-color="white"/>
<stop offset="1" stop-color="#214333"/>
</linearGradient>
<linearGradient id="paint23_linear_2098_24789" x1="194.005" y1="172.251" x2="217.522" y2="172.251" gradientUnits="userSpaceOnUse">
<stop stop-color="white"/>
<stop offset="1" stop-color="#FE707C"/>
</linearGradient>
<linearGradient id="paint24_linear_2098_24789" x1="194.005" y1="172.251" x2="217.522" y2="172.251" gradientUnits="userSpaceOnUse">
<stop stop-color="white"/>
<stop offset="1" stop-color="#214333"/>
</linearGradient>
<linearGradient id="paint25_linear_2098_24789" x1="193.572" y1="193.917" x2="237.797" y2="193.917" gradientUnits="userSpaceOnUse">
<stop stop-color="white"/>
<stop offset="1" stop-color="#FE707C"/>
</linearGradient>
<linearGradient id="paint26_linear_2098_24789" x1="193.571" y1="193.917" x2="237.796" y2="193.917" gradientUnits="userSpaceOnUse">
<stop stop-color="white"/>
<stop offset="1" stop-color="#214333"/>
</linearGradient>
<linearGradient id="paint27_linear_2098_24789" x1="193.572" y1="199.516" x2="237.797" y2="199.516" gradientUnits="userSpaceOnUse">
<stop stop-color="white"/>
<stop offset="1" stop-color="#FE707C"/>
</linearGradient>
<linearGradient id="paint28_linear_2098_24789" x1="193.571" y1="199.516" x2="237.796" y2="199.516" gradientUnits="userSpaceOnUse">
<stop stop-color="white"/>
<stop offset="1" stop-color="#214333"/>
</linearGradient>
<linearGradient id="paint29_linear_2098_24789" x1="194.005" y1="205.252" x2="217.522" y2="205.252" gradientUnits="userSpaceOnUse">
<stop stop-color="white"/>
<stop offset="1" stop-color="#FE707C"/>
</linearGradient>
<linearGradient id="paint30_linear_2098_24789" x1="194.005" y1="205.252" x2="217.522" y2="205.252" gradientUnits="userSpaceOnUse">
<stop stop-color="white"/>
<stop offset="1" stop-color="#214333"/>
</linearGradient>
<linearGradient id="paint31_linear_2098_24789" x1="141.442" y1="68.6678" x2="127.495" y2="180.66" gradientUnits="userSpaceOnUse">
<stop stop-color="#F6C5A7"/>
<stop offset="1" stop-color="#FE707C"/>
</linearGradient>
<linearGradient id="paint32_linear_2098_24789" x1="163.485" y1="81.5" x2="118.5" y2="161.024" gradientUnits="userSpaceOnUse">
<stop stop-color="#65736C"/>
<stop offset="1" stop-color="#214333"/>
</linearGradient>
<clipPath id="clip0_2098_24789">
<rect width="370" height="340" rx="20" fill="white"/>
</clipPath>
<clipPath id="clip1_2098_24789">
<rect width="325.204" height="269" fill="white" transform="translate(22.8975 36)"/>
</clipPath>
</defs>
</svg>
